<svg width="974" height="715" viewBox="0 0 974 715" fill="none" xmlns="http://www.w3.org/2000/svg">
<g clip-path="url(#clip0_131_2)">
<path opacity="0.2" d="M128.9 362C116.09 365.87 104.1 375.24 100.9 388.24C97.24 403.18 105.68 418.24 106.9 433.58C110.84 483.84 39.34 519.3 49.54 568.67C53.59 588.3 69.96 602.74 86.09 614.67C111.93 633.72 140.6 650.55 172.35 655.3C220.54 662.52 270.89 641.3 317.73 654.71C355.51 665.53 384.42 697.24 421.94 708.94C450.5 717.85 481.27 714.34 510.94 710.73C526.94 708.79 543.7 706.55 556.61 696.95C580.61 679.08 582.12 643.79 598.19 618.5C623.01 579.5 677.43 571.84 723.06 579.42C768.69 587 813 605.66 859.23 604.14C869.11 603.81 879.23 602.47 887.85 597.62C898.33 591.73 905.41 581.35 911.67 571.08C950.795 506.648 972.271 433.052 973.94 357.69C974.21 344.74 973.75 331.23 967.66 319.8C959.96 305.34 944.57 296.69 929.25 290.87C892.46 276.87 851.82 274.58 815.77 258.79C781 243.56 752.84 216.85 722.56 193.96C662.218 148.432 592.277 117.284 518.07 102.89C500.68 99.53 482.63 97.13 465.35 101.01C445.44 105.48 428.28 117.89 412.85 131.25C371.8 166.79 338.9 210.64 301.07 249.59C274.973 276.451 246.556 300.956 216.15 322.82C202.15 332.91 187.27 344.89 171.67 352.35C157.39 359.17 144 357.45 128.9 362Z" fill="#E71C1D"/>
<path d="M311.88 46.1399C311.88 46.1399 273.23 97.4699 300.88 157.3C328.53 217.13 252.69 313.26 252.69 313.26" stroke="#535461" stroke-width="2" stroke-miterlimit="10"/>
<path d="M329.21 26.9299C326.14 40.1399 311.45 48.0099 311.45 48.0099C311.45 48.0099 301.75 34.4599 304.82 21.2499C307.89 8.03989 315.82 -1.4001 322.58 0.169897C329.34 1.7399 332.28 13.7199 329.21 26.9299Z" fill="#8ED16F"/>
<path d="M319.343 24.6281C320.308 20.4808 319.83 16.8255 318.276 16.4637C316.721 16.1019 314.679 19.1707 313.714 23.318C312.748 27.4653 313.226 31.1207 314.781 31.4824C316.335 31.8442 318.378 28.7754 319.343 24.6281Z" fill="#8ED16F"/>
<path opacity="0.3" d="M319.343 24.6281C320.308 20.4808 319.83 16.8255 318.276 16.4637C316.721 16.1019 314.679 19.1707 313.714 23.318C312.748 27.4653 313.226 31.1207 314.781 31.4824C316.335 31.8442 318.378 28.7754 319.343 24.6281Z" fill="black"/>
<path d="M322.53 85.6201C309.77 90.2201 295.18 82.1601 295.18 82.1601C295.18 82.1601 301.28 66.6501 314.05 62.0601C326.82 57.4701 339.05 59.0601 341.4 65.5201C343.75 71.9801 335.29 81.0201 322.53 85.6201Z" fill="#8ED16F"/>
<path d="M318.946 75.4351C322.948 73.9873 325.753 71.5974 325.21 70.0971C324.668 68.5968 320.983 68.5541 316.98 70.0019C312.978 71.4497 310.173 73.8396 310.716 75.3399C311.258 76.8402 314.943 76.8829 318.946 75.4351Z" fill="#8ED16F"/>
<path opacity="0.3" d="M318.946 75.4351C322.948 73.9873 325.753 71.5974 325.21 70.0971C324.668 68.5968 320.983 68.5541 316.98 70.0019C312.978 71.4497 310.173 73.8396 310.716 75.3399C311.258 76.8402 314.943 76.8829 318.946 75.4351Z" fill="black"/>
<path d="M319.56 132.39C306.8 136.99 292.21 128.93 292.21 128.93C292.21 128.93 298.31 113.42 311.08 108.83C323.85 104.24 336.08 105.83 338.43 112.29C340.78 118.75 332.32 127.8 319.56 132.39Z" fill="#8ED16F"/>
<path d="M316.124 122.912C320.131 121.47 322.94 119.083 322.4 117.581C321.859 116.08 318.173 116.031 314.167 117.474C310.16 118.916 307.351 121.303 307.891 122.805C308.432 124.306 312.118 124.354 316.124 122.912Z" fill="#8ED16F"/>
<path opacity="0.3" d="M316.124 122.912C320.131 121.47 322.94 119.083 322.4 117.581C321.859 116.08 318.173 116.031 314.167 117.474C310.16 118.916 307.351 121.303 307.891 122.805C308.432 124.306 312.118 124.354 316.124 122.912Z" fill="black"/>
<path d="M334.47 187.26C321.71 191.86 307.12 183.8 307.12 183.8C307.12 183.8 313.22 168.29 325.99 163.7C338.76 159.11 350.99 160.7 353.34 167.16C355.69 173.62 347.23 182.69 334.47 187.26Z" fill="#8ED16F"/>
<path d="M331.036 177.806C335.043 176.364 337.852 173.977 337.312 172.476C336.771 170.974 333.085 170.926 329.078 172.368C325.072 173.81 322.263 176.197 322.803 177.699C323.344 179.201 327.03 179.249 331.036 177.806Z" fill="#8ED16F"/>
<path opacity="0.3" d="M331.036 177.806C335.043 176.364 337.852 173.977 337.312 172.476C336.771 170.974 333.085 170.926 329.078 172.368C325.072 173.81 322.263 176.197 322.803 177.699C323.344 179.201 327.03 179.249 331.036 177.806Z" fill="black"/>
<path d="M324.77 237.44C312.01 242.04 297.42 233.98 297.42 233.98C297.42 233.98 303.52 218.47 316.29 213.88C329.06 209.29 341.29 210.88 343.64 217.34C345.99 223.8 337.54 232.85 324.77 237.44Z" fill="#8ED16F"/>
<path d="M321.363 227.134C325.366 225.686 328.171 223.296 327.628 221.796C327.086 220.296 323.401 220.253 319.398 221.701C315.396 223.148 312.591 225.538 313.133 227.039C313.676 228.539 317.361 228.582 321.363 227.134Z" fill="#8ED16F"/>
<path opacity="0.3" d="M321.363 227.134C325.366 225.686 328.171 223.296 327.628 221.796C327.086 220.296 323.401 220.253 319.398 221.701C315.396 223.148 312.591 225.538 313.133 227.039C313.676 228.539 317.361 228.582 321.363 227.134Z" fill="black"/>
<path d="M264.92 98.91C274.34 108.67 290.99 107.91 290.99 107.91C290.99 107.91 292.36 91.3 282.94 81.54C273.52 71.78 261.85 67.76 256.87 72.54C251.89 77.32 255.5 89.15 264.92 98.91Z" fill="#8ED16F"/>
<path d="M279.643 95.4463C280.792 94.3377 279.325 90.9556 276.368 87.892C273.41 84.8285 270.082 83.2436 268.934 84.3522C267.785 85.4607 269.252 88.8429 272.209 91.9064C275.167 94.97 278.495 96.5548 279.643 95.4463Z" fill="#8ED16F"/>
<path opacity="0.3" d="M279.643 95.4463C280.792 94.3377 279.325 90.9556 276.368 87.892C273.41 84.8285 270.082 83.2436 268.934 84.3522C267.785 85.4607 269.252 88.8429 272.209 91.9064C275.167 94.97 278.495 96.5548 279.643 95.4463Z" fill="black"/>
<path d="M259.51 253.9C268.93 263.66 285.58 262.9 285.58 262.9C285.58 262.9 286.95 246.29 277.53 236.53C268.11 226.77 256.44 222.75 251.46 227.53C246.48 232.31 250.09 244.14 259.51 253.9Z" fill="#8ED16F"/>
<path d="M274.219 250.45C275.368 249.341 273.901 245.959 270.944 242.896C267.986 239.832 264.658 238.247 263.51 239.356C262.361 240.464 263.828 243.847 266.785 246.91C269.743 249.974 273.071 251.558 274.219 250.45Z" fill="#8ED16F"/>
<path opacity="0.3" d="M274.219 250.45C275.368 249.341 273.901 245.959 270.944 242.896C267.986 239.832 264.658 238.247 263.51 239.356C262.361 240.464 263.828 243.847 266.785 246.91C269.743 249.974 273.071 251.558 274.219 250.45Z" fill="black"/>
<path d="M272 153.69C284.14 159.75 299.57 153.45 299.57 153.45C299.57 153.45 295.32 137.34 283.19 131.28C271.06 125.22 258.71 125.28 255.62 131.52C252.53 137.76 259.86 147.63 272 153.69Z" fill="#8ED16F"/>
<path d="M284.689 145.484C285.402 144.056 282.891 141.357 279.081 139.455C275.271 137.554 271.604 137.171 270.891 138.599C270.179 140.027 272.69 142.726 276.5 144.627C280.31 146.528 283.976 146.912 284.689 145.484Z" fill="#8ED16F"/>
<path opacity="0.3" d="M284.689 145.484C285.402 144.056 282.891 141.357 279.081 139.455C275.271 137.554 271.604 137.171 270.891 138.599C270.179 140.027 272.69 142.726 276.5 144.627C280.31 146.528 283.976 146.912 284.689 145.484Z" fill="black"/>
<path d="M277.09 208.26C289.23 214.32 304.66 208.02 304.66 208.02C304.66 208.02 300.41 191.91 288.28 185.85C276.15 179.79 263.8 179.85 260.71 186.09C257.62 192.33 265 202.26 277.09 208.26Z" fill="#8ED16F"/>
<path d="M289.783 200.061C290.496 198.633 287.985 195.934 284.175 194.032C280.365 192.131 276.698 191.748 275.986 193.176C275.273 194.604 277.784 197.303 281.594 199.204C285.404 201.106 289.071 201.489 289.783 200.061Z" fill="#8ED16F"/>
<path opacity="0.3" d="M289.783 200.061C290.496 198.633 287.985 195.934 284.175 194.032C280.365 192.131 276.698 191.748 275.986 193.176C275.273 194.604 277.784 197.303 281.594 199.204C285.404 201.106 289.071 201.489 289.783 200.061Z" fill="black"/>
<path d="M125.73 156.47C125.73 156.47 196.32 227.06 156.47 331.81C116.62 436.56 224.78 610.75 224.78 610.75C224.78 610.75 223.62 610.58 221.47 610.2C76.47 584.61 4.47005 418.79 85.0701 295.61C115 249.81 139.65 196.09 125.73 156.47Z" fill="#8ED16F"/>
<path d="M0 441.98C0 441.98 80.55 429.15 87.89 501.34C95.23 573.53 242.78 583.54 242.78 583.54C242.78 583.54 241.78 584.2 240.01 585.38C118.18 665.38 1.72001 636.32 19.27 530.13C25.81 490.64 25.27 450.99 0 441.98Z" fill="#8ED16F"/>
<g opacity="0.3">
<path opacity="0.3" d="M0 441.98C0 441.98 80.55 429.15 87.89 501.34C95.23 573.53 242.78 583.54 242.78 583.54C242.78 583.54 241.78 584.2 240.01 585.38C118.18 665.38 1.72001 636.32 19.27 530.13C25.81 490.64 25.27 450.99 0 441.98Z" fill="white"/>
</g>
<path d="M105.34 441.09C117.573 441.09 127.49 415.217 127.49 383.3C127.49 351.383 117.573 325.51 105.34 325.51C93.1068 325.51 83.1899 351.383 83.1899 383.3C83.1899 415.217 93.1068 441.09 105.34 441.09Z" fill="#8ED16F"/>
<path opacity="0.3" d="M105.34 441.09C117.573 441.09 127.49 415.217 127.49 383.3C127.49 351.383 117.573 325.51 105.34 325.51C93.1068 325.51 83.1899 351.383 83.1899 383.3C83.1899 415.217 93.1068 441.09 105.34 441.09Z" fill="black"/>
<path d="M103.316 593.182C109.147 587.351 103.353 572.104 90.376 559.127C77.3989 546.15 62.1523 540.357 56.3217 546.187C50.4912 552.018 56.2847 567.264 69.2618 580.242C82.2389 593.219 97.4856 599.012 103.316 593.182Z" fill="#8ED16F"/>
<path opacity="0.3" d="M103.316 593.182C109.147 587.351 103.353 572.104 90.376 559.127C77.3989 546.15 62.1523 540.357 56.3217 546.187C50.4912 552.018 56.2847 567.264 69.2618 580.242C82.2389 593.219 97.4856 599.012 103.316 593.182Z" fill="black"/>
<path d="M723.89 265.46H199.55C193.214 265.46 187.138 267.977 182.657 272.457C178.177 276.937 175.66 283.014 175.66 289.35V596.68C175.66 603.016 178.177 609.093 182.657 613.573C187.138 618.053 193.214 620.57 199.55 620.57H723.89C730.226 620.57 736.303 618.053 740.783 613.573C745.263 609.093 747.78 603.016 747.78 596.68V289.35C747.78 283.014 745.263 276.937 740.783 272.457C736.303 267.977 730.226 265.46 723.89 265.46V265.46Z" fill="url(#paint0_linear_131_2)"/>
<path d="M716.23 269.64H207.2C193.498 269.64 182.39 280.748 182.39 294.45V591.58C182.39 605.282 193.498 616.39 207.2 616.39H716.23C729.932 616.39 741.04 605.282 741.04 591.58V294.45C741.04 280.748 729.932 269.64 716.23 269.64Z" fill="#E71C1D"/>
<path d="M741.04 330.32H182.39V393.89H741.04V330.32Z" fill="#E71C1D"/>
<path opacity="0.3" d="M741.04 330.32H182.39V393.89H741.04V330.32Z" fill="black"/>
<path d="M688.07 441.09H235.37V471.91H688.07V441.09Z" fill="#D6D6E3"/>
<path d="M272.93 593.28C297.402 593.28 317.24 573.442 317.24 548.97C317.24 524.498 297.402 504.66 272.93 504.66C248.458 504.66 228.62 524.498 228.62 548.97C228.62 573.442 248.458 593.28 272.93 593.28Z" fill="#E71C1D"/>
<path opacity="0.3" d="M272.93 593.28C297.402 593.28 317.24 573.442 317.24 548.97C317.24 524.498 297.402 504.66 272.93 504.66C248.458 504.66 228.62 524.498 228.62 548.97C228.62 573.442 248.458 593.28 272.93 593.28Z" fill="black"/>
<path d="M709.28 184.14C709.995 186.402 711.514 188.323 713.55 189.54C722.74 195.61 742.72 194.32 745.12 194.32C745.63 194.32 746.3 195.23 747.04 196.76C750.57 204.04 756.04 225.38 756.41 230.18C756.9 235.99 762.3 263.18 771.14 273.31C771.41 273.62 771.68 273.91 771.94 274.18C780.61 282.89 790.78 273.31 790.78 273.31L792.24 268.24C791.83 270.24 791.37 272.57 790.91 275.18C790.68 276.49 790.45 277.88 790.23 279.31C788.913 287.368 788.221 295.515 788.16 303.68C788.138 306.644 788.265 309.608 788.54 312.56C788.62 313.38 788.71 314.19 788.82 314.98C789.272 318.575 789.492 322.196 789.48 325.82C789.4 347.34 783.91 374.11 783.91 374.11L784.12 374.04C783.99 374.71 783.91 375.04 783.91 375.04L784.23 374.94C784.077 375.933 783.93 376.95 783.79 377.99C781.93 391.49 780.86 408.29 780.35 417.99C780.086 423.107 780.314 428.237 781.03 433.31L790.79 502.02V534.02C790.757 538.869 791.349 543.702 792.55 548.4C795.73 560.49 793.11 602.69 791.64 622.71C791.23 628.17 790.91 631.99 790.82 633.09V633.42L791.1 633.31C791.1 633.54 791.1 633.66 791.1 633.66C791.517 633.482 791.953 633.354 792.4 633.28C788.53 639.28 781.52 649.2 776.13 650.87C772.954 651.838 770.128 653.711 768 656.26L767.86 656.45L767.66 656.73C766.994 657.622 766.589 658.681 766.49 659.79C766.412 659.599 766.352 659.402 766.31 659.2C765.9 661.43 767.24 663.47 771.45 664.46C773.905 664.928 776.402 665.13 778.9 665.06C793.5 665.06 819.41 660.57 822.27 655.74V639.08L822.74 639.23V639.38L824.53 639.97L829.44 623.49C835.33 619.13 830.44 541.1 829.44 523.17C828.54 506.83 838.65 441.83 840.44 430.38L840.2 430.09L840.47 428.42C840.83 428.681 841.165 428.976 841.47 429.3C842.058 429.998 842.57 430.755 843 431.56C843.845 432.991 844.571 434.49 845.17 436.04C855.05 460.68 859.5 531.14 859.5 537.46V603.72C859.48 610.259 860.389 616.767 862.2 623.05C863.107 626.357 863.809 629.716 864.3 633.11C864.51 634.44 864.69 635.76 864.86 637.02C865.03 638.28 865.2 639.72 865.33 640.9C865.33 641.21 865.4 641.51 865.43 641.79C865.46 642.07 865.43 642.06 865.43 642.2C865.7 644.81 865.84 646.52 865.84 646.52C865.877 646.377 865.945 646.244 866.04 646.13L866.09 646.76C866.161 646.521 866.295 646.307 866.48 646.14C866.887 645.741 867.329 645.38 867.8 645.06V653.48L867.56 653.3V654.75C877.74 662.43 894.31 664.75 907.03 664.66C915.28 664.66 921.96 663.66 924.28 662.5C927.6 660.87 925.78 657.07 922.76 654.16C920.42 651.9 917.37 650.16 915.44 650.38C912.22 650.73 901.21 638.26 895.44 631.43L896.09 631.14L897.01 630.74V520.26C897.01 520.26 898.49 476.64 902.9 433.5C904.993 411.754 902.419 389.811 895.35 369.14L895.21 368.73L896.55 368.94C897.97 369.16 898.73 369.29 898.73 369.29C898.73 369.29 898.73 368.95 898.64 368.29H898.73C898.73 368.29 897.01 349.58 896.99 326.08C896.99 299.44 899.24 266.96 908.55 248.58C913.91 238 915.7 229.58 915.55 222.94C915.784 217.097 914.102 211.338 910.76 206.54C909.358 204.608 907.452 203.1 905.25 202.18L905.06 202.07H904.96C903.352 201.419 901.635 201.08 899.9 201.07H879.79C877.463 201.072 875.174 200.469 873.15 199.32L865.28 194.86C862.66 189.13 862.28 182.03 862.84 175.37C862.84 174.84 862.94 174.31 862.99 173.79L863.56 173.19C864 172.72 864.41 172.19 864.81 171.74C864.801 172.135 864.771 172.529 864.72 172.92C864.62 173.55 864.45 173.92 864.18 174C868.48 173.44 873.28 172.59 875.92 169.27C876.03 169.14 876.13 169 876.23 168.86C877.01 167.597 877.657 166.257 878.16 164.86C878.53 163.906 879.024 163.005 879.63 162.18C880.29 161.32 881.15 160.62 881.86 159.8L881.98 159.66C884.51 156.66 884.65 152.36 884.68 148.44C884.73 138.92 884.45 128.44 878.08 121.3C872.79 115.36 864.35 113.11 856.34 112.85C848.33 112.59 840.34 114.03 832.34 114.07C826.9 114.07 820.34 113.98 817.34 118.48C815.87 120.69 815.69 123.58 814.09 125.7C813.17 126.92 811.76 127.97 811.68 129.49C811.67 130.191 811.85 130.882 812.2 131.49V131.56C814.14 135.38 818.26 137.76 822.56 138.51C821.833 139.385 821.165 140.307 820.56 141.27C817.935 145.467 816.548 150.32 816.56 155.27C816.56 155.85 816.56 156.42 816.62 156.99C817.066 163.714 820.064 170.013 825 174.6C824.92 175.16 824.84 175.72 824.75 176.27L824.93 176.43C825.497 176.943 826.087 177.43 826.7 177.89L826.92 178.06C826.92 178.41 826.92 178.76 826.92 179.06C826.92 179.64 826.92 180.23 826.86 180.8C826.8 181.37 826.86 181.72 826.8 182.18L826.67 182.07L816.9 173.91L801.19 159.37C801.19 159.37 761.91 130.78 759.94 144.37C759.702 146.784 760.368 149.2 761.81 151.15C769.02 162.15 793.81 171.51 793.81 171.51C793.81 171.51 808.59 187.14 818.48 203.99C818.13 204.18 817.78 204.36 817.41 204.53C808.61 208.62 795.77 206.89 795.77 206.89C780.94 209.2 779.6 225.45 779.68 232.02C779.68 232.33 779.68 232.63 779.68 232.9C779.68 233.17 779.68 233.23 779.68 233.38L760 187.17L759.94 187.03C759.298 185.526 758.287 184.207 757.001 183.197C755.714 182.187 754.194 181.517 752.58 181.25C739.42 179.04 706.53 174.43 709.28 184.14ZM791.67 633.14C791.957 633.072 792.248 633.018 792.54 632.98L792.45 633.12L791.67 633.14Z" fill="url(#paint1_linear_131_2)"/>
<path d="M890 623.69C890 623.69 908.64 647.12 912.95 646.64C917.26 646.16 927.29 655.72 921.56 658.64C915.83 661.56 882.84 663.42 866.56 650.99V632.26L890 623.69Z" fill="#ACA9C9"/>
<path d="M795.81 625.12C795.81 625.12 784.81 644.72 777.17 647.12C769.53 649.52 762.83 658.12 772.87 660.51C782.91 662.9 818.77 657.64 822.11 651.9V626.55L795.81 625.12Z" fill="#ACA9C9"/>
<path d="M782 432.57L791.5 500.35V531.86C791.471 536.64 792.049 541.405 793.22 546.04C796.32 557.97 793.77 599.59 792.33 619.34C791.86 625.78 791.5 629.9 791.5 629.9C797.71 627.03 824.01 636.11 824.01 636.11L826.67 627.06L828.79 619.86C834.53 615.56 829.79 538.59 828.79 520.86C828.14 508.75 833.54 469.49 837 445.96C838 439.31 838.81 433.96 839.3 430.74C839.61 428.74 839.78 427.63 839.78 427.63C840.834 428.489 841.71 429.546 842.36 430.74C843.183 432.153 843.889 433.632 844.47 435.16C854.09 459.47 858.47 528.97 858.47 535.16V600.52C858.45 606.968 859.336 613.388 861.1 619.59C862.284 624.114 863.15 628.715 863.69 633.36C864.37 638.55 864.69 642.73 864.69 642.73C865.17 639.86 894.81 626.95 894.81 626.95V517.95C894.81 517.95 896.24 474.95 900.55 432.37C902.402 413.002 900.535 393.458 895.05 374.79C893.86 370.72 892.67 367.27 891.64 364.54C889.89 359.89 888.64 357.32 888.64 357.32H791C789.36 357.63 788 360.93 786.77 365.94C785.97 369.3 785.27 373.42 784.66 377.94C782.85 391.25 781.81 407.82 781.31 417.4C781.058 422.467 781.289 427.547 782 432.57V432.57Z" fill="#618FD8"/>
<g opacity="0.1">
<path opacity="0.1" d="M893.09 627.26V518.26C893.09 518.26 894.52 475.26 898.83 432.68C903.14 390.1 886.83 357.62 886.83 357.62H888.74C888.74 357.62 904.99 390.13 900.74 432.68C896.49 475.23 895 518.26 895 518.26V627.26C895 627.26 865.36 640.17 864.88 643.04C864.88 643.04 864.88 642.4 864.73 641.3C871.19 636.81 893.09 627.26 893.09 627.26Z" fill="black"/>
<path opacity="0.1" d="M794.37 629.6C793.468 629.619 792.577 629.802 791.74 630.14V629.66C792.614 629.572 793.493 629.552 794.37 629.6V629.6Z" fill="black"/>
<path opacity="0.1" d="M827.12 620.1C832.86 615.8 828.12 538.83 827.12 521.1C826.12 503.37 838.12 427.88 838.12 427.88C838.748 428.365 839.304 428.938 839.77 429.58C838.01 440.86 828.17 504.99 829.04 521.1C830.04 538.79 834.78 615.76 829.04 620.1L824.26 636.35L822.52 635.77L827.12 620.1Z" fill="black"/>
</g>
<path d="M801.54 239.31L791.54 274.69C791.54 274.69 781.02 284.69 772.42 274.69C763.82 264.69 758.52 237.88 758 232.14C757.48 226.4 749.87 196.76 747 196.76C744.13 196.76 715.45 198.67 712.1 186.76C709.42 177.18 741.44 181.76 754.26 183.91C755.839 184.179 757.324 184.842 758.577 185.839C759.831 186.835 760.812 188.133 761.43 189.61L781.09 236.56C781.09 236.56 791.5 224.49 801.54 239.31Z" fill="#9F616A"/>
<path d="M866.08 157.08C866.08 157.08 853.65 191.98 869.43 204.41C885.21 216.84 813 220.19 813 220.19L822.8 210.87C822.8 210.87 829.73 183.38 824.95 160.43L866.08 157.08Z" fill="#9F616A"/>
<path opacity="0.1" d="M850.78 204.41C850.78 204.41 863.45 201.3 863.45 197.96L874.68 204.41H902.89C902.89 204.41 923.45 215.88 906.24 250.31C889.03 284.74 896.68 369.31 896.68 369.31C896.68 369.31 835.49 358.31 784.81 375.05C784.81 375.05 792.46 337.28 789.59 315.77C786.72 294.26 794.37 264.14 794.37 264.14L798.67 245.97C798.67 245.97 798.43 228.97 780.74 237.6C780.74 237.6 778.11 212.98 796.28 210.11C796.28 210.11 817.28 212.98 823.53 202.46C823.53 202.5 837.4 210.63 850.78 204.41Z" fill="black"/>
<path d="M850.78 203.46C850.78 203.46 863.45 200.35 863.45 197.01L871.68 201.74C873.646 202.867 875.873 203.46 878.14 203.46H897.87C899.932 203.454 901.966 203.939 903.804 204.874C905.642 205.81 907.231 207.169 908.44 208.84C912.97 215.21 917.03 227.77 906.24 249.36C889.03 283.78 896.68 368.36 896.68 368.36C896.68 368.36 835.49 357.36 784.81 374.1C784.81 374.1 792.46 336.33 789.59 314.82C786.72 293.31 794.37 263.26 794.37 263.26L798.67 245.09C798.67 245.09 798.43 228.09 780.74 236.72C780.74 236.72 778.18 212.78 795.53 209.36C796.012 209.253 796.508 209.219 797 209.26C800.71 209.65 818 210.9 823.54 201.53C823.53 201.54 837.4 209.67 850.78 203.46Z" fill="#E14B5A"/>
<path opacity="0.1" d="M899.07 246.96C899.07 246.96 883.77 256.52 858.91 246.96C858.91 246.96 831.66 236.96 823.05 217.32C814.44 197.68 866.55 220.67 866.55 220.67C866.55 220.67 877.55 220.67 880.89 218.28C884.23 215.89 907.67 236.44 899.07 246.96Z" fill="black"/>
<path d="M899.07 245.05C899.07 245.05 883.77 254.61 858.91 245.05C858.91 245.05 831.66 235.05 823.05 215.41C814.44 195.77 794.37 174.26 794.37 174.26C794.37 174.26 759.47 160.87 761.37 147.49C763.27 134.11 801.53 162.31 801.53 162.31L816.83 176.65L866.55 218.72C866.55 218.72 877.55 218.72 880.89 216.33C884.23 213.94 907.67 234.53 899.07 245.05Z" fill="#9F616A"/>
<path opacity="0.1" d="M824.49 161.86L865.6 158.51C863.487 164.83 862.049 171.357 861.31 177.98C856.531 182.936 849.997 185.817 843.114 186.004C836.232 186.191 829.551 183.669 824.51 178.98C825.558 173.321 825.551 167.517 824.49 161.86V161.86Z" fill="black"/>
<path d="M842.9 184.57C857.419 184.57 869.19 172.8 869.19 158.28C869.19 143.76 857.419 131.99 842.9 131.99C828.38 131.99 816.61 143.76 816.61 158.28C816.61 172.8 828.38 184.57 842.9 184.57Z" fill="#9F616A"/>
<path opacity="0.1" d="M857.33 163.99C855.79 161.45 858.92 158.14 857.89 155.36C856.94 152.8 853.16 152.36 851.89 149.97C850.89 148.04 851.89 145.67 851.49 143.54C850.92 140.79 847.96 139.08 845.15 138.94C842.34 138.8 839.63 139.85 836.96 140.75C832.61 142.22 828.03 143.35 823.47 142.83C818.91 142.31 814.36 139.83 812.33 135.76C811.998 135.167 811.823 134.499 811.82 133.82C811.9 132.32 813.28 131.29 814.17 130.09C815.73 128 815.91 125.15 817.33 122.97C820.23 118.53 826.6 118.64 831.9 118.62C839.7 118.62 847.46 117.16 855.26 117.42C863.06 117.68 871.26 119.89 876.43 125.75C882.63 132.8 882.91 143.12 882.86 152.52C882.86 156.39 882.7 160.6 880.23 163.59C879.51 164.46 878.63 165.18 877.94 166.07C876.44 168.07 876.04 170.63 874.63 172.66C872.13 176.27 867.25 177.15 862.9 177.73C864.18 177.56 863.12 168.99 862.9 168.2C862.06 164.26 861.15 164.34 857.33 163.99Z" fill="black"/>
<path d="M857.33 163.04C855.79 160.5 858.92 157.19 857.89 154.41C856.94 151.85 853.16 151.41 851.89 149.02C850.89 147.09 851.89 144.72 851.49 142.59C850.92 139.84 847.96 138.13 845.15 137.99C842.34 137.85 839.63 138.9 836.96 139.8C832.61 141.27 828.03 142.4 823.47 141.88C818.91 141.36 814.36 138.88 812.33 134.81C811.998 134.217 811.823 133.549 811.82 132.87C811.9 131.37 813.28 130.34 814.17 129.14C815.73 127.05 815.91 124.2 817.33 122.02C820.23 117.58 826.6 117.69 831.9 117.67C839.7 117.67 847.46 116.21 855.26 116.47C863.06 116.73 871.26 118.94 876.43 124.8C882.63 131.85 882.91 142.17 882.86 151.57C882.86 155.44 882.7 159.65 880.23 162.64C879.51 163.51 878.63 164.23 877.94 165.12C876.44 167.12 876.04 169.68 874.63 171.71C872.13 175.32 867.25 176.2 862.9 176.78C864.18 176.61 863.12 168.04 862.9 167.25C862.06 163.26 861.15 163.38 857.33 163.04Z" fill="#281C1C"/>
<path opacity="0.1" d="M898.83 248.16C898.83 248.16 885.92 214.69 875.88 213.74C865.84 212.79 895 213.74 895 213.74L904.56 230.95L898.83 248.16Z" fill="black"/>
<path d="M899.79 248.16C899.79 248.16 886.88 214.69 876.84 213.74C866.8 212.79 895.96 213.74 895.96 213.74L905.52 230.95L899.79 248.16Z" fill="#E14B5A"/>
<path d="M863.65 633.44C864.33 638.63 864.65 642.81 864.65 642.81C865.13 639.94 894.77 627.03 894.77 627.03V619.26C894.015 619.232 893.259 619.269 892.51 619.37C886.76 620.14 881.43 622.93 876.51 625.91C872.354 628.638 868.062 631.151 863.65 633.44V633.44Z" fill="#618FD8"/>
<path opacity="0.3" d="M863.65 633.44C864.33 638.63 864.65 642.81 864.65 642.81C865.13 639.94 894.77 627.03 894.77 627.03V619.26C894.015 619.232 893.259 619.269 892.51 619.37C886.76 620.14 881.43 622.93 876.51 625.91C872.354 628.638 868.062 631.151 863.65 633.44V633.44Z" fill="black"/>
<path d="M791.5 629.9C797.71 627.03 824.01 636.11 824.01 636.11L826.67 627.06C822.08 626.13 817.52 624.97 813.04 623.59C810.948 622.985 808.903 622.229 806.92 621.33C805.596 620.622 804.234 619.988 802.84 619.43C799.41 618.25 795.84 618.75 792.32 619.34C791.86 625.78 791.5 629.9 791.5 629.9Z" fill="#618FD8"/>
<path opacity="0.3" d="M791.5 629.9C797.71 627.03 824.01 636.11 824.01 636.11L826.67 627.06C822.08 626.13 817.52 624.97 813.04 623.59C810.948 622.985 808.903 622.229 806.92 621.33C805.596 620.622 804.234 619.988 802.84 619.43C799.41 618.25 795.84 618.75 792.32 619.34C791.86 625.78 791.5 629.9 791.5 629.9Z" fill="black"/>
<path opacity="0.4" d="M921.3 657.15C921.7 656.979 922.055 656.719 922.34 656.39C922.624 656.06 922.829 655.671 922.94 655.25C923.118 655.91 923.05 656.611 922.748 657.224C922.446 657.837 921.932 658.319 921.3 658.58C915.56 661.45 882.58 663.36 866.3 650.93V649.5C882.58 661.93 915.56 660.02 921.3 657.15Z" fill="white"/>
<path opacity="0.4" d="M772.62 659.06C782.62 661.45 818.52 656.19 821.86 650.45V651.88C818.51 657.62 782.66 662.88 772.62 660.49C768.52 659.49 767.21 657.49 767.62 655.3C767.94 656.92 769.44 658.26 772.62 659.06Z" fill="white"/>
<path opacity="0.1" d="M830.94 310.79C830.94 310.79 820.42 307.44 817.55 310.79C814.68 314.14 790.15 321.99 790.15 321.99" fill="black"/>
<path d="M711.91 179.43H763.06V178.35H711.91V179.43Z" fill="#8ED16F"/>
<path d="M711.91 180.51H763.06V179.43H711.91V180.51Z" fill="#8ED16F"/>
<path opacity="0.1" d="M711.91 180.51H763.06V179.43H711.91V180.51Z" fill="black"/>
<path d="M711.91 181.59H763.06V180.51H711.91V181.59Z" fill="#8ED16F"/>
<path d="M711.91 182.66H763.06V181.58H711.91V182.66Z" fill="#8ED16F"/>
<path opacity="0.1" d="M711.91 182.66H763.06V181.58H711.91V182.66Z" fill="black"/>
<path d="M711.91 183.74H763.06V182.66H711.91V183.74Z" fill="#8ED16F"/>
<path d="M711.91 184.81H763.06V183.73H711.91V184.81Z" fill="#8ED16F"/>
<path opacity="0.1" d="M711.91 184.81H763.06V183.73H711.91V184.81Z" fill="black"/>
<path d="M711.91 185.89H763.06V184.81H711.91V185.89Z" fill="#8ED16F"/>
<path d="M711.91 186.96H763.06V185.88H711.91V186.96Z" fill="#8ED16F"/>
<path opacity="0.1" d="M711.91 186.96H763.06V185.88H711.91V186.96Z" fill="black"/>
<path d="M711.91 170.83H763.06V169.75H711.91V170.83Z" fill="#8ED16F"/>
<path d="M748.09 145.26L787.416 177.968L788.107 177.137L748.78 144.43L748.09 145.26Z" fill="#8ED16F"/>
<path d="M712.236 128.052L751.562 160.76L752.253 159.929L712.926 127.222L712.236 128.052Z" fill="#8ED16F"/>
<path d="M711.91 171.9H763.06V170.82H711.91V171.9Z" fill="#8ED16F"/>
<path opacity="0.1" d="M711.91 171.9H763.06V170.82H711.91V171.9Z" fill="black"/>
<path d="M711.91 172.99H763.06V171.91H711.91V172.99Z" fill="#8ED16F"/>
<path d="M711.91 174.06H763.06V172.98H711.91V174.06Z" fill="#8ED16F"/>
<path opacity="0.1" d="M711.91 174.06H763.06V172.98H711.91V174.06Z" fill="black"/>
<path d="M711.91 175.13H763.06V174.05H711.91V175.13Z" fill="#8ED16F"/>
<path d="M711.91 176.21H763.06V175.13H711.91V176.21Z" fill="#8ED16F"/>
<path opacity="0.1" d="M711.91 176.21H763.06V175.13H711.91V176.21Z" fill="black"/>
<path d="M711.91 177.28H763.06V176.2H711.91V177.28Z" fill="#8ED16F"/>
<path d="M711.91 178.36H763.06V177.28H711.91V178.36Z" fill="#8ED16F"/>
<path opacity="0.1" d="M711.91 178.36H763.06V177.28H711.91V178.36Z" fill="black"/>
<path d="M705.426 220.293L723.753 223.696L730.386 187.977L712.06 184.573L705.426 220.293Z" fill="#8ED16F"/>
<path d="M721.917 204.946C722.689 200.792 721.633 197.112 719.558 196.727C717.484 196.342 715.177 199.397 714.406 203.551C713.634 207.705 714.691 211.385 716.765 211.77C718.839 212.155 721.146 209.1 721.917 204.946Z" fill="#8ED16F"/>
<path opacity="0.1" d="M721.917 204.946C722.689 200.792 721.633 197.112 719.558 196.727C717.484 196.342 715.177 199.397 714.406 203.551C713.634 207.705 714.691 211.385 716.765 211.77C718.839 212.155 721.146 209.1 721.917 204.946Z" fill="black"/>
<path d="M708.562 295.687L726.889 299.09L733.522 263.371L715.195 259.967L708.562 295.687Z" fill="#8ED16F"/>
<path d="M725.044 280.331C725.815 276.178 724.759 272.498 722.685 272.113C720.61 271.727 718.303 274.783 717.532 278.937C716.761 283.091 717.817 286.77 719.891 287.155C721.965 287.541 724.272 284.485 725.044 280.331Z" fill="#8ED16F"/>
<path opacity="0.1" d="M725.044 280.331C725.815 276.178 724.759 272.498 722.685 272.113C720.61 271.727 718.303 274.783 717.532 278.937C716.761 283.091 717.817 286.77 719.891 287.155C721.965 287.541 724.272 284.485 725.044 280.331Z" fill="black"/>
<path d="M642.277 110.371L633.405 126.764L665.357 144.055L674.228 127.661L642.277 110.371Z" fill="#8ED16F"/>
<path d="M663.66 131.588C664.673 129.732 662.479 126.582 658.762 124.554C655.044 122.527 651.209 122.388 650.196 124.244C649.183 126.101 651.376 129.25 655.094 131.278C658.812 133.306 662.647 133.445 663.66 131.588Z" fill="#8ED16F"/>
<path opacity="0.1" d="M663.66 131.588C664.673 129.732 662.479 126.582 658.762 124.554C655.044 122.527 651.209 122.388 650.196 124.244C649.183 126.101 651.376 129.25 655.094 131.278C658.812 133.306 662.647 133.445 663.66 131.588Z" fill="black"/>
<path d="M572.119 433.894L563.248 450.288L595.199 467.578L604.071 451.185L572.119 433.894Z" fill="#8ED16F"/>
<path d="M590.284 454.596C591.288 452.741 589.09 449.607 585.374 447.596C581.658 445.585 577.832 445.459 576.828 447.315C575.823 449.17 578.022 452.304 581.738 454.315C585.453 456.326 589.28 456.452 590.284 454.596Z" fill="#8ED16F"/>
<path opacity="0.1" d="M590.284 454.596C591.288 452.741 589.09 449.607 585.374 447.596C581.658 445.585 577.832 445.459 576.828 447.315C575.823 449.17 578.022 452.304 581.738 454.315C585.453 456.326 589.28 456.452 590.284 454.596Z" fill="black"/>
<path d="M529.194 166.912L520.323 183.305L552.274 200.596L561.146 184.202L529.194 166.912Z" fill="#8ED16F"/>
<path d="M547.35 187.599C548.354 185.743 546.156 182.609 542.44 180.598C538.725 178.588 534.898 178.462 533.894 180.317C532.89 182.173 535.088 185.307 538.804 187.318C542.52 189.328 546.346 189.454 547.35 187.599Z" fill="#8ED16F"/>
<path opacity="0.1" d="M547.35 187.599C548.354 185.743 546.156 182.609 542.44 180.598C538.725 178.588 534.898 178.462 533.894 180.317C532.89 182.173 535.088 185.307 538.804 187.318C542.52 189.328 546.346 189.454 547.35 187.599Z" fill="black"/>
<path d="M582.993 110.366L574.122 126.76L606.074 144.051L614.945 127.657L582.993 110.366Z" fill="#8ED16F"/>
<path d="M601.149 131.054C602.153 129.198 599.955 126.064 596.239 124.053C592.524 122.042 588.697 121.916 587.693 123.772C586.689 125.627 588.887 128.762 592.603 130.772C596.319 132.783 600.145 132.909 601.149 131.054Z" fill="#8ED16F"/>
<path opacity="0.1" d="M601.149 131.054C602.153 129.198 599.955 126.064 596.239 124.053C592.524 122.042 588.697 121.916 587.693 123.772C586.689 125.627 588.887 128.762 592.603 130.772C596.319 132.783 600.145 132.909 601.149 131.054Z" fill="black"/>
<path d="M636.706 177.086L618.177 179.112L622.125 215.227L640.655 213.201L636.706 177.086Z" fill="#8ED16F"/>
<path d="M630.002 203.792C632.1 203.563 633.427 199.972 632.968 195.772C632.509 191.572 630.437 188.354 628.339 188.583C626.242 188.812 624.914 192.403 625.373 196.603C625.833 200.803 627.905 204.021 630.002 203.792Z" fill="#8ED16F"/>
<path opacity="0.1" d="M630.002 203.792C632.1 203.563 633.427 199.972 632.968 195.772C632.509 191.572 630.437 188.354 628.339 188.583C626.242 188.812 624.914 192.403 625.373 196.603C625.833 200.803 627.905 204.021 630.002 203.792Z" fill="black"/>
<path d="M763.747 374.844L745.218 376.87L749.167 412.985L767.696 410.959L763.747 374.844Z" fill="#8ED16F"/>
<path d="M757.053 401.55C759.15 401.321 760.478 397.73 760.019 393.53C759.559 389.33 757.487 386.111 755.39 386.341C753.292 386.57 751.965 390.161 752.424 394.361C752.883 398.56 754.955 401.779 757.053 401.55Z" fill="#8ED16F"/>
<path opacity="0.1" d="M757.053 401.55C759.15 401.321 760.478 397.73 760.019 393.53C759.559 389.33 757.487 386.111 755.39 386.341C753.292 386.57 751.965 390.161 752.424 394.361C752.883 398.56 754.955 401.779 757.053 401.55Z" fill="black"/>
<path d="M564.15 253.803L555.278 270.197L587.23 287.488L596.101 271.094L564.15 253.803Z" fill="#8ED16F"/>
<path d="M582.3 274.504C583.304 272.649 581.106 269.514 577.39 267.504C573.674 265.493 569.848 265.367 568.844 267.222C567.84 269.078 570.038 272.212 573.754 274.223C577.469 276.234 581.296 276.36 582.3 274.504Z" fill="#8ED16F"/>
<path opacity="0.1" d="M582.3 274.504C583.304 272.649 581.106 269.514 577.39 267.504C573.674 265.493 569.848 265.367 568.844 267.222C567.84 269.078 570.038 272.212 573.754 274.223C577.469 276.234 581.296 276.36 582.3 274.504Z" fill="black"/>
<path d="M483.521 230.775L474.649 247.169L506.601 264.46L515.472 248.066L483.521 230.775Z" fill="#8ED16F"/>
<path d="M504.331 252.565C505.343 250.708 503.15 247.559 499.432 245.531C495.714 243.503 491.879 243.364 490.867 245.221C489.854 247.077 492.047 250.227 495.765 252.255C499.483 254.283 503.318 254.421 504.331 252.565Z" fill="#8ED16F"/>
<path opacity="0.1" d="M504.331 252.565C505.343 250.708 503.15 247.559 499.432 245.531C495.714 243.503 491.879 243.364 490.867 245.221C489.854 247.077 492.047 250.227 495.765 252.255C499.483 254.283 503.318 254.421 504.331 252.565Z" fill="black"/>
<path d="M457.698 618.482L448.826 634.876L480.778 652.166L489.649 635.773L457.698 618.482Z" fill="#8ED16F"/>
<path d="M475.853 639.174C476.857 637.319 474.658 634.184 470.943 632.174C467.227 630.163 463.401 630.037 462.396 631.892C461.392 633.748 463.591 636.882 467.306 638.893C471.022 640.904 474.848 641.03 475.853 639.174Z" fill="#8ED16F"/>
<path opacity="0.1" d="M475.853 639.174C476.857 637.319 474.658 634.184 470.943 632.174C467.227 630.163 463.401 630.037 462.396 631.892C461.392 633.748 463.591 636.882 467.306 638.893C471.022 640.904 474.848 641.03 475.853 639.174Z" fill="black"/>
<path d="M434.451 624.801L431.051 643.128L466.771 649.755L470.171 631.428L434.451 624.801Z" fill="#8ED16F"/>
<path opacity="0.05" d="M434.451 624.801L431.051 643.128L466.771 649.755L470.171 631.428L434.451 624.801Z" fill="black"/>
<path d="M458.097 638.906C458.481 636.831 455.426 634.525 451.272 633.754C447.118 632.984 443.438 634.04 443.053 636.115C442.668 638.189 445.724 640.495 449.878 641.266C454.032 642.037 457.712 640.98 458.097 638.906Z" fill="#8ED16F"/>
<path opacity="0.1" d="M458.097 638.906C458.481 636.831 455.426 634.525 451.272 633.754C447.118 632.984 443.438 634.04 443.053 636.115C442.668 638.189 445.724 640.495 449.878 641.266C454.032 642.037 457.712 640.98 458.097 638.906Z" fill="black"/>
<path d="M437.798 635.792L434.397 654.119L470.118 660.746L473.518 642.419L437.798 635.792Z" fill="#8ED16F"/>
<path d="M461.433 649.896C461.818 647.822 458.762 645.516 454.608 644.745C450.454 643.974 446.775 645.031 446.39 647.105C446.005 649.18 449.061 651.486 453.215 652.257C457.369 653.027 461.048 651.971 461.433 649.896Z" fill="#8ED16F"/>
<path opacity="0.1" d="M461.433 649.896C461.818 647.822 458.762 645.516 454.608 644.745C450.454 643.974 446.775 645.031 446.39 647.105C446.005 649.18 449.061 651.486 453.215 652.257C457.369 653.027 461.048 651.971 461.433 649.896Z" fill="black"/>
<path d="M495.387 665.6L486.515 681.994L518.467 699.284L527.338 682.891L495.387 665.6Z" fill="#8ED16F"/>
<path d="M513.552 686.292C514.556 684.437 512.358 681.303 508.642 679.292C504.926 677.281 501.1 677.155 500.096 679.01C499.092 680.866 501.29 684 505.006 686.011C508.721 688.022 512.548 688.148 513.552 686.292Z" fill="#8ED16F"/>
<path opacity="0.1" d="M513.552 686.292C514.556 684.437 512.358 681.303 508.642 679.292C504.926 677.281 501.1 677.155 500.096 679.01C499.092 680.866 501.29 684 505.006 686.011C508.721 688.022 512.548 688.148 513.552 686.292Z" fill="black"/>
<path d="M472.147 671.907L468.747 690.234L504.468 696.861L507.868 678.533L472.147 671.907Z" fill="#8ED16F"/>
<path opacity="0.05" d="M472.147 671.907L468.747 690.234L504.468 696.861L507.868 678.533L472.147 671.907Z" fill="black"/>
<path d="M495.783 686.011C496.168 683.937 493.112 681.631 488.958 680.86C484.804 680.089 481.124 681.146 480.74 683.22C480.355 685.295 483.41 687.601 487.564 688.372C491.719 689.142 495.398 688.086 495.783 686.011Z" fill="#8ED16F"/>
<path opacity="0.1" d="M495.783 686.011C496.168 683.937 493.112 681.631 488.958 680.86C484.804 680.089 481.124 681.146 480.74 683.22C480.355 685.295 483.41 687.601 487.564 688.372C491.719 689.142 495.398 688.086 495.783 686.011Z" fill="black"/>
<path d="M475.492 682.909L472.092 701.236L507.812 707.863L511.212 689.536L475.492 682.909Z" fill="#8ED16F"/>
<path d="M499.138 697.014C499.522 694.939 496.467 692.633 492.313 691.862C488.159 691.092 484.479 692.149 484.094 694.223C483.709 696.297 486.765 698.604 490.919 699.374C495.073 700.145 498.753 699.088 499.138 697.014Z" fill="#8ED16F"/>
<path opacity="0.1" d="M499.138 697.014C499.522 694.939 496.467 692.633 492.313 691.862C488.159 691.092 484.479 692.149 484.094 694.223C483.709 696.297 486.765 698.604 490.919 699.374C495.073 700.145 498.753 699.088 499.138 697.014Z" fill="black"/>
<path d="M551.935 635.235L543.063 651.629L575.015 668.919L583.886 652.526L551.935 635.235Z" fill="#8ED16F"/>
<path d="M570.081 655.922C571.085 654.067 568.887 650.933 565.171 648.922C561.455 646.911 557.629 646.785 556.625 648.641C555.621 650.496 557.819 653.63 561.535 655.641C565.25 657.652 569.077 657.778 570.081 655.922Z" fill="#8ED16F"/>
<path opacity="0.1" d="M570.081 655.922C571.085 654.067 568.887 650.933 565.171 648.922C561.455 646.911 557.629 646.785 556.625 648.641C555.621 650.496 557.819 653.63 561.535 655.641C565.25 657.652 569.077 657.778 570.081 655.922Z" fill="black"/>
<path d="M528.69 641.547L525.29 659.875L561.01 666.501L564.41 648.174L528.69 641.547Z" fill="#8ED16F"/>
<path opacity="0.05" d="M528.69 641.547L525.29 659.875L561.01 666.501L564.41 648.174L528.69 641.547Z" fill="black"/>
<path d="M552.326 655.652C552.71 653.578 549.655 651.271 545.501 650.501C541.347 649.73 537.667 650.787 537.282 652.861C536.897 654.936 539.953 657.242 544.107 658.013C548.261 658.783 551.941 657.726 552.326 655.652Z" fill="#8ED16F"/>
<path opacity="0.1" d="M552.326 655.652C552.71 653.578 549.655 651.271 545.501 650.501C541.347 649.73 537.667 650.787 537.282 652.861C536.897 654.936 539.953 657.242 544.107 658.013C548.261 658.783 551.941 657.726 552.326 655.652Z" fill="black"/>
<path d="M532.035 652.548L528.635 670.875L564.355 677.502L567.755 659.175L532.035 652.548Z" fill="#8ED16F"/>
<path d="M555.68 666.655C556.065 664.58 553.01 662.274 548.855 661.503C544.701 660.733 541.022 661.789 540.637 663.864C540.252 665.938 543.308 668.244 547.462 669.015C551.616 669.786 555.295 668.729 555.68 666.655Z" fill="#8ED16F"/>
<path opacity="0.1" d="M555.68 666.655C556.065 664.58 553.01 662.274 548.855 661.503C544.701 660.733 541.022 661.789 540.637 663.864C540.252 665.938 543.308 668.244 547.462 669.015C551.616 669.786 555.295 668.729 555.68 666.655Z" fill="black"/>
</g>
<defs>
<linearGradient id="paint0_linear_131_2" x1="461.72" y1="620.57" x2="461.72" y2="265.46" gradientUnits="userSpaceOnUse">
<stop stop-color="#808080" stop-opacity="0.25"/>
<stop offset="0.54" stop-color="#808080" stop-opacity="0.12"/>
<stop offset="1" stop-color="#808080" stop-opacity="0.1"/>
</linearGradient>
<linearGradient id="paint1_linear_131_2" x1="817.62" y1="665.04" x2="817.62" y2="112.86" gradientUnits="userSpaceOnUse">
<stop stop-color="#808080" stop-opacity="0.25"/>
<stop offset="0.54" stop-color="#808080" stop-opacity="0.12"/>
<stop offset="1" stop-color="#808080" stop-opacity="0.1"/>
</linearGradient>
<clipPath id="clip0_131_2">
<rect width="974" height="714.52" fill="white"/>
</clipPath>
</defs>
</svg>
