<svg width="964" height="691" viewBox="0 0 964 691" fill="none" xmlns="http://www.w3.org/2000/svg">
<g clip-path="url(#clip0_131_160)">
<path d="M910.51 609.891C914.928 609.891 918.51 607.453 918.51 604.445C918.51 601.438 914.928 599 910.51 599C906.091 599 902.51 601.438 902.51 604.445C902.51 607.453 906.091 609.891 910.51 609.891Z" fill="#E71C1D"/>
<path d="M910.51 604.445C910.51 604.445 948.51 670.471 947.51 680Z" fill="#E71C1D"/>
<path d="M474.51 49H55.5095V689H474.51V49Z" fill="#F2F2F2"/>
<path d="M518.51 690H54.5095V0H518.51V690ZM56.5095 688H516.51V2H56.5095V688Z" fill="#3F3D56"/>
<path d="M658.201 75.1688C658.201 75.1688 655.916 66.9429 652.489 64.8865V75.1688C652.489 75.1688 638.778 73.1123 629.067 83.3946L638.207 85.4511C638.207 85.4511 624.782 89.9067 621.926 109.1L627.638 106.358L643.063 139.262L652.774 121.439L672.197 141.318L667.627 130.35L675.054 133.778L669.912 124.867L692.763 135.149L691.049 129.665L699.422 143.694C699.422 143.694 728.182 113.899 696.762 82.3664C696.762 82.3664 682.48 67.2857 658.201 75.1688Z" fill="#2F2E41"/>
<path d="M655.564 148.378C655.564 148.378 664.081 180.739 661.526 184.997C658.971 189.255 686.222 212.249 686.222 212.249L712.622 207.139L714.325 170.52C714.325 170.52 690.48 150.081 695.59 134.752L655.564 148.378Z" fill="#9F616A"/>
<path opacity="0.1" d="M655.564 148.378C655.564 148.378 664.081 180.739 661.526 184.997C658.971 189.255 686.222 212.249 686.222 212.249L712.622 207.139L714.325 170.52C714.325 170.52 690.48 150.081 695.59 134.752L655.564 148.378Z" fill="black"/>
<path d="M633.423 352.764C633.423 352.764 626.61 395.344 631.719 430.26C636.829 465.176 639.384 490.724 636.829 495.834C634.274 500.943 631.719 500.092 633.423 506.053C635.126 512.014 638.532 509.459 635.126 515.421C631.719 521.382 632.571 531.601 632.571 534.156C632.571 536.711 628.313 592.066 632.571 598.027C636.829 603.988 638.532 603.136 638.532 603.136L643.642 633.794L670.893 629.536L666.635 601.433C666.635 601.433 676.855 596.324 672.597 592.917C668.339 589.511 665.784 589.511 668.339 589.511C670.893 589.511 675.151 588.659 671.745 586.956C668.339 585.253 670.893 539.266 670.893 539.266C670.893 539.266 676.855 454.957 700.7 457.512C724.545 460.066 743.28 509.46 743.28 509.46L750.093 531.601C750.093 531.601 752.648 573.33 754.351 576.737C756.054 580.143 755.203 580.995 754.351 582.698C753.499 584.401 747.538 580.143 753.499 586.956C759.461 593.769 759.461 596.324 759.461 596.324L763.293 641.033L790.97 623.575V597.175C790.97 597.175 796.08 588.659 794.377 581.846C792.673 575.033 792.673 542.672 794.377 536.711C796.08 530.75 795.228 529.046 793.525 526.492C791.822 523.937 787.564 525.64 790.97 519.679C794.377 513.718 796.931 498.389 791.822 487.318C786.712 476.247 758.609 367.241 746.686 361.28C734.764 355.318 633.423 352.764 633.423 352.764Z" fill="#2F2E41"/>
<path d="M670.893 615.059C670.893 615.059 651.306 611.653 650.455 616.762C649.603 621.872 650.455 629.536 650.455 629.536C650.455 629.536 643.642 630.388 644.494 636.349C645.345 642.311 646.197 658.491 646.197 658.491C646.197 658.491 635.552 683.614 641.513 689.575C641.572 689.634 653.272 689.149 659.997 689.149H684.519C684.519 689.149 687.925 677.226 684.519 675.523C681.113 673.82 673.448 658.491 674.3 655.085C675.151 651.678 674.3 626.982 674.3 626.982L670.538 627.194L670.893 615.059Z" fill="#3F3D56"/>
<path d="M770.531 630.388L760.312 638.052C760.312 638.052 764.57 652.53 762.015 655.085C759.46 657.639 753.925 687.02 759.035 688.723C764.144 690.426 795.654 687.872 795.654 687.872C795.654 687.872 830.995 689.149 831.847 687.446C832.699 685.743 834.402 675.523 824.183 672.117C813.963 668.71 808.002 669.562 804.596 659.343C801.189 649.123 793.525 633.794 793.525 633.794L791.821 615.059C791.821 615.059 781.602 616.762 779.899 616.762C778.196 616.762 769.68 621.02 770.531 624.427C771.051 626.38 771.051 628.435 770.531 630.388V630.388Z" fill="#3F3D56"/>
<path d="M670.042 159.023C689.56 159.023 705.383 143.2 705.383 123.681C705.383 104.163 689.56 88.3396 670.042 88.3396C650.523 88.3396 634.7 104.163 634.7 123.681C634.7 143.2 650.523 159.023 670.042 159.023Z" fill="#9F616A"/>
<path d="M693.035 184.145L705.809 161.818C705.809 161.818 735.616 160.3 737.319 163.707C739.022 167.113 753.499 335.732 753.499 335.732C753.499 335.732 760.312 345.099 756.054 351.061L751.796 357.022V368.944C751.796 368.944 730.506 385.976 701.551 382.57C672.597 379.164 635.978 363.835 635.978 363.835L643.642 316.145L642.79 175.629L659.949 167.266C659.949 167.266 679.41 180.739 682.816 184.997C686.222 189.255 693.035 184.145 693.035 184.145Z" fill="#3F3D56"/>
<path d="M663.229 184.145L659.397 161.578L607.023 198.623L635.977 283.784C635.977 283.784 618.094 316.145 621.5 328.067C624.906 339.99 626.61 357.874 626.61 357.874C626.61 357.874 672.596 369.796 671.745 363.835C670.893 357.873 671.745 331.474 671.745 331.474C671.745 331.474 686.634 221.187 679.189 204.369C671.745 187.552 663.229 184.145 663.229 184.145Z" fill="#D0CDE1"/>
<path d="M710.067 173.075L701.977 157.32C701.975 156.826 759.458 164.777 762.015 169.668L755.203 300.816C755.203 300.816 756.054 319.551 760.312 324.661C764.57 329.77 763.719 338.286 762.015 339.138C760.312 339.99 732.209 348.506 732.209 348.506C732.209 348.506 704.958 301.667 707.513 245.461C710.067 189.255 710.067 173.075 710.067 173.075Z" fill="#D0CDE1"/>
<path d="M751.796 170.52L760.815 168.6C764.346 170.586 767.152 173.645 768.828 177.333C771.383 183.294 801.189 247.164 801.189 251.422C801.189 255.681 802.041 287.19 783.305 287.19C764.57 287.19 750.093 207.139 750.093 207.139L751.796 170.52Z" fill="#D0CDE1"/>
<path d="M624.055 391.086L639.384 414.08L647.9 385.125L641.939 376.609L624.055 391.086Z" fill="#9F616A"/>
<path d="M614.687 199.474L607.023 198.623L588.287 299.112L620.648 399.602L648.752 378.312L629.165 311.035L635.977 259.087L614.687 199.474Z" fill="#D0CDE1"/>
<path d="M706.939 113.71C702.26 96.653 687.625 84.2031 670.285 84.2031C657.79 84.2031 646.697 90.6671 639.722 100.661L648.466 117.418L657.185 103.044L674.623 119.077L670.52 110.231L677.187 112.995L672.571 105.808L693.086 114.101L691.548 109.678L701.292 122.394C703.559 119.768 705.458 116.847 706.939 113.71V113.71Z" fill="#2F2E41"/>
<path opacity="0.1" d="M746.261 211.823L769.207 231.829L757.332 205.861L746.261 211.823Z" fill="black"/>
<path d="M736.718 180.419L735.919 180.101L740.235 169.261C740.357 168.954 740.417 168.627 740.413 168.297C740.408 167.968 740.339 167.642 740.208 167.34C740.078 167.037 739.889 166.763 739.653 166.533C739.417 166.303 739.138 166.122 738.831 166L714.357 156.257C714.05 156.135 713.723 156.074 713.394 156.079C713.064 156.083 712.739 156.153 712.436 156.283C712.133 156.414 711.859 156.602 711.629 156.839C711.399 157.075 711.218 157.354 711.096 157.66L691.024 208.08C690.777 208.699 690.787 209.39 691.05 210.001C691.314 210.613 691.809 211.095 692.427 211.341L716.902 221.084C717.208 221.206 717.535 221.267 717.865 221.262C718.195 221.257 718.52 221.188 718.823 221.058C719.126 220.927 719.4 220.739 719.63 220.502C719.859 220.266 720.041 219.987 720.162 219.681L730.516 193.672L731.315 193.99L736.718 180.419Z" fill="#2F2E41"/>
<path d="M721.151 178.517C723.523 178.517 725.447 176.594 725.447 174.221C725.447 171.848 723.523 169.925 721.151 169.925C718.778 169.925 716.854 171.848 716.854 174.221C716.854 176.594 718.778 178.517 721.151 178.517Z" fill="#E71C1D"/>
<path d="M736.467 208.842C736.467 208.842 725.396 174.778 711.771 180.739C698.145 186.7 716.88 222.468 716.88 222.468L728.803 230.132L736.467 208.842Z" fill="#9F616A"/>
<path d="M795.228 252.274L735.615 205.436L714.325 236.945C714.325 236.945 770.531 296.558 783.305 284.635C796.08 272.712 795.228 252.274 795.228 252.274Z" fill="#D0CDE1"/>
<path d="M963.51 688.131H0V690.372H963.51V688.131Z" fill="#2F2E41"/>
<path d="M66.5095 14C68.1664 14 69.5095 12.6569 69.5095 11C69.5095 9.34315 68.1664 8 66.5095 8C64.8527 8 63.5095 9.34315 63.5095 11C63.5095 12.6569 64.8527 14 66.5095 14Z" fill="#3F3D56"/>
<path d="M77.5095 14C79.1664 14 80.5095 12.6569 80.5095 11C80.5095 9.34315 79.1664 8 77.5095 8C75.8527 8 74.5095 9.34315 74.5095 11C74.5095 12.6569 75.8527 14 77.5095 14Z" fill="#3F3D56"/>
<path d="M88.5095 14C90.1664 14 91.5095 12.6569 91.5095 11C91.5095 9.34315 90.1664 8 88.5095 8C86.8527 8 85.5095 9.34315 85.5095 11C85.5095 12.6569 86.8527 14 88.5095 14Z" fill="#3F3D56"/>
<path d="M99.5095 14C101.166 14 102.51 12.6569 102.51 11C102.51 9.34315 101.166 8 99.5095 8C97.8527 8 96.5095 9.34315 96.5095 11C96.5095 12.6569 97.8527 14 99.5095 14Z" fill="#3F3D56"/>
<path d="M110.51 14C112.166 14 113.51 12.6569 113.51 11C113.51 9.34315 112.166 8 110.51 8C108.853 8 107.51 9.34315 107.51 11C107.51 12.6569 108.853 14 110.51 14Z" fill="#3F3D56"/>
<path d="M306.51 9H262.51V13H306.51V9Z" fill="#3F3D56"/>
<path d="M104.51 30H73.5095V34H104.51V30Z" fill="#3F3D56"/>
<path d="M104.51 36H73.5095V40H104.51V36Z" fill="#3F3D56"/>
<path d="M104.51 42H73.5095V46H104.51V42Z" fill="#3F3D56"/>
<path d="M474.51 214H118.51V464H474.51V214Z" fill="#3F3D56"/>
<path d="M276.51 254H142.51V283H276.51V254Z" fill="#F2F2F2"/>
<path d="M436.51 420H392.51V449H436.51V420Z" fill="#F2F2F2"/>
<path d="M276.51 308H142.51V337H276.51V308Z" fill="#F2F2F2"/>
<path d="M276.51 362H142.51V391H276.51V362Z" fill="#F2F2F2"/>
<path d="M396.08 282.86V279.465C394.261 279.459 392.48 278.947 390.936 277.985L391.743 275.733C393.185 276.669 394.865 277.171 396.584 277.178C398.971 277.178 400.585 275.8 400.585 273.884C400.585 272.035 399.273 270.892 396.786 269.883C393.357 268.539 391.239 266.992 391.239 264.068C391.239 261.277 393.222 259.159 396.315 258.655V255.26H398.399V258.521C399.933 258.533 401.438 258.938 402.77 259.697L401.929 261.916C400.649 261.154 399.184 260.758 397.693 260.773C395.105 260.773 394.13 262.319 394.13 263.664C394.13 265.412 395.374 266.286 398.299 267.497C401.761 268.909 403.509 270.657 403.509 273.649C403.509 276.304 401.66 278.792 398.198 279.364V282.86H396.08Z" fill="#E71C1D"/>
<path d="M413.08 282.86V279.465C411.261 279.459 409.48 278.947 407.936 277.985L408.743 275.733C410.185 276.669 411.865 277.171 413.584 277.178C415.971 277.178 417.585 275.8 417.585 273.884C417.585 272.035 416.273 270.892 413.786 269.883C410.357 268.539 408.239 266.992 408.239 264.068C408.239 261.277 410.222 259.159 413.315 258.655V255.26H415.399V258.521C416.933 258.533 418.438 258.938 419.77 259.697L418.929 261.916C417.649 261.154 416.184 260.758 414.693 260.773C412.105 260.773 411.13 262.319 411.13 263.664C411.13 265.412 412.374 266.286 415.299 267.497C418.761 268.909 420.51 270.657 420.51 273.649C420.51 276.304 418.66 278.792 415.198 279.364V282.86H413.08Z" fill="#E71C1D"/>
<path d="M430.08 282.86V279.465C428.261 279.459 426.48 278.947 424.936 277.985L425.743 275.733C427.185 276.669 428.865 277.171 430.584 277.178C432.971 277.178 434.585 275.8 434.585 273.884C434.585 272.035 433.273 270.892 430.786 269.883C427.357 268.539 425.239 266.992 425.239 264.068C425.239 261.277 427.222 259.159 430.315 258.655V255.26H432.399V258.521C433.933 258.533 435.438 258.938 436.77 259.697L435.929 261.916C434.649 261.154 433.184 260.758 431.693 260.773C429.105 260.773 428.13 262.319 428.13 263.664C428.13 265.412 429.374 266.286 432.299 267.497C435.761 268.909 437.51 270.657 437.51 273.649C437.51 276.304 435.66 278.792 432.198 279.364V282.86H430.08Z" fill="#E71C1D"/>
<path d="M396.08 335.86V332.465C394.261 332.459 392.48 331.947 390.936 330.985L391.743 328.733C393.185 329.669 394.865 330.171 396.584 330.178C398.971 330.178 400.585 328.8 400.585 326.884C400.585 325.035 399.273 323.892 396.786 322.883C393.357 321.539 391.239 319.992 391.239 317.068C391.239 314.277 393.222 312.159 396.315 311.655V308.26H398.399V311.521C399.933 311.533 401.438 311.938 402.77 312.697L401.929 314.916C400.649 314.154 399.184 313.758 397.693 313.773C395.105 313.773 394.13 315.319 394.13 316.664C394.13 318.412 395.374 319.286 398.299 320.497C401.761 321.909 403.509 323.657 403.509 326.649C403.509 329.304 401.66 331.792 398.198 332.364V335.86H396.08Z" fill="#E71C1D"/>
<path d="M413.08 335.86V332.465C411.261 332.459 409.48 331.947 407.936 330.985L408.743 328.733C410.185 329.669 411.865 330.171 413.584 330.178C415.971 330.178 417.585 328.8 417.585 326.884C417.585 325.035 416.273 323.892 413.786 322.883C410.357 321.539 408.239 319.992 408.239 317.068C408.239 314.277 410.222 312.159 413.315 311.655V308.26H415.399V311.521C416.933 311.533 418.438 311.938 419.77 312.697L418.929 314.916C417.649 314.154 416.184 313.758 414.693 313.773C412.105 313.773 411.13 315.319 411.13 316.664C411.13 318.412 412.374 319.286 415.299 320.497C418.761 321.909 420.51 323.657 420.51 326.649C420.51 329.304 418.66 331.792 415.198 332.364V335.86H413.08Z" fill="#E71C1D"/>
<path d="M430.08 335.86V332.465C428.261 332.459 426.48 331.947 424.936 330.985L425.743 328.733C427.185 329.669 428.865 330.171 430.584 330.178C432.971 330.178 434.585 328.8 434.585 326.884C434.585 325.035 433.273 323.892 430.786 322.883C427.357 321.539 425.239 319.992 425.239 317.068C425.239 314.277 427.222 312.159 430.315 311.655V308.26H432.399V311.521C433.933 311.533 435.438 311.938 436.77 312.697L435.929 314.916C434.649 314.154 433.184 313.758 431.693 313.773C429.105 313.773 428.13 315.319 428.13 316.664C428.13 318.412 429.374 319.286 432.299 320.497C435.761 321.909 437.51 323.657 437.51 326.649C437.51 329.304 435.66 331.792 432.198 332.364V335.86H430.08Z" fill="#E71C1D"/>
<path d="M396.08 388.86V385.465C394.261 385.459 392.48 384.947 390.936 383.985L391.743 381.733C393.185 382.669 394.865 383.171 396.584 383.178C398.971 383.178 400.585 381.8 400.585 379.884C400.585 378.035 399.273 376.892 396.786 375.883C393.357 374.539 391.239 372.992 391.239 370.068C391.239 367.277 393.222 365.159 396.315 364.655V361.26H398.399V364.521C399.933 364.533 401.438 364.938 402.77 365.697L401.929 367.916C400.649 367.154 399.184 366.758 397.693 366.773C395.105 366.773 394.13 368.319 394.13 369.664C394.13 371.412 395.374 372.286 398.299 373.497C401.761 374.909 403.509 376.657 403.509 379.649C403.509 382.304 401.66 384.792 398.198 385.364V388.86H396.08Z" fill="#E71C1D"/>
<path d="M413.08 388.86V385.465C411.261 385.459 409.48 384.947 407.936 383.985L408.743 381.733C410.185 382.669 411.865 383.171 413.584 383.178C415.971 383.178 417.585 381.8 417.585 379.884C417.585 378.035 416.273 376.892 413.786 375.883C410.357 374.539 408.239 372.992 408.239 370.068C408.239 367.277 410.222 365.159 413.315 364.655V361.26H415.399V364.521C416.933 364.533 418.438 364.938 419.77 365.697L418.929 367.916C417.649 367.154 416.184 366.758 414.693 366.773C412.105 366.773 411.13 368.319 411.13 369.664C411.13 371.412 412.374 372.286 415.299 373.497C418.761 374.909 420.51 376.657 420.51 379.649C420.51 382.304 418.66 384.792 415.198 385.364V388.86H413.08Z" fill="#E71C1D"/>
<path d="M430.08 388.86V385.465C428.261 385.459 426.48 384.947 424.936 383.985L425.743 381.733C427.185 382.669 428.865 383.171 430.584 383.178C432.971 383.178 434.585 381.8 434.585 379.884C434.585 378.035 433.273 376.892 430.786 375.883C427.357 374.539 425.239 372.992 425.239 370.068C425.239 367.277 427.222 365.159 430.315 364.655V361.26H432.399V364.521C433.933 364.533 435.438 364.938 436.77 365.697L435.929 367.916C434.649 367.154 433.184 366.758 431.693 366.773C429.105 366.773 428.13 368.319 428.13 369.664C428.13 371.412 429.374 372.286 432.299 373.497C435.761 374.909 437.51 376.657 437.51 379.649C437.51 382.304 435.66 384.792 432.198 385.364V388.86H430.08Z" fill="#E71C1D"/>
<path d="M408.6 444.409L401.953 435.546L403.527 434.365L408.942 441.586L430.263 424.142L431.51 425.665L408.6 444.409Z" fill="#3F3D56"/>
<path d="M935.51 609V647.624C927.55 636.594 911.673 625.237 881.922 616.018L935.51 689.625V690.184C935.51 690.184 935.611 690.13 935.799 690.023L935.891 690.148C935.891 690.148 935.967 690.046 936.104 689.849C942.347 686.232 994.71 653.624 935.51 609Z" fill="#3F3D56"/>
<path d="M481.755 9.18579H476.755V14.1858H481.755V9.18579Z" fill="#E71C1D"/>
<path d="M489.755 9.18579H484.755V14.1858H489.755V9.18579Z" fill="#E71C1D"/>
<path d="M497.755 9.18579H492.755V14.1858H497.755V9.18579Z" fill="#E71C1D"/>
<path d="M505.755 9.18579H500.755V14.1858H505.755V9.18579Z" fill="#F2F2F2"/>
</g>
<defs>
<clipPath id="clip0_131_160">
<rect width="963.51" height="690.372" fill="white"/>
</clipPath>
</defs>
</svg>
