<svg width="463" height="518" viewBox="0 0 463 518" fill="none" xmlns="http://www.w3.org/2000/svg">
<g id="undraw_confirmed_re_sef7 1" clip-path="url(#clip0_27_57)">
<path id="Vector" d="M329.266 434.696L333.846 518C333.846 518 140.12 343.326 115.986 292.219C91.8508 241.111 137.281 114.688 137.281 114.688L238.079 167.14L329.266 434.696Z" fill="#9F616A"/>
<path id="Vector_2" d="M32.2237 79.7195L2.41023 82.4093C2.41023 82.4093 -13.2064 114.688 35.0631 117.378L32.2237 79.7195Z" fill="#9F616A"/>
<path id="Vector_3" d="M32.2237 129.482L2.41023 132.172C2.41023 132.172 -13.2064 164.45 35.0631 167.14L32.2237 129.482Z" fill="#9F616A"/>
<path id="Vector_4" d="M32.2237 183.279L2.41023 185.969C2.41023 185.969 -13.2064 218.248 35.0631 220.937L32.2237 183.279Z" fill="#9F616A"/>
<path id="Vector_5" d="M40.7419 237.077L10.9284 239.767C10.9284 239.767 -4.68824 272.045 43.5813 274.735L40.7419 237.077Z" fill="#9F616A"/>
<path id="Vector_6" d="M17.7093 92.6869H19.9715V33.9787C19.9715 29.5166 20.8992 25.0981 22.7017 20.9756C24.5042 16.8532 27.1462 13.1074 30.4768 9.95215C33.8074 6.79694 37.7614 4.29408 42.113 2.58649C46.4646 0.878897 51.1287 3.41871e-06 55.8389 0H187.134C191.844 -9.11631e-06 196.508 0.87887 200.86 2.58645C205.212 4.29403 209.166 6.79688 212.496 9.95209C215.827 13.1073 218.469 16.8531 220.271 20.9755C222.074 25.098 223.002 29.5165 223.002 33.9786V356.056C223.002 360.518 222.074 364.937 220.271 369.059C218.469 373.182 215.827 376.928 212.496 380.083C209.166 383.238 205.212 385.741 200.86 387.449C196.508 389.156 191.844 390.035 187.134 390.035H55.8391C46.3264 390.035 37.2034 386.455 30.4769 380.083C23.7504 373.711 19.9715 365.068 19.9715 356.057V134.476H17.7093V92.6869Z" fill="#3F3D56"/>
<path id="Vector_7" d="M54.3917 8.84011H71.53C70.7419 10.6706 70.4411 12.6567 70.654 14.6233C70.8669 16.59 71.5872 18.4768 72.7512 20.1176C73.9152 21.7585 75.4873 23.1029 77.329 24.0326C79.1707 24.9623 81.2255 25.4486 83.3123 25.4487H158.53C160.616 25.4486 162.671 24.9623 164.513 24.0326C166.355 23.1029 167.927 21.7585 169.091 20.1176C170.255 18.4768 170.975 16.59 171.188 14.6233C171.401 12.6567 171.1 10.6706 170.312 8.84009H186.319C193.423 8.84008 200.236 11.5135 205.259 16.2722C210.282 21.0309 213.105 27.4851 213.105 34.215V355.82C213.105 359.152 212.412 362.452 211.066 365.531C209.72 368.609 207.747 371.407 205.259 373.763C202.772 376.119 199.819 377.988 196.569 379.264C193.32 380.539 189.837 381.195 186.319 381.195H54.3917C50.8742 381.195 47.3911 380.539 44.1414 379.264C40.8916 377.988 37.9388 376.119 35.4515 373.763C32.9643 371.407 30.9913 368.609 29.6452 365.531C28.2991 362.452 27.6063 359.152 27.6063 355.82V34.215C27.6063 30.8827 28.2991 27.5831 29.6452 24.5044C30.9913 21.4258 32.9643 18.6285 35.4515 16.2722C37.9388 13.916 40.8916 12.0469 44.1414 10.7716C47.3911 9.49644 50.8742 8.84011 54.3917 8.84011Z" fill="white"/>
<path id="Vector_8" d="M148.621 98.9379H92.0902V111.861H148.621V98.9379Z" fill="#2A4793"/>
<path id="Vector_9" d="M151.312 154.467H89.3989V167.39H151.312V154.467Z" fill="#E5E5E5"/>
<path id="Vector_10" d="M189.447 182.227H51.2635V195.15H189.447V182.227Z" fill="#E5E5E5"/>
<path id="Vector_11" d="M189.447 209.987H51.2635V222.91H189.447V209.987Z" fill="#E5E5E5"/>
<path id="Vector_12" d="M463 478.083L304.095 306.341L298.416 196.056L238.789 101.911L221.753 61.5629C221.753 61.5629 182.001 65.5977 214.654 142.259L228.141 183.279C215.984 208.086 209.685 235.106 209.685 262.456V356.454C209.685 378.588 321.023 499.15 333.983 517.566L463 478.083Z" fill="#9F616A"/>
<path id="Vector_13" opacity="0.2" d="M226.427 109.889L238.281 104.37L237.877 103.59L226.925 108.69L210.391 67.6256L209.535 67.9354L226.427 109.889Z" fill="black"/>
<path id="Vector_14" opacity="0.2" d="M2.56904 82.0009L2.25238 82.8152L19.8126 88.9432L20.1293 88.1288L2.56904 82.0009Z" fill="black"/>
<path id="Vector_15" opacity="0.2" d="M2.56904 132.33L2.25238 133.145L19.8126 139.273L20.1293 138.458L2.56904 132.33Z" fill="black"/>
<path id="Vector_16" opacity="0.2" d="M2.56904 186.131L2.25238 186.945L19.8126 193.073L20.1293 192.259L2.56904 186.131Z" fill="black"/>
<path id="Vector_17" opacity="0.2" d="M11.7689 239.948L11.3726 240.73L19.922 244.617L20.3182 243.835L11.7689 239.948Z" fill="black"/>
<path id="Vector_18" d="M120.425 334.436C142.295 334.436 160.023 317.641 160.023 296.923C160.023 276.205 142.295 259.41 120.425 259.41C98.556 259.41 80.8273 276.205 80.8273 296.923C80.8273 317.641 98.556 334.436 120.425 334.436Z" fill="#2A4793"/>
<path id="Vector_19" d="M116.652 312.758L104.801 298.322L111.693 293.243L117.304 300.079L136.262 281.12L142.602 286.81L116.652 312.758Z" fill="white"/>
</g>
<defs>
<clipPath id="clip0_27_57">
<rect width="463" height="518" fill="white"/>
</clipPath>
</defs>
</svg>
