<svg width="50" height="50" viewBox="0 0 50 50" fill="none" xmlns="http://www.w3.org/2000/svg">
<path d="M16.003 23.0455C14.7715 22.6909 13.54 22.511 12.3421 22.511C10.4923 22.511 8.94877 22.9337 7.75191 23.4514C8.90576 19.2272 11.6776 11.9385 17.1993 11.1177C17.7107 11.0416 18.1297 10.6718 18.2693 10.1741L19.4761 5.85762C19.5778 5.49258 19.5175 5.10184 19.3093 4.78505C19.1011 4.46827 18.7665 4.2569 18.3915 4.2055C17.9839 4.1499 17.5686 4.12158 17.1568 4.12158C10.529 4.12158 3.96518 11.0395 1.19542 20.9449C-0.430461 26.7562 -0.907211 35.493 3.0977 40.9922C5.33879 44.0693 8.60838 45.7126 12.8157 45.8767C12.833 45.8772 12.8498 45.8778 12.8671 45.8778C18.0584 45.8778 22.6618 42.3816 24.0621 37.3764C24.8986 34.3842 24.5205 31.2463 22.9964 28.5384C21.4885 25.8609 19.0051 23.9093 16.003 23.0455Z" fill="#2A4793"/>
<path d="M48.4989 28.5389C46.9911 25.8609 44.5077 23.9093 41.5056 23.0454C40.2741 22.6909 39.0426 22.511 37.8452 22.511C35.9954 22.511 34.4513 22.9337 33.2545 23.4514C34.4083 19.2272 37.1802 11.9385 42.7024 11.1177C43.2138 11.0416 43.6323 10.6718 43.7724 10.1741L44.9792 5.85762C45.0809 5.49258 45.0206 5.10184 44.8124 4.78505C44.6047 4.46827 44.2701 4.2569 43.8946 4.2055C43.4876 4.1499 43.0722 4.12158 42.6599 4.12158C36.0321 4.12158 29.4683 11.0395 26.698 20.9449C25.0726 26.7562 24.5959 35.493 28.6013 40.9932C30.8419 44.0699 34.112 45.7136 38.3188 45.8772C38.3362 45.8778 38.3529 45.8783 38.3708 45.8783C43.5615 45.8783 48.1654 42.3821 49.5657 37.3769C50.4012 34.3848 50.0226 31.2463 48.4989 28.5389Z" fill="#2A4793"/>
</svg>
