<svg width="500" height="424" viewBox="0 0 500 424" fill="none" xmlns="http://www.w3.org/2000/svg">
<g id="undraw_monitor_iqpq 1">
<g id="Group" opacity="0.5">
<path id="Vector" opacity="0.5" d="M493.551 197.67H445.246C441.685 197.67 438.797 201.069 438.797 205.261V262.118C438.797 266.31 441.685 269.709 445.246 269.709H493.551C497.113 269.709 500 266.31 500 262.118V205.261C500 201.069 497.113 197.67 493.551 197.67Z" fill="#D0D2D5"/>
<path id="Vector_2" opacity="0.1" d="M460.721 218.373H478.077C478.077 218.373 492.692 233.426 478.077 249.016H460.721C460.721 249.016 446.105 235.039 460.721 218.373Z" fill="black"/>
<path id="Vector_3" opacity="0.5" d="M464.831 226.969H462.547V235.033H464.831V226.969Z" fill="#3F3D56"/>
<path id="Vector_4" opacity="0.5" d="M476.25 225.894H473.966V235.571H476.25V225.894Z" fill="#3F3D56"/>
<path id="Vector_5" opacity="0.5" d="M469.399 239.872C470.125 239.872 470.822 240.212 471.336 240.817C471.85 241.421 472.139 242.242 472.139 243.097V245.785H466.658V243.097C466.658 242.242 466.947 241.421 467.461 240.817C467.975 240.212 468.672 239.872 469.399 239.872Z" fill="#3F3D56"/>
</g>
<path id="Vector_6" d="M283.986 128.196C285.434 128.158 286.877 128.287 288.32 128.196C289.64 128.121 290.951 127.868 292.271 127.712C294.527 127.449 296.802 127.47 299.067 127.357C300.556 127.282 302.127 127.11 303.333 126.078C304.466 125.116 305.096 123.546 306.106 122.406C310.216 117.756 313.034 111.536 316.688 106.375C317.602 105.063 318.556 103.757 319.383 102.354C320.968 99.6656 322.087 96.6174 323.201 93.6068C323.641 92.4908 324.007 91.337 324.298 90.1554C324.503 89.2093 324.608 88.2308 324.882 87.3062C325.449 85.4138 326.81 83.758 326.974 81.7635L326.782 81.7958C328.445 79.3067 328.189 74.9682 329.011 71.7803C329.537 69.8868 330.173 68.0384 330.916 66.2484L333.971 58.4155C334.496 57.0715 335.045 55.6845 335.953 54.6523C337.054 53.3997 338.589 52.7761 339.694 51.5289C340.352 50.7609 340.843 49.819 341.128 48.7817L341.224 48.8892C341.809 49.5612 342.266 50.3838 342.837 51.0773C344.065 52.5718 345.769 53.4266 347.02 54.8942C347.66 55.6415 348.185 56.5501 348.957 57.093C349.351 57.3465 349.803 57.448 350.248 57.3834C350.694 57.3188 351.111 57.0912 351.441 56.7328C353.684 54.4104 357.027 54.1954 359.453 52.1471C360.124 51.5772 360.709 50.8837 361.339 50.2601C362.844 48.8487 364.479 47.6405 366.212 46.6582C367.23 46.6777 368.241 46.8475 369.222 47.1636C370.629 47.6205 372.004 48.3785 373.465 48.3463C374.77 48.2706 376.02 47.7054 377.033 46.7335C377.777 46.0561 378.458 45.1207 378.567 44.0455C378.595 43.4936 378.51 42.9419 378.32 42.4367C378.129 41.9315 377.838 41.4876 377.471 41.1424C377.37 41.0403 377.265 40.9489 377.16 40.8575C377.129 40.375 377.016 39.9049 376.827 39.4753C376.638 39.0457 376.377 38.6656 376.06 38.3577C375.319 37.6757 374.474 37.1682 373.57 36.8631C373.068 36.6306 372.538 36.4892 371.999 36.4438C371.159 36.4976 370.333 36.7251 369.56 37.1158C368.006 37.705 366.403 38.1014 364.778 38.2985C364.49 38.3308 363.906 38.2609 363.408 38.2555L363.239 37.6857C361.339 38.7178 359.128 37.8684 357.046 37.8738C356.032 37.8738 355.022 38.0835 354.013 38.1587C352.895 38.2108 351.775 38.182 350.66 38.0727L347.285 37.8201C345.844 37.7328 344.408 37.5534 342.983 37.2825C342.604 36.3739 342.224 35.4654 341.8 34.5945C341.084 33.1305 340.244 31.7561 339.292 30.4926C339.675 30.1049 340.077 29.7458 340.498 29.4174L340.58 29.3582C340.685 29.2883 340.813 29.2131 340.955 29.1378C342.272 29.8752 343.727 30.2083 345.183 30.1061C346.639 30.0039 348.049 29.4697 349.283 28.5533C350.517 27.6368 351.533 26.3679 352.238 24.8646C352.943 23.3613 353.313 21.6726 353.314 19.9556C353.564 19.8423 353.808 19.7113 354.045 19.5632C354.182 19.4771 354.319 19.3857 354.451 19.2836L354.648 19.1277C354.773 19.0164 354.892 18.8961 355.004 18.7675C355.059 18.703 355.114 18.6385 355.164 18.5686C355.264 18.4294 355.351 18.278 355.424 18.117C355.452 18.0525 355.479 17.9934 355.502 17.9288C355.525 17.8643 355.502 17.8805 355.525 17.8536C355.548 17.8267 355.557 17.7568 355.57 17.7138C355.584 17.6708 355.57 17.6493 355.593 17.617L355.621 17.488C355.623 17.454 355.623 17.4199 355.621 17.3859C355.621 17.3429 355.621 17.2999 355.621 17.2622V17.1493C355.618 17.1099 355.618 17.0704 355.621 17.0311C355.623 16.9917 355.623 16.9522 355.621 16.9128C355.621 16.8752 355.621 16.8321 355.621 16.7945C355.623 16.7551 355.623 16.7156 355.621 16.6762V16.5311C355.623 16.4899 355.623 16.4486 355.621 16.4074C355.621 16.3698 355.621 16.3322 355.621 16.2945V16.1655V16.058C355.621 16.0096 355.621 15.9612 355.621 15.9182C355.623 15.886 355.623 15.8537 355.621 15.8215C355.623 15.7713 355.623 15.7211 355.621 15.6709C355.621 15.6387 355.621 15.6118 355.621 15.5849C355.621 15.558 355.621 15.4774 355.589 15.4236V15.3484L355.548 15.1763V15.1118C355.548 15.0527 355.516 14.9935 355.502 14.9344V14.8807L355.447 14.6871V14.6549C355.447 14.5635 355.397 14.4667 355.369 14.3753C355.027 13.2141 354.657 12.0583 354.264 10.9185C353.978 9.96482 353.548 9.07973 352.994 8.3058C352.186 7.29511 351.026 6.78977 350.058 5.98337C348.916 5.03719 348.062 3.69857 347.093 2.5051C346.125 1.31162 344.951 0.231045 343.558 0.0321331C342.452 -0.0438149 341.346 0.194018 340.334 0.725638C331.943 4.37057 325.074 11.5529 317.552 17.2515C314.624 19.4718 311.344 21.5523 307.878 21.2673L310.938 26.9874C311.084 27.267 311.235 27.525 311.395 27.8153C311.555 28.1056 311.714 28.3529 311.883 28.6217C312.315 29.3184 312.86 29.9068 313.487 30.3528C313.645 30.4609 313.809 30.5544 313.98 30.6323C314.129 30.6984 314.282 30.7541 314.437 30.799C315.528 31.1054 316.72 30.8474 317.826 30.5893C318.205 30.5033 318.584 30.4119 318.958 30.3098L319.415 30.1593H319.488C319.488 30.1915 319.488 30.2184 319.488 30.2453C319.232 30.7829 318.99 31.2721 318.776 31.8043C318.07 33.7308 317.524 35.7328 317.145 37.7824C316.282 41.8144 315.414 45.9324 315.642 50.072C315.72 51.4697 315.921 52.8997 315.578 54.2437C315.414 54.905 315.122 55.5824 315.277 56.2382C315.44 56.617 315.58 57.0086 315.697 57.4102C315.77 58.0338 315.35 58.5714 315.049 59.0875C314.747 59.6036 314.592 60.4261 315.021 60.7863C314.586 60.9656 314.203 61.2849 313.915 61.7078C313.627 62.1307 313.445 62.6403 313.391 63.1787C313.4 63.4951 313.347 63.8099 313.235 64.098C313.107 64.2926 312.953 64.4615 312.779 64.5979C312.315 65.056 312.011 65.699 311.925 66.4043C311.043 66.4043 310.299 67.4149 309.495 68.0171C308.791 68.4362 308.048 68.7539 307.279 68.9632C305.073 69.7911 303.169 71.4953 301.447 73.2909C300.488 74.2747 299.52 75.3607 299.099 76.7692C298.962 77.2315 298.889 77.7154 298.77 78.1831C298.525 79.0888 298.168 79.9473 297.711 80.7313C296.835 82.3178 295.757 83.7358 294.514 84.9353C293.885 85.5315 293.331 86.2302 292.869 87.0105C292.171 88.1986 290.75 88.5534 290.001 89.6985C289.732 90.2626 289.426 90.8017 289.088 91.3113C288.508 91.9564 287.631 92.0102 286.891 92.3865C285.16 93.2305 284.36 95.6121 282.817 96.8701C282.731 96.9548 282.622 96.9972 282.511 96.9883C282.378 96.9883 282.3 96.8002 282.186 96.7088C281.962 96.5314 281.666 96.6658 281.401 96.7464C281.136 96.8271 280.78 96.7948 280.711 96.483C276.989 93.8273 273.33 90.9457 269.603 88.29L267.904 87.0804L258.815 80.5969C258.708 80.5178 258.583 80.4758 258.456 80.4758C258.33 80.4758 258.205 80.5178 258.098 80.5969L257.815 80.8281C257.358 80.2582 256.851 79.7529 256.55 79.3336C256.426 79.1669 256.303 79.0002 256.175 78.839C256.258 78.8425 256.341 78.8242 256.417 78.7852C256.519 78.72 256.596 78.6114 256.633 78.4815C256.669 78.3517 256.662 78.2104 256.614 78.0863C256.517 77.8413 256.373 77.626 256.193 77.4573C255.796 77.0041 255.431 76.5132 255.102 75.9897C254.747 75.3339 254.345 74.7151 253.901 74.1403C253.676 73.8527 253.399 73.6284 253.091 73.4841C252.782 73.3398 252.45 73.2793 252.119 73.3071C251.751 73.3899 251.401 73.5561 251.087 73.7963C249.838 74.6505 248.687 75.6894 247.661 76.8875C247.616 76.9256 247.579 76.9755 247.553 77.0333C247.527 77.0912 247.512 77.1553 247.511 77.2208C247.511 77.3283 247.602 77.4089 247.611 77.5111C247.614 77.6107 247.582 77.7073 247.524 77.7799C246.909 78.678 246.181 79.4595 245.364 80.0969C244.204 81.1184 243.07 82.1793 241.961 83.2795C241.267 83.8601 240.719 84.6491 240.372 85.5643C240.13 86.626 240.229 87.7552 240.651 88.7362C241.409 90.8382 242.738 92.58 244.053 94.2627C244.269 94.609 244.576 94.8621 244.926 94.9831C245.204 95.0282 245.486 94.9475 245.716 94.7573C246.524 94.1337 246.657 92.8435 246.716 91.7145C246.739 91.1769 246.766 90.6823 246.794 90.1662C246.792 90.0628 246.809 89.96 246.844 89.8651C246.914 89.748 247.01 89.6566 247.123 89.6017L248.379 88.8222C248.342 88.7523 248.301 88.6824 248.26 88.6125C249.207 88.1941 250.239 88.1156 251.224 88.3867C251.891 88.6179 252.503 89.0856 253.142 89.3759C253.041 90.3792 253.2 91.3952 253.599 92.2897C255.942 92.5747 258.052 93.8004 260.149 95.0369C261.839 96.0227 263.483 97.1156 265.072 98.3108C266.363 99.3 267.627 100.334 268.863 101.413C270.617 102.94 272.312 104.558 273.988 106.192C275.077 107.324 276.25 108.34 277.491 109.229C280.789 111.407 285.21 111.482 288.238 108.767C292.056 105.343 296.916 103.563 301.027 100.601C302.248 99.7971 303.363 98.7884 304.338 97.6066C304.329 97.7461 304.311 97.8845 304.283 98.0205C304.037 99.3592 303.055 100.327 302.685 101.682C302.397 102.757 302.502 103.999 301.945 104.907C301.52 105.601 300.725 106.095 300.702 106.95C300.702 107.187 300.762 107.423 300.762 107.66C300.739 107.959 300.664 108.25 300.543 108.514C300.086 109.724 299.574 110.993 298.638 111.74C298.273 112.036 297.807 112.305 297.725 112.815C297.719 112.963 297.687 113.108 297.629 113.24C297.473 113.493 297.131 113.358 296.884 113.466C296.542 113.616 296.487 114.138 296.35 114.541C296.224 114.876 296.013 115.156 295.745 115.341C295.477 115.526 295.166 115.608 294.856 115.573C291.737 115.127 288.672 116.788 285.53 116.691C284.447 116.654 283.369 116.525 282.282 116.514C278.948 116.482 275.682 117.589 272.471 118.664C272.114 119.408 271.893 120.233 271.823 121.084C270.726 121.415 269.581 121.467 268.466 121.234C268.188 121.17 267.908 121.125 267.626 121.1C267.706 120.857 267.731 120.594 267.699 120.336C266.387 120.826 265.126 121.488 263.94 122.309C263.159 122.847 262.332 123.6 262.259 124.659C262.248 125.067 262.297 125.474 262.405 125.863L262.83 127.761C262.882 128.112 263.013 128.44 263.209 128.712C263.35 128.873 263.538 128.97 263.666 129.142C263.79 129.345 263.874 129.579 263.912 129.825L264.268 131.47C264.401 132.017 264.496 132.577 264.552 133.142C264.593 133.68 264.552 134.174 264.584 134.69C264.632 135.541 264.737 136.386 264.899 137.217L265.406 140.195C265.519 141.028 265.72 141.84 266.004 142.614C266.219 143.152 266.506 143.614 266.68 144.152C266.817 144.566 266.881 145.007 267.045 145.399C267.341 146.037 267.807 146.543 268.37 146.84C268.566 146.976 268.787 147.057 269.014 147.077C269.663 147.077 270.128 146.367 270.43 145.69C271.031 144.458 271.356 143.067 271.375 141.647C271.375 141.077 271.279 140.512 271.238 139.943C271.129 138.33 271.521 136.76 271.521 135.153C271.536 134.937 271.488 134.722 271.384 134.544C271.28 134.366 271.127 134.235 270.951 134.174C270.992 132.809 270.987 131.363 271.599 130.196C271.903 129.653 272.279 129.172 272.714 128.771C272.883 129.406 273.07 130.035 273.28 130.648C276.756 129.454 280.346 128.304 283.986 128.196ZM358.247 45.6368C358 45.7443 357.749 45.8518 357.493 45.9486C355.365 46.7819 352.926 47.5936 350.724 47.0238C350.057 46.7971 349.429 46.4331 348.87 45.9486L348.71 45.8303C351.811 45.1906 355.05 45.3465 358.247 45.6368Z" fill="url(#paint0_linear_31_131)"/>
<path id="Vector_7" d="M370.606 40.1051C371.375 39.7172 372.196 39.4933 373.031 39.4438C373.567 39.4917 374.094 39.6349 374.593 39.8685C375.496 40.1785 376.339 40.6895 377.078 41.3738C377.443 41.7211 377.733 42.1652 377.925 42.6698C378.116 43.1743 378.203 43.7251 378.179 44.2769C378.074 45.3521 377.398 46.2821 376.658 46.9649C375.654 47.9358 374.411 48.5012 373.114 48.5777C371.661 48.6046 370.291 47.8358 368.889 47.3788C367.869 47.0393 366.815 46.8585 365.756 46.8412C365.222 46.8751 364.687 46.8354 364.162 46.723C363.898 46.6644 363.65 46.5337 363.437 46.3413C363.225 46.1489 363.053 45.9002 362.937 45.6155C362.805 45.0892 362.805 44.529 362.937 44.0027C363.043 43.3361 363.024 41.7555 363.527 41.3577C363.929 41.0351 365.354 41.2932 365.847 41.2448C367.463 41.0645 369.059 40.6825 370.606 40.1051Z" fill="#FBBEBE"/>
<path id="Vector_8" d="M338 29.2832C339.383 30.8759 340.574 32.6848 341.539 34.6592C343.147 37.9601 344.17 41.7985 346.591 44.336C347.234 44.9733 347.917 45.5537 348.633 46.0725C349.192 46.5567 349.82 46.9207 350.487 47.1477C352.661 47.7229 355.1 46.9219 357.219 46.0725C359.317 45.1862 361.353 44.1077 363.308 42.8469C363.321 43.8855 363.567 44.9016 364.02 45.7929C364.527 46.6369 365.564 47.1315 366.304 46.5993C364.43 47.6359 362.663 48.922 361.038 50.4324C360.412 51.056 359.832 51.7441 359.165 52.3086C356.758 54.3461 353.428 54.5504 351.204 56.8621C350.874 57.216 350.459 57.4399 350.016 57.5025C349.573 57.5652 349.125 57.4634 348.733 57.2115C347.961 56.6739 347.436 55.7493 346.801 55.002C345.55 53.529 343.85 52.6688 342.622 51.1689C342.051 50.4754 341.594 49.6529 341.01 48.9755C340.174 48.0078 339.087 47.3627 338.319 46.2875C337.748 45.4972 337.406 44.5349 336.872 43.6909C336.415 42.9598 335.876 42.32 335.469 41.5405C334.474 39.675 334.483 37.2397 335.054 35.1484C335.625 33.0572 336.935 31.1057 338 29.2832Z" fill="#F86D70"/>
<path id="Vector_9" opacity="0.1" d="M338 29.2832C339.383 30.8759 340.574 32.6848 341.539 34.6592C343.147 37.9601 344.17 41.7985 346.591 44.336C347.234 44.9733 347.917 45.5537 348.633 46.0725C349.192 46.5567 349.82 46.9207 350.487 47.1477C352.661 47.7229 355.1 46.9219 357.219 46.0725C359.317 45.1862 361.353 44.1077 363.308 42.8469C363.321 43.8855 363.567 44.9016 364.02 45.7929C364.527 46.6369 365.564 47.1315 366.304 46.5993C364.43 47.6359 362.663 48.922 361.038 50.4324C360.412 51.056 359.832 51.7441 359.165 52.3086C356.758 54.3461 353.428 54.5504 351.204 56.8621C350.874 57.216 350.459 57.4399 350.016 57.5025C349.573 57.5652 349.125 57.4634 348.733 57.2115C347.961 56.6739 347.436 55.7493 346.801 55.002C345.55 53.529 343.85 52.6688 342.622 51.1689C342.051 50.4754 341.594 49.6529 341.01 48.9755C340.174 48.0078 339.087 47.3627 338.319 46.2875C337.748 45.4972 337.406 44.5349 336.872 43.6909C336.415 42.9598 335.876 42.32 335.469 41.5405C334.474 39.675 334.483 37.2397 335.054 35.1484C335.625 33.0572 336.935 31.1057 338 29.2832Z" fill="#E71C1D"/>
<path id="Vector_10" d="M256.824 78.9305C256.47 78.3839 256.033 77.9191 255.536 77.5596C254.78 77.1649 253.937 77.0633 253.129 77.2693C251.092 77.6349 249.201 78.7316 247.41 79.9573C245.967 80.9303 244.533 82.0109 243.501 83.5431C243.161 84.005 242.924 84.5592 242.811 85.1559C242.752 85.6482 242.788 86.1497 242.916 86.6235C243.008 87.157 243.203 87.6585 243.485 88.0892C243.768 88.5198 244.131 88.8682 244.547 89.1072C245.501 89.5481 246.565 89.0804 247.524 88.6503C248.812 88.0643 250.228 87.5213 251.553 87.9837C252.535 88.3277 253.38 89.204 254.417 89.2363C255.636 89.2793 256.623 88.1181 257.399 87.0106C258.071 86.0429 259.541 84.2957 259.445 82.9356C259.349 81.5755 257.545 79.9035 256.824 78.9305Z" fill="#FBBEBE"/>
<path id="Vector_11" d="M272.216 120.772C271.098 121.122 269.929 121.179 268.79 120.938C268.096 120.788 267.246 120.594 266.803 121.234C266.661 121.471 266.565 121.743 266.525 122.03C265.387 127.508 266.429 133.319 268.352 138.507C268.376 138.595 268.42 138.673 268.48 138.733C268.603 138.841 268.772 138.765 268.913 138.695C269.379 138.475 269.814 138.177 270.206 137.808C271.083 136.873 271.27 135.352 271.311 133.959C271.352 132.567 271.334 131.094 271.946 129.9C272.714 128.422 274.317 127.702 274.947 126.137C275.454 124.863 275.189 123.352 274.742 122.051C274.591 121.6 274.531 120.439 274.175 120.218C273.819 119.998 272.622 120.643 272.216 120.772Z" fill="#FBBEBE"/>
<path id="Vector_12" d="M256.691 78.3822C256.793 78.316 256.869 78.2071 256.904 78.0773C256.94 77.9475 256.932 77.8067 256.883 77.6833C256.785 77.4375 256.641 77.2208 256.463 77.0489C256.065 76.5963 255.701 76.1034 255.376 75.5759C255.017 74.9235 254.615 74.3051 254.175 73.7266C253.951 73.4393 253.675 73.2148 253.367 73.0697C253.06 72.9245 252.728 72.8624 252.398 72.8879C252.031 72.9652 251.681 73.1299 251.37 73.3717C250.128 74.2193 248.984 75.2529 247.968 76.4468C247.89 76.5382 247.803 76.6511 247.821 76.7801C247.84 76.9092 247.913 76.9629 247.922 77.0704C247.925 77.1675 247.895 77.2621 247.84 77.3339C247.229 78.2284 246.505 79.0064 245.693 79.6402C244.542 80.658 243.415 81.7153 242.313 82.812C241.624 83.3894 241.079 84.175 240.737 85.0861C240.504 86.1477 240.606 87.273 241.025 88.2525C241.788 90.3599 243.117 92.1017 244.428 93.7952C244.647 94.1405 244.954 94.3947 245.305 94.5209C245.581 94.5652 245.862 94.4845 246.09 94.2952C246.89 93.6769 247.004 92.3867 247.072 91.2631L247.145 89.7094C247.144 89.6077 247.161 89.5068 247.196 89.4137C247.264 89.2955 247.361 89.2038 247.474 89.1503L248.717 88.3762C248.337 87.6489 247.796 87.0568 247.153 86.6629C246.509 86.269 245.787 86.0882 245.063 86.1398C244.732 86.2324 244.383 86.1768 244.085 85.9838C243.941 85.8076 243.861 85.5725 243.861 85.328C243.861 85.0834 243.941 84.8484 244.085 84.6721C244.388 84.3333 244.759 84.091 245.163 83.9678C248.438 82.554 251.398 80.2853 254.577 78.5918C254.925 78.3844 255.31 78.2793 255.7 78.2854C256.02 78.3123 256.394 78.5327 256.691 78.3822Z" fill="#F86D70"/>
<path id="Vector_13" d="M269.594 134.68C269.448 135.002 269.398 135.379 269.238 135.696C269.078 136.013 268.731 136.233 268.461 136.072C268.319 135.955 268.214 135.787 268.16 135.594C266.775 131.865 266.385 127.729 267.041 123.734C267.132 123.081 267.296 122.444 267.53 121.842C267.772 121.261 268.123 120.67 268.023 120.035C266.719 120.52 265.465 121.176 264.287 121.992C263.51 122.53 262.693 123.277 262.62 124.331C262.613 124.739 262.664 125.146 262.77 125.535L263.2 127.433C263.252 127.785 263.384 128.114 263.583 128.384C263.72 128.546 263.908 128.648 264.04 128.82C264.166 129.02 264.25 129.252 264.287 129.497L264.648 131.142C264.782 131.691 264.878 132.252 264.935 132.82C264.976 133.357 264.935 133.852 264.972 134.368C265.024 135.217 265.13 136.06 265.292 136.889L265.808 139.867C265.924 140.7 266.127 141.512 266.411 142.287C266.625 142.824 266.913 143.287 267.091 143.83C267.224 144.244 267.292 144.684 267.456 145.077C267.753 145.713 268.216 146.22 268.776 146.523C268.973 146.658 269.193 146.741 269.42 146.765C270.064 146.792 270.526 146.055 270.827 145.378C271.416 144.146 271.73 142.759 271.741 141.346C271.741 140.776 271.64 140.212 271.599 139.642C271.485 138.029 271.869 136.464 271.864 134.857C271.873 133.352 270.064 133.637 269.594 134.68Z" fill="#F86D70"/>
<path id="Vector_14" d="M336.607 41.0136C335.183 40.2429 333.932 39.0925 332.953 37.6536C332.449 36.895 331.991 36.0956 331.582 35.2613C329.848 31.8154 328.358 28.2065 327.129 24.4716C329.075 24.9394 331.117 25.3641 333.03 24.7189C334.028 24.3609 334.959 23.7805 335.771 23.0094C336.811 22.0023 337.777 20.8926 338.657 19.6924C339.323 21.1935 340.086 22.6314 340.941 23.9932C341.43 24.7673 343.083 26.3425 342.96 27.3962C342.837 28.4499 341.01 28.9767 340.27 29.4767L340.192 29.5358C339.101 30.3477 338.148 31.3924 337.383 32.6163C335.949 35.014 335.451 38.3579 336.607 41.0136Z" fill="#A0616A"/>
<path id="Vector_15" opacity="0.1" d="M340.306 29.4552C339.208 28.8207 338.239 27.9166 337.463 26.8037C336.686 25.6909 336.122 24.3952 335.807 23.004C336.848 21.997 337.814 20.8873 338.694 19.687C339.359 21.1881 340.123 22.626 340.978 23.9878C341.466 24.762 343.12 26.3371 342.996 27.3908C342.873 28.4445 341.046 28.9552 340.306 29.4552Z" fill="black"/>
<path id="Vector_16" d="M344.417 30.2454C349.141 30.2454 352.972 25.7373 352.972 20.1762C352.972 14.6151 349.141 10.1069 344.417 10.1069C339.692 10.1069 335.862 14.6151 335.862 20.1762C335.862 25.7373 339.692 30.2454 344.417 30.2454Z" fill="#A0616A"/>
<path id="Vector_17" d="M325.704 82.8979C325.112 83.3158 324.438 83.5458 323.748 83.5656C323.058 83.5854 322.376 83.3943 321.767 83.0108C321.134 82.5512 320.561 81.9842 320.068 81.3281C317.259 77.9359 314.587 74.3393 312.71 70.1299C312.274 69.2417 311.991 68.2605 311.879 67.243C311.826 66.7345 311.879 66.2186 312.032 65.7392C312.186 65.2599 312.435 64.8314 312.76 64.4905C312.935 64.3546 313.089 64.1857 313.217 63.9905C313.327 63.7039 313.379 63.3909 313.368 63.0766C313.419 62.5404 313.597 62.032 313.884 61.6105C314.17 61.189 314.551 60.8716 314.985 60.695C314.528 60.3295 314.711 59.5177 315.007 58.9962C315.304 58.4748 315.72 57.921 315.647 57.3189C315.53 56.9173 315.39 56.5257 315.227 56.1469C315.062 55.4911 315.359 54.8137 315.519 54.1578C315.852 52.8138 315.651 51.3838 315.569 49.9861C315.327 45.8465 316.181 41.7393 317.026 37.7126C317.4 35.6679 317.938 33.6698 318.634 31.7453C318.849 31.2077 319.091 30.6701 319.337 30.1916C320.2 28.5464 321.16 26.9745 322.21 25.4876C322.702 24.6129 323.377 23.9019 324.17 23.4232C324.244 23.3854 324.32 23.3531 324.398 23.3265C324.967 23.1534 325.558 23.1006 326.143 23.1706C327.687 23.2835 329.308 23.7082 330.409 24.9876C331.509 26.2671 331.866 28.0627 332.364 29.7938C332.522 30.3732 332.714 30.939 332.939 31.4872C333.665 33.186 334.848 34.5408 336.013 35.8579L337.278 37.2933C337.913 38.0137 339.014 37.8309 339.612 38.5889C339.856 38.9452 340.037 39.3544 340.146 39.7932C340.822 41.7322 341.216 43.7913 341.311 45.8842C341.316 46.3496 341.293 46.8148 341.243 47.2765C341.088 48.8968 340.479 50.4101 339.512 51.5774C338.415 52.8192 336.89 53.4321 335.798 54.6793C334.885 55.7115 334.355 57.0931 333.834 58.4425C332.829 61.0445 331.823 63.6501 330.815 66.2592C330.085 68.0445 329.458 69.8855 328.938 71.7696C327.988 75.5274 328.527 80.8282 325.704 82.8979Z" fill="#E71C1D"/>
<path id="Vector_18" d="M299.328 127.196C297.071 127.304 294.811 127.271 292.563 127.524C291.253 127.675 289.946 127.927 288.631 127.992C287.197 128.067 285.758 127.933 284.319 127.965C280.697 128.056 277.126 129.191 273.641 130.363C272.657 127.535 272.144 124.51 272.129 121.455C272.12 121.252 272.12 121.049 272.129 120.847C272.193 119.982 272.412 119.142 272.773 118.385C275.97 117.31 279.213 116.235 282.533 116.288C283.616 116.288 284.689 116.439 285.767 116.476C288.896 116.589 291.938 114.939 295.043 115.401C295.351 115.437 295.661 115.357 295.928 115.172C296.195 114.988 296.405 114.708 296.528 114.374C296.66 113.977 296.715 113.455 297.058 113.299C297.304 113.192 297.642 113.326 297.798 113.079C297.853 112.946 297.885 112.802 297.893 112.654C297.985 112.116 298.446 111.875 298.807 111.579C299.72 110.837 300.237 109.568 300.693 108.353C300.813 108.09 300.886 107.801 300.908 107.504C300.908 107.267 300.844 107.031 300.849 106.789C300.849 105.939 301.657 105.45 302.077 104.757C302.63 103.843 302.534 102.606 302.803 101.531C303.169 100.176 304.142 99.2141 304.384 97.8808C304.411 97.7448 304.43 97.6063 304.439 97.4669C303.47 98.6429 302.36 99.6463 301.145 100.445C297.09 103.386 292.239 105.144 288.453 108.547C285.447 111.235 281.044 111.154 277.756 108.966C276.516 108.073 275.345 107.053 274.257 105.918C272.586 104.305 270.896 102.655 269.146 101.117C267.928 100.042 266.666 99.0044 265.36 98.0045C263.778 96.7731 262.141 95.6443 260.455 94.623C258.363 93.3757 256.257 92.1393 253.928 91.8436C253.629 91.1241 253.462 90.338 253.44 89.5373C253.418 88.7366 253.541 87.9395 253.8 87.1987C254.332 85.7251 255.053 84.3563 255.938 83.1398C256.6 81.9971 257.428 81.0015 258.386 80.1992C258.492 80.1199 258.616 80.0778 258.742 80.0778C258.868 80.0778 258.992 80.1199 259.098 80.1992L268.151 86.7418L269.845 87.9621C273.559 90.6501 277.212 93.5263 280.926 96.1981C280.994 96.5046 281.355 96.5422 281.615 96.4616C281.876 96.3809 282.173 96.2519 282.396 96.4293C282.506 96.5153 282.584 96.6766 282.721 96.7089C282.83 96.7132 282.937 96.6712 283.022 96.5906C284.557 95.3487 285.342 92.9618 287.064 92.1285C287.8 91.7737 288.672 91.7199 289.247 91.0533C289.588 90.5451 289.893 90.0058 290.161 89.4405C290.905 88.2954 292.317 87.9514 293.006 86.7525C293.463 85.9761 294.012 85.2808 294.637 84.6881C295.881 83.496 296.96 82.0831 297.834 80.5002C298.286 79.7187 298.638 78.8639 298.88 77.9627C298.999 77.495 299.072 77.0112 299.204 76.5488C299.62 75.1403 300.575 74.0598 301.529 73.0813C303.26 71.2965 305.128 69.6031 307.321 68.7805C308.085 68.5721 308.826 68.2563 309.527 67.8397C310.408 67.2054 311.217 66.028 312.226 66.3022C312.609 66.4418 312.954 66.6977 313.226 67.0441C314.464 68.4613 315.602 69.995 316.629 71.6298C318.258 74.0705 319.885 76.513 321.511 78.9573C322.024 79.8362 322.674 80.5931 323.425 81.1883C324.515 81.8488 325.768 82.039 326.965 81.7259C326.805 83.7204 325.458 85.3655 324.9 87.2579C324.631 88.1771 324.526 89.1556 324.325 90.0964C324.042 91.2769 323.68 92.4291 323.242 93.5424C322.146 96.5476 321.041 99.5689 319.47 102.268C318.657 103.671 317.72 104.956 316.802 106.273C313.181 111.418 310.408 117.622 306.297 122.25C305.302 123.385 304.671 124.938 303.557 125.911C302.347 126.965 300.785 127.126 299.328 127.196Z" fill="#434175"/>
<path id="Vector_19" opacity="0.1" d="M316.537 58.9856C316.135 59.0087 315.743 59.1471 315.396 59.3888C316.231 59.0447 317.25 59.964 318.022 59.5286C318.383 59.3243 318.328 59.2652 318.022 59.1415C317.561 58.9587 317.003 59.1254 316.537 58.9856Z" fill="black"/>
<path id="Vector_20" d="M460.732 236.64L427.16 250.672L429.3 257.765L462.871 243.733L460.732 236.64Z" fill="#D0D2D5"/>
<path id="Vector_21" d="M438.39 265.379L468.949 252.607C469.748 252.273 470.627 252.326 471.393 252.755C472.159 253.184 472.748 253.953 473.032 254.894C473.316 255.834 473.27 256.869 472.906 257.77C472.542 258.671 471.888 259.365 471.089 259.699L440.53 272.472L438.39 265.379Z" fill="#D0D2D5"/>
<path id="Vector_22" d="M409.277 243.317L416.723 240.205C423.344 237.437 430.627 237.879 436.971 241.433C443.315 244.987 448.2 251.361 450.551 259.154L453.195 267.918C454.115 270.966 453.968 274.318 452.787 277.238C451.607 280.158 449.489 282.406 446.9 283.488L424.252 292.954C421.663 294.036 418.815 293.864 416.334 292.474C413.854 291.084 411.943 288.592 411.024 285.545L402.982 258.887C402.062 255.84 402.209 252.487 403.39 249.567C404.57 246.647 406.688 244.399 409.277 243.317Z" fill="#3F3D56"/>
<path id="Vector_23" opacity="0.1" d="M316.127 64.2324C315.817 64.1045 315.483 64.0803 315.163 64.1625C314.684 64.2223 314.239 64.4794 313.907 64.8883C313.995 64.935 314.091 64.9591 314.188 64.9591C314.284 64.9591 314.38 64.935 314.469 64.8883C314.767 64.7992 315.074 64.7594 315.382 64.77C315.647 64.77 316.437 65.114 316.643 64.9635C316.944 64.7323 316.332 64.3238 316.127 64.2324Z" fill="black"/>
<path id="Vector_24" opacity="0.1" d="M341.243 47.2767C340.555 47.003 339.898 46.6311 339.288 46.1692C337.685 44.9704 336.337 43.3414 334.752 42.1157C333.952 41.5239 333.124 40.9854 332.272 40.5029L326.924 37.2773C326.516 37.0043 326.08 36.7946 325.627 36.6537C324.754 36.4279 323.772 37.116 322.886 36.9709C322.427 36.8715 321.991 36.6587 321.607 36.3464C321.223 36.0341 320.899 35.6294 320.657 35.1592C320.174 34.2196 319.834 33.188 319.653 32.111C319.516 31.4758 319.414 30.8312 319.347 30.181C319.267 29.5057 319.257 28.8217 319.315 28.1435C319.406 26.7964 319.948 25.5472 320.822 24.6706C321.456 24.1405 322.178 23.7741 322.941 23.5954C323.422 23.4522 323.913 23.3569 324.407 23.3104C324.688 23.2836 324.971 23.2836 325.252 23.3104C327.271 23.4986 328.979 25.1114 330.326 26.8855C331.034 27.8209 331.697 28.8262 332.373 29.7778C332.531 30.3571 332.724 30.923 332.948 31.4712C333.674 33.17 334.857 34.5248 336.022 35.8419L337.287 37.2773C337.922 37.9977 339.023 37.8149 339.621 38.5729C339.865 38.9291 340.046 39.3383 340.156 39.7771C340.83 41.7219 341.22 43.7866 341.311 45.8843C341.316 46.3497 341.293 46.8149 341.243 47.2767Z" fill="black"/>
<path id="Vector_25" opacity="0.1" d="M299.647 116.079L272.124 120.847C272.188 119.982 272.408 119.142 272.768 118.385C275.966 117.31 279.208 116.234 282.529 116.288C283.611 116.288 284.685 116.439 285.763 116.476C288.891 116.589 291.933 114.939 295.039 115.401C295.347 115.437 295.656 115.357 295.923 115.172C296.19 114.988 296.4 114.708 296.523 114.374C296.656 113.977 296.711 113.455 297.053 113.299C297.3 113.192 297.638 113.326 297.793 113.079C297.848 112.946 297.881 112.802 297.889 112.654C297.98 112.116 298.442 111.875 298.802 111.579C299.716 110.837 300.232 109.568 300.689 108.353C300.809 108.09 300.882 107.801 300.903 107.504C300.903 107.267 300.84 107.031 300.844 106.789C300.844 105.939 301.653 105.45 302.073 104.757C302.625 103.843 302.529 102.606 302.799 101.531C303.164 100.176 304.137 99.214 304.379 97.8808L304.498 97.698L309.184 95.5476L299.647 116.079Z" fill="black"/>
<path id="Vector_26" opacity="0.1" d="M194.114 377.218C301.32 377.218 388.227 369.275 388.227 359.477C388.227 349.679 301.32 341.736 194.114 341.736C86.9076 341.736 0 349.679 0 359.477C0 369.275 86.9076 377.218 194.114 377.218Z" fill="#2A4793"/>
<path id="Vector_27" opacity="0.1" d="M365.719 424C435.088 424 491.322 415.39 491.322 404.77C491.322 394.15 435.088 385.54 365.719 385.54C296.351 385.54 240.116 394.15 240.116 404.77C240.116 415.39 296.351 424 365.719 424Z" fill="#2A4793"/>
<path id="Vector_28" d="M217.065 345.112L217.193 337.5C223.282 337.091 229.372 336.819 235.462 336.683C238.997 336.608 242.578 336.581 245.999 337.624C248.369 338.349 250.612 339.575 252.951 340.435C257.609 342.145 262.542 342.371 267.434 342.527C272.179 342.682 277.135 342.736 281.396 340.269C288.773 335.968 291.874 325.404 292.235 315.733C292.595 306.061 290.96 296.314 292.098 286.702" stroke="#3F3D56" stroke-width="12" stroke-miterlimit="10"/>
<path id="Vector_29" d="M233.763 360.009L152.377 358.784L152.614 356.327L156.551 315.797H228.022L233.283 356.327L233.685 359.397L233.763 360.009Z" fill="#D0D2D5"/>
<path id="Vector_30" opacity="0.1" d="M233.685 359.397H193.068L152.377 358.784L152.614 356.327H233.283L233.685 359.397Z" fill="black"/>
<path id="Vector_31" d="M246.807 356.94H138.812V360.009H246.807V356.94Z" fill="#D0D2D5"/>
<path id="Vector_32" d="M349.843 72.3719C349.851 71.3194 349.682 70.2754 349.346 69.2999C349.01 68.3244 348.514 67.4365 347.886 66.6873C347.258 65.938 346.51 65.3421 345.686 64.9338C344.862 64.5255 343.977 64.3128 343.083 64.3079H41.49C40.596 64.3135 39.7117 64.5267 38.8877 64.9353C38.0638 65.3438 37.3165 65.9397 36.6885 66.6888C36.0606 67.4379 35.5644 68.3255 35.2284 69.3007C34.8924 70.2759 34.7231 71.3196 34.7303 72.3719V287.552H349.843V72.3719Z" fill="#3F3D56"/>
<path id="Vector_33" d="M34.7303 285.401V310.609C34.7303 312.72 35.4425 314.743 36.7102 316.236C37.9779 317.728 39.6973 318.566 41.4901 318.566H343.083C344.876 318.566 346.595 317.728 347.863 316.236C349.131 314.743 349.843 312.72 349.843 310.609V285.401H34.7303Z" fill="#D0D2D5"/>
<path id="Vector_34" d="M338.365 77.8445H47.7748V271.278H338.365V77.8445Z" fill="#2F2E41"/>
<path id="Vector_35" d="M193.853 309.002C194.92 309.002 195.973 308.717 196.933 308.169C197.892 307.62 198.734 306.822 199.393 305.835C199.595 305.534 199.778 305.216 199.942 304.884L196.078 304.137L200.257 304.174C200.657 303.147 200.876 302.035 200.899 300.906C200.922 299.776 200.748 298.653 200.389 297.605L194.785 301.029L199.955 296.556C199.478 295.555 198.83 294.681 198.051 293.99C197.272 293.299 196.38 292.806 195.431 292.543C194.481 292.279 193.496 292.25 192.537 292.458C191.578 292.666 190.666 293.106 189.858 293.75C189.051 294.395 188.367 295.229 187.848 296.201C187.329 297.174 186.988 298.262 186.845 299.398C186.702 300.533 186.761 301.691 187.019 302.799C187.276 303.906 187.726 304.938 188.34 305.83C188.996 306.815 189.833 307.611 190.787 308.161C191.742 308.71 192.79 308.998 193.853 309.002Z" fill="#2A4793"/>
<path id="Vector_36" opacity="0.1" d="M200.896 318.561L233.366 356.94L228.383 318.561H200.896Z" fill="black"/>
<path id="Vector_37" d="M340.352 76.2693L357.79 49.0721C358.831 47.4593 359.905 45.7766 361.334 44.6154C365.445 41.2715 371.469 43.2499 374.909 47.5346C378.348 51.8192 379.791 57.7812 380.846 63.5443C383.303 76.8091 384.401 90.3727 384.117 103.945C383.97 111.09 383.427 118.31 381.495 125.089C378.563 135.4 372.62 144.082 368.131 153.582C360.901 168.887 357.872 189.3 367.025 203.111C370.008 207.61 374.068 211.051 376.822 215.75C379.933 221.056 381.143 227.545 382.303 233.845C384.034 243.361 385.77 252.936 386.09 262.661C387.122 294.105 371.89 325.522 348.368 340.478C332.039 350.865 312.285 353.875 298.085 367.961C293.061 372.923 288.731 380.218 289.965 387.776C290.969 393.911 295.546 398.571 300.57 400.598C305.594 402.625 311.043 402.458 316.341 402.104C329.067 401.247 341.73 399.406 354.25 396.593C364.86 394.206 375.452 392.147 384.701 385.578C385.628 385.001 386.42 384.164 387.008 383.142C387.606 381.965 387.706 380.54 387.789 379.17C388.04 375.132 388.277 370.944 387.067 367.154C385.656 362.724 382.436 359.37 380.892 355.004C379.348 350.639 379.627 345.612 380.627 341.027C381.86 335.36 384.103 330.081 386.359 324.872C388.556 319.797 390.785 314.738 393.37 309.927C400.65 296.401 410.598 285.197 420.441 274.149" stroke="#3F3D56" stroke-width="12" stroke-miterlimit="10"/>
<path id="Vector_38" d="M369.209 37.2826C369.976 36.8897 370.798 36.6656 371.634 36.6213C372.169 36.6703 372.695 36.8116 373.196 37.0407C374.099 37.3525 374.942 37.8653 375.681 38.5513C376.046 38.898 376.337 39.342 376.528 39.8467C376.72 40.3514 376.806 40.9024 376.781 41.4544C376.676 42.5296 376 43.4542 375.26 44.1424C374.257 45.1149 373.014 45.6806 371.716 45.7552C370.264 45.7552 368.893 45.0133 367.491 44.5509C366.471 44.2113 365.418 44.0306 364.358 44.0133C363.824 44.0454 363.289 44.0039 362.764 43.8897C362.501 43.8321 362.253 43.7024 362.04 43.5109C361.827 43.3194 361.656 43.0716 361.54 42.7876C361.414 42.2693 361.414 41.72 361.54 41.2017C361.65 40.5351 361.631 38.9492 362.134 38.5513C362.536 38.2341 363.961 38.4922 364.454 38.4438C366.069 38.251 367.662 37.8618 369.209 37.2826Z" fill="#A0616A"/>
<path id="Vector_39" d="M362.874 37.8202C360.983 38.8416 358.763 37.9922 356.708 37.9868C355.698 37.9868 354.693 38.1858 353.689 38.2556C352.575 38.3023 351.46 38.2682 350.35 38.1535L347.007 37.8847C345.037 37.8077 343.079 37.4907 341.165 36.9385C339.53 34.6699 336.876 33.6699 334.903 31.8206C333.323 30.3368 332.19 28.3154 330.843 26.536C329.495 24.7565 327.787 23.1491 325.773 22.9609C324.993 22.9151 324.211 23.013 323.457 23.2512C322.695 23.4264 321.973 23.7931 321.342 24.3264C320.909 24.7597 320.553 25.2896 320.294 25.8857C320.035 26.4817 319.879 27.1321 319.835 27.7993C319.752 29.1345 319.865 30.4767 320.169 31.7668C320.35 32.8456 320.69 33.8789 321.173 34.8204C321.418 35.2888 321.743 35.692 322.128 36.004C322.512 36.316 322.948 36.5299 323.407 36.6321C324.288 36.7719 325.266 36.0945 326.147 36.3095C326.601 36.4505 327.037 36.6601 327.444 36.9332L332.797 40.1588C333.647 40.6424 334.474 41.1809 335.273 41.7716C336.862 42.9973 338.205 44.6262 339.808 45.8251C341.411 47.0239 343.435 47.7765 345.216 46.9917C350.697 44.5886 356.872 45.7068 362.686 46.3035C362.65 46.1745 362.887 46.0562 362.956 45.9487C363.675 44.7869 364.001 43.3513 363.869 41.9221C363.728 40.5082 363.271 39.1749 362.874 37.8202Z" fill="#E71C1D"/>
<path id="Vector_40" d="M353.679 19.7084C354.248 19.4004 354.726 18.8985 355.05 18.2677C355.57 17.1333 355.251 15.7409 354.894 14.5045C354.538 13.268 354.177 12.1874 353.78 11.0477C353.496 10.0913 353.065 9.20408 352.51 8.42957C351.702 7.41351 350.546 6.90278 349.583 6.10176C348.441 5.15021 347.587 3.80083 346.623 2.61273C345.659 1.42464 344.481 0.322556 343.092 0.123644C342.023 0.0604003 340.956 0.294289 339.977 0.806397C331.637 4.4137 324.818 11.5584 317.351 17.2247C314.446 19.4342 311.185 21.4933 307.759 21.1976L310.824 26.9284C311.605 28.396 312.482 29.9497 313.852 30.5787C315.062 31.1163 316.414 30.8475 317.684 30.5787C318.695 30.4064 319.678 30.0586 320.603 29.5465C322.429 28.3799 323.603 25.9553 325.567 25.1113C327.033 24.4823 328.668 24.8694 330.135 25.4715C331.601 26.0736 333.039 26.8908 334.583 27.1381C337.324 27.5735 340.064 26.1166 342.348 24.235C343.718 23.1168 344.965 21.8319 346.458 21.0094C347.582 20.3232 348.857 20.0586 350.112 20.2514C351.496 20.4772 352.309 20.5525 353.679 19.7084Z" fill="#2F2E41"/>
<path id="Vector_41" opacity="0.1" d="M355.05 18.2678C355.561 17.1549 355.26 15.7894 354.913 14.5906C355.025 15.2774 354.945 15.9888 354.684 16.6173C354.357 17.245 353.881 17.746 353.314 18.0581C351.944 18.9075 351.113 18.8322 349.706 18.5581C348.451 18.3688 347.176 18.6331 346.052 19.3161C344.568 20.1601 343.312 21.4665 341.941 22.5417C339.658 24.4233 336.917 25.8748 334.177 25.4393C332.628 25.1974 331.199 24.3641 329.728 23.7728C328.257 23.1814 326.618 22.7836 325.161 23.4126C323.201 24.2566 322.041 26.6866 320.201 27.8478C319.276 28.3591 318.293 28.7069 317.282 28.88C316.008 29.1703 314.656 29.4552 313.45 28.88C312.08 28.2564 311.203 26.6973 310.417 25.2297L308.248 21.1708C308.074 21.1708 307.896 21.1708 307.723 21.1708L310.787 26.9016C311.568 28.3693 312.445 29.9229 313.815 30.5519C315.026 31.0895 316.378 30.8207 317.647 30.5519C318.658 30.3796 319.642 30.0318 320.566 29.5197C322.393 28.3531 323.567 25.9286 325.531 25.0845C326.997 24.4555 328.632 24.8426 330.098 25.4447C331.564 26.0468 333.003 26.864 334.547 27.1113C337.287 27.5467 340.028 26.0898 342.311 24.2082C343.681 23.09 344.928 21.8052 346.422 20.9826C347.545 20.2964 348.821 20.0319 350.076 20.2246C351.483 20.4934 352.314 20.5687 353.679 19.7247C354.25 19.4123 354.728 18.9046 355.05 18.2678Z" fill="black"/>
<path id="Vector_42" d="M378.663 386.002C378.932 385.508 379.269 385.068 379.659 384.701C381.655 382.487 382.582 379.229 383.075 376.035C383.568 372.842 383.71 369.584 384.5 366.461C384.927 364.858 385.465 363.299 386.108 361.8C386.565 360.649 387.136 358.391 387.976 357.59C388.139 357.422 388.338 357.309 388.551 357.262C388.944 356.273 389.507 355.391 390.205 354.671C391.511 353.279 393.105 352.171 393.977 350.37C394.216 349.745 394.512 349.152 394.859 348.602C395.448 347.833 396.38 347.526 396.923 346.715C397.631 345.672 397.472 344.183 397.38 342.849C397.289 341.516 397.38 339.93 398.358 339.237C398.942 338.812 399.696 338.85 400.303 338.479C401.217 337.941 401.578 336.581 401.559 335.371C401.541 334.162 401.221 332.984 401.139 331.78C400.883 327.931 403.039 324.103 402.203 320.372C401.888 318.958 401.171 317.727 400.637 316.415C400.454 315.975 400.301 315.519 400.18 315.05C398.757 315.716 397.26 316.141 395.736 316.313C398.253 309.669 397.613 301.943 398.787 294.809L398.636 294.562C397.448 292.725 396.775 290.499 396.709 288.191C396.709 285.503 397.764 283.047 398.239 280.45C398.641 278.235 398.627 275.929 399.152 273.757C399.52 272.408 400.005 271.107 400.6 269.875C401.171 268.628 401.769 267.408 402.395 266.204C402.98 263.924 403.566 261.645 404.154 259.365C404.976 256.14 405.821 252.914 407.419 250.151C408.004 249.135 408.182 247.087 409.082 246.474C409.812 246.026 410.641 245.855 411.457 245.984C412.727 245.146 413.841 243.936 414.001 242.28C414.017 241.919 413.986 241.556 413.91 241.205H413.754C411.74 240.985 410.726 238.899 409.68 237.076C407.986 234.114 408.634 230.114 409.68 226.754C409.939 225.692 410.409 224.718 411.05 223.911C412.516 222.298 414.837 222.653 416.728 221.873C417.341 221.558 417.967 221.279 418.605 221.04C419.861 220.69 421.176 221.18 422.327 221.857C423.478 222.534 424.551 223.427 425.757 223.964C426.963 224.502 428.452 224.927 428.749 226.384C428.833 226.875 428.796 227.384 428.644 227.851C428.367 228.783 427.881 229.61 427.237 230.243C427.751 231.49 428.028 232.852 428.051 234.237C428.074 235.622 427.841 236.996 427.369 238.265C426.898 239.534 426.197 240.667 425.318 241.587C424.438 242.507 423.399 243.191 422.272 243.592C421.925 244.243 421.601 244.915 421.304 245.597C420.774 246.802 420.327 248.221 420.505 249.511C420.836 249.921 421.142 250.36 421.418 250.823C422.729 252.973 423.474 255.5 424.159 258.016C425.083 261.227 425.822 264.509 426.369 267.838C427.484 270.623 428.845 273.289 429.653 276.219C431.101 276.223 432.542 275.997 433.937 275.547L437.792 274.515C439.131 274.16 440.533 273.773 441.583 272.73C442.14 272.192 442.574 271.477 443.141 270.94C443.707 270.402 444.844 269.784 445.466 270.225C445.579 270.306 445.685 270.402 445.781 270.51C446.342 269.166 449.937 274.665 447.48 275.208L447.64 275.746C447.964 276.859 448.654 278.214 448.48 279.375L431.325 286.304C430.225 286.829 429.058 287.133 427.872 287.202C427.409 287.198 426.949 287.125 426.502 286.987V288.019V288.057C426.456 295.148 427.415 302.196 427.593 309.282C427.625 310.572 427.593 311.97 426.899 312.98C426.123 314.088 424.743 314.303 423.542 314.055C423.256 314.001 422.972 313.927 422.693 313.835C422.287 315.617 421.994 317.432 421.816 319.265L420.678 328.813C420.53 329.795 420.471 330.793 420.5 331.791C420.633 334.038 421.642 336.059 422.373 338.14C423.104 340.22 423.538 342.709 422.574 344.65C422.277 345.252 421.861 345.768 421.592 346.392C421.249 347.356 421.093 348.397 421.135 349.44C421.065 352.343 420.998 355.243 420.934 358.139C421.134 358.105 421.338 358.154 421.51 358.278C422.46 359.144 422.355 363.294 422.423 364.579C422.496 366.729 422.423 368.923 422.524 371.095C422.647 374.031 423.058 376.941 423.748 379.766C423.912 380.683 424.272 381.536 424.794 382.245C425.327 382.789 425.963 383.178 426.648 383.379C428.925 384.218 431.306 384.599 433.691 384.508C434.655 384.47 435.659 384.363 436.555 384.793C437.45 385.223 438.171 386.406 437.847 387.481C437.569 388.384 436.724 388.814 435.961 389.153C434.218 389.873 432.536 390.784 430.937 391.873C430.32 392.368 429.669 392.801 428.991 393.169C428.343 393.444 427.673 393.639 426.99 393.749L418.897 395.362C417.239 395.701 415.243 395.9 414.188 394.287C413.617 393.416 413.535 392.233 413.562 391.131C413.608 388.981 413.973 386.793 413.731 384.642C413.555 383.369 413.272 382.119 412.886 380.911L410.457 372.46C409.644 369.627 408.821 366.773 408.506 363.805C408.392 362.73 408.401 361.509 409.1 360.837C409.277 360.667 409.482 360.542 409.703 360.472C409.73 357.881 410.018 355.284 409.895 352.693C409.863 352.048 409.808 351.397 409.762 350.752C409.335 351.223 408.955 351.749 408.63 352.322C407.853 353.757 407.565 355.66 406.373 356.623C405.359 357.44 403.857 357.397 403.144 358.579C402.915 359.034 402.743 359.524 402.633 360.036C402.216 361.302 401.596 362.461 400.806 363.45C400.531 364.629 400.153 365.771 399.678 366.859C399.005 368.525 398.335 370.192 397.668 371.858C396.951 373.643 396.229 375.428 395.384 377.116C394.743 378.187 394.229 379.355 393.854 380.589C393.21 383.245 394.256 386.158 395.923 388.115C397.59 390.072 399.778 391.196 401.934 392.244C402.164 392.333 402.374 392.479 402.55 392.674C402.736 392.936 402.834 393.269 402.824 393.61C402.824 394.851 401.961 395.916 400.966 396.298C399.948 396.619 398.881 396.665 397.846 396.432C392.009 395.599 386.19 393.921 381.029 390.583C380.257 390.15 379.572 389.529 379.019 388.76C378.759 388.378 378.589 387.922 378.527 387.438C378.464 386.954 378.511 386.458 378.663 386.002Z" fill="url(#paint1_linear_31_131)"/>
<path id="Vector_43" d="M403.336 265.446C402.365 267.202 401.451 269.005 400.596 270.854C399.999 272.073 399.514 273.364 399.148 274.703C398.613 276.853 398.632 279.154 398.234 281.348C397.777 283.928 396.709 286.391 396.709 289.03C396.776 291.324 397.45 293.536 398.636 295.358C399.819 297.161 401.171 298.802 402.665 300.25C406.114 289.733 408.04 278.61 408.365 267.343C408.41 265.784 408.415 264.172 407.935 262.72C407.634 261.806 406.213 259.301 405.295 260.285C404.962 260.645 404.875 262.268 404.67 262.806C404.285 263.726 403.839 264.608 403.336 265.446Z" fill="#E71C1D"/>
<path id="Vector_44" opacity="0.1" d="M403.336 265.446C402.365 267.202 401.451 269.005 400.596 270.854C399.999 272.073 399.514 273.364 399.148 274.703C398.613 276.853 398.632 279.154 398.234 281.348C397.777 283.928 396.709 286.391 396.709 289.03C396.776 291.324 397.45 293.536 398.636 295.358C399.819 297.161 401.171 298.802 402.665 300.25C406.114 289.733 408.04 278.61 408.365 267.343C408.41 265.784 408.415 264.172 407.935 262.72C407.634 261.806 406.213 259.301 405.295 260.285C404.962 260.645 404.875 262.268 404.67 262.806C404.285 263.726 403.839 264.608 403.336 265.446Z" fill="black"/>
<path id="Vector_45" d="M452.367 271.322C454.153 270.972 456.135 271.144 457.523 272.504C458.361 273.342 458.892 274.528 459.003 275.816C459.122 277.31 458.387 279.074 457.117 279.192C456.811 279.196 456.506 279.173 456.203 279.122C455.401 279.116 454.6 279.194 453.81 279.353C452.254 279.525 450.685 279.255 449.236 278.567C447.786 277.879 446.498 276.791 445.479 275.397C444.392 273.816 445.826 273.09 447.119 272.768C448.882 272.327 450.604 271.676 452.367 271.322Z" fill="#A0616A"/>
<path id="Vector_46" d="M421.82 319.877L420.687 329.35C420.541 330.326 420.483 331.317 420.514 332.307C420.646 334.538 421.651 336.543 422.382 338.607C423.113 340.672 423.551 343.139 422.587 345.059C422.291 345.661 421.87 346.166 421.605 346.784C421.264 347.743 421.108 348.778 421.149 349.816L420.838 363.256C417.312 363.537 413.774 363.514 410.251 363.187C410.112 363.2 409.974 363.159 409.858 363.068C409.766 362.929 409.719 362.755 409.726 362.579C409.57 359.434 410.036 356.284 409.886 353.139C409.831 351.988 409.689 350.843 409.675 349.687C409.616 345.005 411.585 340.419 410.991 335.785C410.804 334.619 410.56 333.467 410.26 332.334C408.383 324.27 408.78 315.792 409.191 307.47C409.187 307.336 409.219 307.204 409.283 307.093C409.353 307.015 409.44 306.959 409.534 306.932C411.533 306.228 413.646 306.101 415.695 306.56C417.744 307.02 419.67 308.053 421.309 309.572C421.806 310.045 423.062 310.502 423.391 311.061C423.848 311.851 423.245 312.631 422.985 313.469C422.403 315.55 422.012 317.698 421.82 319.877Z" fill="#3F3D56"/>
<path id="Vector_47" opacity="0.1" d="M421.82 319.877L420.687 329.35C420.541 330.326 420.483 331.317 420.514 332.307C420.646 334.538 421.651 336.543 422.382 338.607C423.113 340.672 423.551 343.139 422.587 345.059C422.291 345.661 421.87 346.166 421.605 346.784C421.264 347.743 421.108 348.778 421.149 349.816L420.838 363.256C417.312 363.537 413.774 363.514 410.251 363.187C410.112 363.2 409.974 363.159 409.858 363.068C409.766 362.929 409.719 362.755 409.726 362.579C409.57 359.434 410.036 356.284 409.886 353.139C409.831 351.988 409.689 350.843 409.675 349.687C409.616 345.005 411.585 340.419 410.991 335.785C410.804 334.619 410.56 333.467 410.26 332.334C408.383 324.27 408.78 315.792 409.191 307.47C409.187 307.336 409.219 307.204 409.283 307.093C409.353 307.015 409.44 306.959 409.534 306.932C411.533 306.228 413.646 306.101 415.695 306.56C417.744 307.02 419.67 308.053 421.309 309.572C421.806 310.045 423.062 310.502 423.391 311.061C423.848 311.851 423.245 312.631 422.985 313.469C422.403 315.55 422.012 317.698 421.82 319.877Z" fill="black"/>
<path id="Vector_48" d="M400.641 317.018C401.176 318.324 401.893 319.544 402.208 320.947C403.044 324.652 400.892 328.474 401.148 332.269C401.23 333.468 401.546 334.635 401.568 335.834C401.591 337.032 401.217 338.366 400.312 338.914C399.705 339.285 398.942 339.247 398.371 339.667C397.407 340.355 397.298 341.935 397.394 343.253C397.49 344.57 397.645 346.053 396.937 347.091C396.394 347.892 395.462 348.198 394.877 348.956C394.528 349.502 394.231 350.092 393.991 350.714C393.119 352.505 391.529 353.607 390.223 355.015C388.917 356.424 387.811 358.488 388.396 360.434C388.825 361.87 390.031 362.751 391.191 363.423C393.308 364.655 395.542 365.584 397.846 366.192C398.094 366.278 398.355 366.293 398.609 366.235C398.865 366.123 399.094 365.938 399.276 365.697C400.623 364.144 402.016 362.515 402.637 360.423C402.748 359.915 402.921 359.428 403.149 358.977C403.861 357.805 405.359 357.843 406.378 357.037C407.565 356.085 407.853 354.193 408.63 352.768C409.365 351.424 410.543 350.499 411.37 349.241C412.74 347.155 413.11 344.376 414.11 341.995C414.535 340.978 415.079 340.038 415.417 338.979C415.758 337.718 415.968 336.412 416.042 335.092C416.686 328.813 418.326 322.49 417.294 316.276C417.066 314.905 416.714 313.588 416.568 312.179C416.312 309.739 416.714 307.249 416.408 304.814C416.401 304.51 416.335 304.211 416.216 303.941C416.096 303.671 415.926 303.436 415.718 303.255C415.471 303.126 415.203 303.06 414.933 303.062C412.225 302.896 409.51 302.969 406.812 303.282C405.442 303.438 403.902 303.766 403.085 305.083C402.386 306.206 402.422 307.722 402.171 309.093C401.897 310.776 401.171 311.701 400.408 313.023C399.646 314.346 400.079 315.657 400.641 317.018Z" fill="#3F3D56"/>
<path id="Vector_49" d="M411.178 360.703C410.457 360.703 409.657 360.654 409.1 361.192C408.406 361.859 408.392 363.09 408.506 364.144C408.826 367.084 409.644 369.917 410.461 372.745L412.891 381.137C413.276 382.334 413.559 383.573 413.736 384.836C413.978 386.986 413.613 389.137 413.567 391.287C413.567 392.362 413.626 393.556 414.197 394.421C415.23 395.98 417.244 395.797 418.902 395.464L426.99 393.851C427.672 393.742 428.343 393.549 428.991 393.276C429.667 392.909 430.316 392.478 430.932 391.986C432.533 390.909 434.215 390.009 435.956 389.298C436.714 388.965 437.564 388.534 437.838 387.637C438.162 386.561 437.441 385.384 436.545 384.949C435.65 384.513 434.65 384.626 433.682 384.664C431.3 384.754 428.923 384.374 426.648 383.54C425.962 383.346 425.326 382.961 424.794 382.417C424.27 381.717 423.909 380.871 423.743 379.96C423.058 377.157 422.648 374.271 422.519 371.358C422.428 369.208 422.492 367.057 422.419 364.907C422.373 363.633 422.478 359.531 421.505 358.655C420.779 357.999 417.787 359.81 416.81 360.074C414.962 360.56 413.07 360.771 411.178 360.703Z" fill="#2F2E41"/>
<path id="Vector_50" d="M384.527 366.681C383.742 369.767 383.614 373.019 383.107 376.186C382.6 379.352 381.691 382.589 379.695 384.788C379.306 385.149 378.971 385.585 378.704 386.078C378.536 386.538 378.478 387.044 378.539 387.54C378.599 388.037 378.775 388.503 379.047 388.889C379.598 389.654 380.282 390.272 381.052 390.701C386.208 394.013 392.013 395.679 397.864 396.507C398.898 396.74 399.962 396.696 400.979 396.378C401.975 395.98 402.856 394.927 402.838 393.69C402.847 393.353 402.75 393.023 402.564 392.765C402.386 392.574 402.176 392.429 401.947 392.341C399.792 391.298 397.599 390.158 395.937 388.239C394.274 386.32 393.224 383.4 393.868 380.788C394.245 379.565 394.758 378.406 395.393 377.342C396.23 375.651 396.992 373.91 397.677 372.127L399.687 367.165C400.271 365.719 400.87 364.224 400.966 362.617C398.443 362.751 395.923 362.278 393.562 361.224C392.459 360.695 391.432 359.97 390.515 359.074C389.739 358.311 389.031 356.891 387.985 357.886C387.145 358.682 386.615 360.918 386.117 362.058C385.486 363.548 384.954 365.094 384.527 366.681Z" fill="#2F2E41"/>
<path id="Vector_51" d="M413.969 243.474C413.768 245.533 412.069 246.898 410.447 247.71L420.706 251.57C420.043 250.075 420.582 248.248 421.24 246.732C421.776 245.533 422.386 244.383 423.067 243.291C423.168 243.124 423.282 242.909 423.209 242.721C423.143 242.595 423.041 242.501 422.921 242.458C420.811 241.35 418.637 240.205 416.33 239.802C415.663 239.684 414.403 239.372 413.905 240.173C413.407 240.974 414.078 242.522 413.969 243.474Z" fill="#A0616A"/>
<path id="Vector_52" opacity="0.1" d="M413.969 243.474C413.768 245.533 412.069 246.898 410.447 247.71L420.706 251.57C420.043 250.075 420.582 248.248 421.24 246.732C421.776 245.533 422.386 244.383 423.067 243.291C423.168 243.124 423.282 242.909 423.209 242.721C423.143 242.595 423.041 242.501 422.921 242.458C420.811 241.35 418.637 240.205 416.33 239.802C415.663 239.684 414.403 239.372 413.905 240.173C413.407 240.974 414.078 242.522 413.969 243.474Z" fill="black"/>
<path id="Vector_53" d="M419.948 245.146C424.392 245.146 427.995 240.905 427.995 235.673C427.995 230.442 424.392 226.201 419.948 226.201C415.503 226.201 411.9 230.442 411.9 235.673C411.9 240.905 415.503 245.146 419.948 245.146Z" fill="#A0616A"/>
<path id="Vector_54" d="M426.899 313.609C426.123 314.684 424.748 314.921 423.547 314.684C420.738 314.147 418.436 311.711 415.691 310.835C412.32 309.76 408.748 311.141 405.569 312.83C402.391 314.518 399.221 316.566 395.74 316.888C398.887 308.631 397.088 298.691 400.093 290.363C400.833 288.331 401.861 286.363 402.025 284.165C402.231 281.428 401.071 278.789 400.892 276.063C400.728 273.638 401.349 271.225 401.938 268.918L404.144 260.397C404.967 257.226 405.812 253.995 407.406 251.258C407.99 250.253 408.173 248.221 409.068 247.608C411.023 246.285 413.987 247.957 416.106 248.049C418.226 248.14 420.158 249.914 421.395 251.919C422.706 254.038 423.451 256.559 424.136 259.053C425.23 262.767 426.046 266.586 426.575 270.467C426.643 271.047 426.703 271.628 426.748 272.214C427.205 277.735 426.538 283.288 426.502 288.831C426.502 288.831 426.502 288.831 426.502 288.874C426.461 295.906 427.415 302.9 427.598 309.932C427.625 311.238 427.598 312.641 426.899 313.609Z" fill="#E71C1D"/>
<path id="Vector_55" opacity="0.1" d="M426.502 288.879C424.926 288.412 423.496 287.218 422.277 285.907C421.219 284.797 420.278 283.543 419.473 282.17C418.461 280.295 417.649 278.28 417.056 276.171C415.365 270.571 414.29 264.739 413.859 258.817C413.74 257.204 413.704 255.478 414.522 254.199C414.979 253.505 415.623 253.015 416.348 252.807C417.073 252.599 417.836 252.686 418.513 253.054C419.596 253.677 420.295 254.93 420.939 256.123C422.227 258.505 423.519 260.908 424.346 263.553C424.711 264.725 424.981 265.935 425.337 267.112C425.699 268.273 426.117 269.409 426.589 270.515C426.657 271.096 426.716 271.676 426.762 272.262C427.187 277.757 426.538 283.31 426.502 288.879Z" fill="black"/>
<path id="Vector_56" d="M414.54 253.156C413.727 254.43 413.763 256.177 413.877 257.774C414.309 263.694 415.383 269.524 417.075 275.122C417.664 277.233 418.476 279.249 419.491 281.122C420.295 282.495 421.236 283.75 422.295 284.858C423.848 286.53 425.739 288.019 427.845 288.041C429.029 287.972 430.196 287.673 431.298 287.154L448.43 280.305C448.603 279.149 447.914 277.81 447.589 276.703L446.676 273.509C446.416 272.633 446.11 271.682 445.434 271.203C444.758 270.725 443.675 271.381 443.109 271.913C442.542 272.445 442.109 273.144 441.556 273.687C440.496 274.719 439.103 275.101 437.765 275.456L433.915 276.477C432.518 276.923 431.077 277.147 429.63 277.144C428.557 273.289 426.515 269.891 425.36 266.064C425.004 264.892 424.73 263.682 424.364 262.51C423.538 259.865 422.245 257.462 420.962 255.08C420.318 253.882 419.619 252.629 418.536 252.011C417.858 251.643 417.094 251.557 416.369 251.764C415.643 251.972 414.999 252.463 414.54 253.156Z" fill="#E71C1D"/>
<path id="Vector_57" d="M417.381 237.808C417.442 237.186 417.607 236.585 417.865 236.039C418 235.765 418.205 235.548 418.451 235.419C418.697 235.291 418.972 235.257 419.235 235.324C420.039 235.62 420.308 237.087 421.149 237.136C421.715 237.168 422.122 236.49 422.3 235.851C422.478 235.211 422.574 234.496 422.999 234.044C423.294 233.783 423.633 233.599 423.994 233.507C425.945 232.781 427.959 231.437 428.607 229.152C428.758 228.69 428.794 228.186 428.712 227.701C428.416 226.254 426.885 225.819 425.721 225.292C424.556 224.765 423.437 223.884 422.295 223.206C421.153 222.529 419.829 222.045 418.573 222.389C417.935 222.625 417.308 222.901 416.696 223.217C414.805 223.986 412.485 223.631 411.018 225.233C410.38 226.034 409.91 227.001 409.648 228.055C408.621 231.394 407.977 235.367 409.671 238.302C410.712 240.114 411.731 242.184 413.741 242.399C416.079 242.646 417.011 240.13 417.381 237.808Z" fill="#2F2E41"/>
<g id="Group_2" opacity="0.1">
<path id="Vector_58" opacity="0.1" d="M420.952 234.711C421.131 234.077 421.226 233.356 421.647 232.905C421.943 232.646 422.282 232.463 422.642 232.367C424.597 231.641 426.607 230.303 427.26 228.012C427.409 227.549 427.444 227.046 427.36 226.561C427.316 226.331 427.233 226.114 427.118 225.921C427.863 226.297 428.511 226.808 428.694 227.701C428.776 228.186 428.739 228.69 428.589 229.152C427.941 231.437 425.926 232.781 423.976 233.507C423.615 233.599 423.275 233.783 422.98 234.044C422.556 234.496 422.46 235.216 422.282 235.851C422.103 236.485 421.697 237.168 421.131 237.135C420.564 237.103 420.29 236.496 419.929 235.985C420.427 235.91 420.783 235.297 420.952 234.711Z" fill="black"/>
<path id="Vector_59" opacity="0.1" d="M412.402 241.248C414.75 241.501 415.677 238.99 416.056 236.668C416.118 236.047 416.282 235.446 416.54 234.899C416.675 234.625 416.881 234.409 417.127 234.281C417.373 234.154 417.648 234.122 417.911 234.189C418.344 234.345 418.623 234.851 418.92 235.265C418.71 235.288 418.508 235.369 418.329 235.499C418.15 235.63 417.999 235.807 417.888 236.017C417.63 236.564 417.465 237.165 417.404 237.786C417.034 240.108 416.102 242.624 413.75 242.366C412.818 242.249 411.958 241.726 411.338 240.899C411.674 241.083 412.034 241.201 412.402 241.248Z" fill="black"/>
</g>
<path id="Vector_60" d="M78.0017 349.596L86.7437 343.543C85.559 341.17 84.048 339.044 82.2722 337.253L65.7794 343.29L78.7234 334.344C75.5237 332.281 71.9228 331.235 68.275 331.307C64.6272 331.379 61.0583 332.569 57.9196 334.758C54.7809 336.947 52.1806 340.06 50.3745 343.791C48.5685 347.522 47.619 351.742 47.6195 356.037C47.6195 369.692 57.0237 370.17 68.6294 370.17C80.2351 370.17 89.6394 369.692 89.6394 356.037C89.6368 352.579 89.0143 349.16 87.8124 346.005L78.0017 349.596Z" fill="#2A4793"/>
<path id="Vector_61" opacity="0.1" d="M80.226 362.875C79.2956 361.776 78.2559 360.814 77.1293 360.009C75.5399 358.768 73.9002 357.499 72.0276 357.079C70.3833 356.709 68.6888 357.02 67.0034 356.913C64.0953 356.703 61.358 355.225 59.3257 352.768C58.1336 351.316 57.1927 349.542 55.7586 348.419C54.2102 347.225 52.2463 346.967 50.4102 347.263C49.8777 347.355 49.3501 347.482 48.8299 347.645C48.0056 350.336 47.5852 353.176 47.5875 356.037C47.5875 369.692 56.9918 370.17 68.5975 370.17C74.229 370.17 79.3399 370.057 83.1126 368.38L82.4823 366.993C81.8811 365.513 81.123 364.13 80.226 362.875Z" fill="black"/>
<path id="Vector_62" d="M266.717 384.169L255.12 376.143C256.692 372.993 258.698 370.173 261.058 367.799L282.931 375.804L265.789 363.945C270.032 361.209 274.807 359.82 279.644 359.916C284.482 360.011 289.214 361.588 293.377 364.49C297.539 367.393 300.988 371.521 303.383 376.468C305.778 381.416 307.038 387.012 307.037 392.706C307.037 410.818 294.564 411.447 279.176 411.447C263.789 411.447 251.315 410.818 251.315 392.706C251.311 388.123 252.125 383.59 253.704 379.401L266.717 384.169Z" fill="#2A4793"/>
<path id="Vector_63" opacity="0.1" d="M263.761 401.776C264.997 400.319 266.377 399.042 267.872 397.975C269.978 396.33 272.156 394.652 274.636 394.093C276.815 393.604 279.062 394.018 281.277 393.868C285.133 393.589 288.764 391.632 291.463 388.379C293.043 386.449 294.29 384.078 296.194 382.61C298.245 380.997 300.849 380.68 303.283 381.078C303.991 381.196 304.693 381.365 305.384 381.583C306.475 385.151 307.032 388.915 307.028 392.706C307.028 410.818 294.555 411.447 279.167 411.447C271.7 411.447 264.922 411.302 259.916 409.076L260.752 407.238C261.624 405.318 262.51 403.388 263.761 401.776Z" fill="black"/>
</g>
<defs>
<linearGradient id="paint0_linear_31_131" x1="250.223" y1="112.067" x2="380.361" y2="46.5005" gradientUnits="userSpaceOnUse">
<stop stop-color="#808080" stop-opacity="0.25"/>
<stop offset="0.54" stop-color="#808080" stop-opacity="0.12"/>
<stop offset="1" stop-color="#808080" stop-opacity="0.1"/>
</linearGradient>
<linearGradient id="paint1_linear_31_131" x1="-99764.9" y1="139832" x2="-97050.7" y2="82184.1" gradientUnits="userSpaceOnUse">
<stop stop-color="#808080" stop-opacity="0.25"/>
<stop offset="0.54" stop-color="#808080" stop-opacity="0.12"/>
<stop offset="1" stop-color="#808080" stop-opacity="0.1"/>
</linearGradient>
</defs>
</svg>
