<svg width="505" height="487" viewBox="0 0 505 487" fill="none" xmlns="http://www.w3.org/2000/svg">
<g id="undraw_online_payments_re_y8f2 1" clip-path="url(#clip0_31_79)">
<path id="Vector" d="M15.9848 373.318C18.4843 335.372 33.5914 297.494 57.6287 284.244C48.7464 323.546 49.4972 366.254 59.7481 404.812C63.7376 419.661 69.2145 435.558 65.9739 450.805C63.9577 460.292 58.7481 467.693 52.8626 472.422C46.9769 477.152 40.395 479.552 33.8951 481.906L32.6364 483.539C21.6487 449.091 13.4853 411.264 15.9848 373.318Z" fill="#F0F0F0"/>
<path id="Vector_2" d="M57.8819 284.95C44.3101 308.776 35.7681 339.204 34.2745 370.399C33.9516 377.143 34.0187 384.026 35.1237 390.618C36.2339 397.032 38.4785 402.886 41.6244 407.573C44.4986 412.03 47.7857 416.095 49.8813 421.514C52.0902 427.227 52.2866 433.806 50.9518 440.017C49.3187 447.615 45.9473 453.887 42.507 459.851C38.6873 466.472 34.6492 473.26 33.1277 481.9C32.9433 482.947 31.8619 482.461 32.0459 481.415C34.6932 466.382 44.2829 457.529 48.6915 443.91C50.7486 437.555 51.5306 430.24 49.3829 423.699C47.5049 417.98 44.1177 413.784 41.1813 409.308C38.0979 404.608 35.7059 399.413 34.4096 393.082C33.0836 386.606 32.8354 379.712 33.041 372.986C33.5836 357.737 35.7348 342.71 39.4159 328.455C43.5564 312.151 49.5416 297.021 57.1125 283.719C57.5813 282.896 58.3477 284.133 57.8819 284.95L57.8819 284.95Z" fill="white"/>
<path id="Vector_3" d="M34.4003 360.221C30.8882 359.096 27.7592 356.151 25.5723 351.911C23.3853 347.672 22.2828 342.415 22.4615 337.078C22.4701 336.86 22.5352 336.656 22.643 336.508C22.7508 336.361 22.8929 336.281 23.0394 336.286C23.1859 336.292 23.3253 336.381 23.4282 336.536C23.5312 336.691 23.5896 336.9 23.5913 337.118C23.4187 342.087 24.446 346.984 26.4879 350.926C28.5299 354.867 31.4518 357.593 34.7265 358.612C35.4379 358.835 35.1077 360.442 34.4003 360.221Z" fill="white"/>
<path id="Vector_4" d="M39.9669 405.598C46.1723 399.756 50.6691 390.649 52.5607 380.095C52.7475 379.049 53.829 379.535 53.6424 380.58C51.6602 391.558 46.9676 401.02 40.5012 407.079C39.8846 407.656 39.3537 406.172 39.9669 405.598Z" fill="white"/>
<path id="Vector_5" d="M44.6322 313.702C45.9301 314.558 47.3507 314.922 48.7665 314.76C50.1823 314.598 51.5488 313.915 52.7434 312.774C53.3548 312.185 53.8851 313.67 53.2777 314.254C51.9539 315.507 50.4441 316.257 48.8801 316.442C47.3162 316.626 45.7457 316.237 44.306 315.311C44.1653 315.24 44.048 315.093 43.9778 314.898C43.9077 314.704 43.8899 314.477 43.9282 314.264C43.9721 314.051 44.0707 313.873 44.2025 313.767C44.3343 313.662 44.4887 313.639 44.6321 313.702H44.6322Z" fill="white"/>
<path id="Vector_6" d="M132.739 348.935C132.365 349.318 131.99 349.702 131.615 350.099C126.595 355.293 121.867 361.084 117.477 367.417C117.133 367.898 116.788 368.394 116.454 368.889C105.988 384.313 97.5379 402.493 91.5339 422.505C89.1497 430.471 87.1765 438.696 85.6313 447.108C83.4978 458.725 81.8059 471.573 77.3479 481.18C76.8904 482.191 76.3912 483.158 75.8533 484.076L34.0729 485.696C33.9767 485.629 33.8803 485.576 33.7837 485.509L32.1175 485.687C32.1768 485.245 32.2447 484.788 32.3041 484.346C32.3378 484.089 32.3808 483.832 32.4144 483.575C32.4399 483.404 32.4658 483.233 32.4821 483.076C32.4904 483.019 32.4992 482.962 32.5077 482.919C32.5241 482.763 32.5505 482.62 32.5671 482.477C32.9419 479.923 33.3295 477.368 33.7299 474.813C33.7296 474.799 33.7296 474.799 33.7387 474.785C36.8223 455.328 41.0252 436.083 47.0584 418.399C47.2401 417.867 47.421 417.32 47.6217 416.788C50.371 408.839 53.5524 401.238 57.1343 394.06C59.1041 390.139 61.2061 386.368 63.4323 382.764C69.1963 373.465 75.9078 365.574 83.3207 359.378C98.0995 347.029 115.369 341.848 131.51 348.415C131.922 348.583 132.326 348.752 132.739 348.935Z" fill="#F0F0F0"/>
<path id="Vector_7" d="M132.659 349.727C112.179 356.597 93.0407 373.243 79.2207 396.813C76.2329 401.909 73.5001 407.465 71.7138 413.718C70.004 419.833 69.4265 426.517 70.041 433.076C70.5315 439.209 71.5106 445.398 70.9902 451.602C70.4416 458.14 67.9348 463.57 64.3552 467.333C59.9754 471.938 54.7445 473.927 49.5836 475.608C43.8534 477.474 37.8817 479.277 33.169 484.814C32.598 485.485 31.9316 484.128 32.5017 483.458C40.7009 473.825 51.9414 475.344 60.9743 468.418C65.1893 465.186 68.7749 460.045 69.7078 452.9C70.5236 446.651 69.5175 440.268 68.9849 434.065C68.4256 427.551 68.6187 421.261 70.1463 415.046C71.709 408.687 74.3014 402.961 77.1886 397.774C83.7945 386.084 91.5951 376.013 100.305 367.927C110.21 358.617 121.114 351.896 132.543 348.055C133.251 347.818 133.362 349.491 132.659 349.727H132.659Z" fill="white"/>
<path id="Vector_8" d="M83.4411 388.799C81.0922 384.756 79.7861 379.603 79.7561 374.26C79.726 368.916 80.9739 363.731 83.277 359.63C83.7449 358.803 84.6314 359.845 84.1628 360.674C82.0135 364.487 80.8514 369.317 80.8862 374.293C80.921 379.268 82.1505 384.061 84.3528 387.807C84.8307 388.622 83.9163 389.61 83.4411 388.799Z" fill="white"/>
<path id="Vector_9" d="M69.517 430.015C76.8366 430.907 84.1133 427.663 89.8961 420.93C90.4687 420.262 91.1353 421.619 90.5635 422.286C84.5369 429.276 76.9598 432.629 69.3442 431.676C68.6184 431.584 68.7951 429.924 69.517 430.015H69.517Z" fill="white"/>
<path id="Vector_10" d="M110.442 360.819C111.131 362.665 112.118 364.227 113.314 365.366C114.51 366.504 115.878 367.183 117.294 367.341C118.02 367.419 117.842 369.079 117.121 369.002C115.557 368.816 114.047 368.064 112.724 366.81C111.401 365.557 110.304 363.841 109.53 361.811C109.446 361.629 109.412 361.407 109.435 361.188C109.457 360.97 109.535 360.773 109.652 360.637C109.773 360.507 109.924 360.453 110.072 360.487C110.22 360.521 110.353 360.64 110.442 360.819Z" fill="white"/>
<path id="Vector_11" d="M377.953 33.2933C377.329 30.5537 369.507 21.2412 374.3 19.6759L378.231 27.4718L396.304 0.591797L398.122 3.29531L377.953 33.2933Z" fill="#2A4793"/>
<path id="Vector_12" d="M377.953 124.697C377.329 121.957 369.507 112.645 374.3 111.079L378.231 118.875L396.304 91.9952L398.122 94.6987L377.953 124.697Z" fill="#2A4793"/>
<path id="Vector_13" d="M377.953 217.406C377.329 214.666 369.507 205.354 374.3 203.788L378.231 211.584L396.304 184.704L398.122 187.408L377.953 217.406Z" fill="#2A4793"/>
<path id="Vector_14" d="M361.311 142.453C364.391 142.453 366.888 138.739 366.888 134.158C366.888 129.577 364.391 125.863 361.311 125.863C358.231 125.863 355.734 129.577 355.734 134.158C355.734 138.739 358.231 142.453 361.311 142.453Z" fill="#3F3D56"/>
<path id="Vector_15" d="M361.311 52.04C364.391 52.04 366.888 48.3263 366.888 43.7452C366.888 39.1641 364.391 35.4504 361.311 35.4504C358.231 35.4504 355.734 39.1641 355.734 43.7452C355.734 48.3263 358.231 52.04 361.311 52.04Z" fill="#3F3D56"/>
<path id="Vector_16" d="M504.36 24.6671H414.571V26.3261H504.36V24.6671Z" fill="#3F3D56"/>
<path id="Vector_17" d="M364.099 238.833C367.179 238.833 369.676 235.119 369.676 230.538C369.676 225.957 367.179 222.244 364.099 222.244C361.019 222.244 358.522 225.957 358.522 230.538C358.522 235.119 361.019 238.833 364.099 238.833Z" fill="#3F3D56"/>
<path id="Vector_18" d="M504.36 116.07H414.571V117.729H504.36V116.07Z" fill="#3F3D56"/>
<path id="Vector_19" d="M504.36 208.779H414.571V210.438H504.36V208.779Z" fill="#3F3D56"/>
<path id="Vector_20" d="M392.039 229.765H364.154V187.462H383.116V189.121H365.269V228.106H390.924V209.028H392.039V229.765Z" fill="#3F3D56"/>
<path id="Vector_21" d="M392.039 136.864H364.154V94.5604H383.116V96.2194H365.269V135.205H390.924V116.127H392.039V136.864Z" fill="#3F3D56"/>
<path id="Vector_22" d="M392.039 42.3033H364.154V0H383.116V1.65895H365.269V40.6444H390.924V21.5664H392.039V42.3033Z" fill="#3F3D56"/>
<path id="Vector_23" d="M209.976 150.775C209.976 150.775 202.523 197.575 211.632 197.575C220.74 197.575 242.27 144.617 242.27 144.617L234.817 131.07L221.441 158.692L220.74 144.617L209.976 150.775Z" fill="#A0616A"/>
<path id="Vector_24" d="M240.284 146.652C244.288 146.652 247.534 141.824 247.534 135.869C247.534 129.913 244.288 125.086 240.284 125.086C236.28 125.086 233.034 129.913 233.034 135.869C233.034 141.824 236.28 146.652 240.284 146.652Z" fill="#A0616A"/>
<path id="Vector_25" d="M203.657 469.524L213.307 469.523L217.898 414.159L203.655 414.16L203.657 469.524Z" fill="#A0616A"/>
<path id="Vector_26" d="M203.317 484.497L232.994 484.496V483.937C232.993 479.381 231.776 475.011 229.61 471.79C227.444 468.568 224.506 466.758 221.443 466.758H221.442L216.021 460.641L205.907 466.758L203.316 466.759L203.317 484.497Z" fill="#2F2E41"/>
<path id="Vector_27" d="M99.849 451.616L108.484 458.025L129.215 411.537L116.47 402.077L99.849 451.616Z" fill="#A0616A"/>
<path id="Vector_28" d="M95.049 464.788L121.603 484.497L121.77 483.998C123.138 479.921 123.361 475.203 122.39 470.881C121.419 466.56 119.334 462.989 116.593 460.954L116.593 460.954L113.579 451.88L102.692 450.636L100.374 448.916L95.049 464.788Z" fill="#2F2E41"/>
<path id="Vector_29" d="M317.804 484.551H0V486.41H317.804V484.551Z" fill="#CCCCCC"/>
<path id="Vector_30" d="M141.264 235.678C141.264 235.678 137.407 304.647 136.579 319.426C136.011 328.691 134.619 337.802 132.439 346.521C132.439 346.521 130.783 351.448 130.783 356.374L112.014 407.108C112.014 407.108 106.278 413.378 107.106 418.305C107.934 423.231 103.648 426.186 103.648 426.186L123.414 431.852C123.414 431.852 122.586 428.157 125.07 426.926C127.554 425.694 129.531 415.012 129.531 415.012L157.28 347.753L177.154 286.174C177.154 286.174 188.746 341.595 191.23 347.753C191.23 347.753 200.339 416.721 201.995 422.879C203.651 429.037 204.479 429.037 203.651 431.5C202.823 433.964 202.823 436.427 203.651 437.658C204.479 438.89 220.212 437.658 220.212 437.658L216.072 350.216L208.62 245.531L170.529 228.289L141.264 235.678Z" fill="#2F2E41"/>
<path id="Vector_31" d="M178.556 71.0295C188.16 71.0295 195.945 59.4502 195.945 45.1663C195.945 30.8825 188.16 19.3031 178.556 19.3031C168.953 19.3031 161.167 30.8825 161.167 45.1663C161.167 59.4502 168.953 71.0295 178.556 71.0295Z" fill="#A0616A"/>
<path id="Vector_32" d="M210.276 108.826L189.575 90.172C189.575 90.172 189.001 78.5885 183.103 78.0435C180.142 77.7698 175.698 77.3515 169.03 76.712C167.621 76.5769 166.67 88.0445 165.054 87.8889L143.203 96.51L146.516 180.258C146.516 180.258 141.547 213.51 143.203 219.668C144.859 225.826 139.063 228.289 140.719 229.521C142.375 230.752 140.719 239.373 140.719 239.373C140.719 239.373 173.013 264.005 208.619 245.531L205.307 229.521C205.758 227.428 205.843 225.199 205.553 223.044C205.263 220.888 204.608 218.879 203.651 217.205C203.651 217.205 206.963 209.815 202.823 203.658C202.823 203.658 204.479 192.573 200.339 187.647L199.511 170.405L201.995 161.784L210.276 108.826Z" fill="#E6E6E6"/>
<path id="Vector_33" d="M163.467 59.9412L162.981 58.262C162.918 58.0449 156.769 36.4226 162.22 23.0854C164.743 16.9109 169.331 13.4249 175.856 12.725C186.066 11.627 193.054 15.2292 196.631 23.424C197.231 24.8128 197.568 26.4164 197.607 28.066C197.646 29.7157 197.385 31.3505 196.853 32.7986C196.32 34.2466 195.535 35.4545 194.58 36.2951C193.624 37.1358 192.535 37.5781 191.425 37.5757H191.288L189.412 33.9528L189.302 34.3052C188.623 36.4906 187.064 37.6871 185.237 37.425C184.926 37.3918 184.651 37.7908 184.429 38.6445C184.355 39.018 184.214 39.3548 184.022 39.6196C183.83 39.8843 183.594 40.0673 183.338 40.1492C181.988 40.5401 180.064 38.0111 179.202 36.7507C179.169 37.0408 179.094 37.3169 178.983 37.5603C178.872 37.8038 178.727 38.0089 178.558 38.1618C177.65 38.9407 176.238 37.9232 175.833 37.5992C172.603 38.6199 170.512 38.3469 169.616 36.7888C169.009 43.1787 167.706 54.6804 166.143 55.3179C165.979 55.3738 165.808 55.3501 165.655 55.2502C165.501 55.1504 165.373 54.9797 165.29 54.7635C164.914 54.0369 164.577 53.6748 164.367 53.7764C163.859 54.017 163.559 56.5071 163.516 58.1142L163.467 59.9412Z" fill="#2F2E41"/>
<path id="Vector_34" d="M201.167 110.057L209.427 108.061C215.378 116.565 219.431 127.578 221.04 139.615C223.524 159.321 224.352 163.015 224.352 163.015L204.479 170.405L193.715 139.615L201.167 110.057Z" fill="#E6E6E6"/>
<path id="Vector_35" d="M164.514 135.688L159.409 231.936L289.679 247.219L294.783 150.972L164.514 135.688Z" fill="white"/>
<path id="Vector_36" d="M178.431 143.145C175.243 139.759 171.196 139.514 169.649 139.563C170.121 141.753 171.587 147.369 174.775 150.757C177.971 154.151 182.013 154.389 183.557 154.341C183.086 152.152 181.62 146.533 178.431 143.145Z" fill="#2A4793"/>
<path id="Vector_37" d="M191.008 204.389L170.09 201.935C169.472 201.862 168.85 201.972 168.261 202.256C167.671 202.541 167.125 202.996 166.653 203.595C166.182 204.193 165.794 204.924 165.513 205.746C165.231 206.568 165.061 207.464 165.012 208.383C164.964 209.302 165.037 210.227 165.229 211.104C165.42 211.981 165.726 212.793 166.128 213.494C166.531 214.196 167.022 214.772 167.575 215.191C168.127 215.61 168.729 215.863 169.348 215.935L190.265 218.389C191.513 218.536 192.75 217.939 193.702 216.729C194.654 215.52 195.244 213.798 195.343 211.941C195.441 210.085 195.04 208.246 194.227 206.83C193.414 205.414 192.256 204.536 191.008 204.389Z" fill="#2A4793"/>
<path id="Vector_38" d="M289.648 141.617L172.37 127.855C171.005 127.696 169.634 127.937 168.332 128.566C167.031 129.195 165.826 130.199 164.785 131.52C163.745 132.842 162.889 134.456 162.268 136.269C161.647 138.082 161.272 140.06 161.164 142.089L156.654 227.069C156.437 231.168 157.324 235.227 159.119 238.353C160.913 241.48 163.47 243.419 166.225 243.743L283.503 257.504C284.867 257.664 286.239 257.422 287.541 256.793C288.842 256.165 290.047 255.161 291.088 253.839C292.128 252.517 292.984 250.904 293.605 249.09C294.226 247.277 294.601 245.3 294.708 243.271L298.995 162.5L299.081 160.85L299.217 158.282C299.325 156.253 299.162 154.213 298.74 152.277C298.317 150.342 297.642 148.549 296.753 147.001C295.865 145.454 294.78 144.182 293.561 143.258C292.341 142.334 291.012 141.776 289.648 141.617ZM286.185 215.554L285.442 229.555C285.306 232.027 284.517 234.32 283.248 235.93C281.979 237.54 280.333 238.338 278.67 238.149L262.98 236.31C261.318 236.108 259.777 234.935 258.694 233.048C257.611 231.161 257.075 228.713 257.202 226.239L257.945 212.238C258.082 209.766 258.87 207.474 260.139 205.864C261.408 204.254 263.053 203.456 264.717 203.644L280.401 205.485C282.064 205.688 283.605 206.861 284.688 208.747C285.772 210.633 286.31 213.08 286.185 215.554ZM163.974 208.254C164.096 205.988 164.817 203.887 165.979 202.411C167.141 200.936 168.649 200.205 170.173 200.381L191.09 202.837C191.845 202.924 192.582 203.231 193.258 203.742C193.933 204.252 194.535 204.956 195.027 205.812C195.52 206.668 195.895 207.661 196.13 208.732C196.364 209.804 196.455 210.934 196.396 212.058C196.337 213.181 196.13 214.277 195.786 215.281C195.442 216.286 194.969 217.18 194.393 217.912C193.817 218.645 193.149 219.201 192.428 219.549C191.708 219.898 190.948 220.031 190.192 219.943L190.182 219.947L169.265 217.491C168.509 217.402 167.773 217.093 167.098 216.58C166.423 216.068 165.823 215.362 165.332 214.504C164.84 213.646 164.467 212.653 164.235 211.58C164.002 210.508 163.913 209.377 163.974 208.254ZM168.452 139.008L168.309 138.137L168.911 138.055C169.146 138.018 174.71 137.275 179.042 141.876C183.373 146.478 184.701 154.552 184.759 154.889L184.896 155.762L184.296 155.852C183.444 155.946 182.588 155.937 181.737 155.826C179.029 155.591 176.413 154.277 174.164 152.023C169.833 147.421 168.505 139.347 168.452 139.008Z" fill="#2A4793"/>
<path id="Vector_39" d="M268.589 224.839L261.791 224.042C261.306 223.986 260.826 224.219 260.456 224.689C260.087 225.159 259.858 225.829 259.819 226.55C259.781 227.271 259.937 227.985 260.252 228.536C260.568 229.086 261.017 229.428 261.502 229.486L268.3 230.284C268.785 230.339 269.265 230.107 269.635 229.636C270.004 229.166 270.233 228.497 270.272 227.776C270.31 227.055 270.154 226.341 269.839 225.79C269.523 225.239 269.074 224.898 268.589 224.839Z" fill="#2A4793"/>
<path id="Vector_40" d="M281.139 226.312L274.341 225.514C273.856 225.459 273.377 225.692 273.007 226.162C272.638 226.633 272.409 227.301 272.371 228.022C272.333 228.743 272.488 229.457 272.804 230.008C273.119 230.558 273.568 230.9 274.052 230.959L280.851 231.756C281.335 231.811 281.815 231.578 282.184 231.108C282.554 230.638 282.783 229.969 282.821 229.248C282.859 228.528 282.703 227.814 282.388 227.263C282.073 226.713 281.624 226.371 281.139 226.312Z" fill="#2A4793"/>
<path id="Vector_41" d="M268.96 217.839L262.162 217.042C261.677 216.987 261.198 217.22 260.828 217.69C260.459 218.16 260.23 218.829 260.192 219.55C260.154 220.271 260.309 220.985 260.624 221.535C260.939 222.086 261.389 222.428 261.873 222.486L268.671 223.284C269.156 223.339 269.636 223.107 270.006 222.636C270.376 222.166 270.605 221.497 270.643 220.776C270.681 220.055 270.525 219.341 270.21 218.79C269.894 218.239 269.445 217.898 268.96 217.839Z" fill="#2A4793"/>
<path id="Vector_42" d="M281.511 219.312L274.712 218.514C274.228 218.459 273.748 218.691 273.378 219.162C273.008 219.632 272.779 220.301 272.741 221.022C272.703 221.743 272.859 222.457 273.174 223.008C273.489 223.559 273.939 223.9 274.424 223.959L281.222 224.756C281.707 224.812 282.187 224.579 282.556 224.109C282.926 223.639 283.155 222.97 283.193 222.248C283.232 221.527 283.076 220.813 282.76 220.262C282.445 219.712 281.995 219.37 281.511 219.312Z" fill="#2A4793"/>
<path id="Vector_43" d="M269.331 210.839L262.533 210.042C262.048 209.986 261.568 210.219 261.199 210.689C260.829 211.159 260.6 211.828 260.562 212.55C260.523 213.271 260.679 213.985 260.995 214.536C261.31 215.086 261.76 215.428 262.244 215.486L269.043 216.284C269.527 216.339 270.007 216.106 270.376 215.636C270.746 215.165 270.975 214.497 271.013 213.776C271.051 213.055 270.895 212.341 270.58 211.79C270.265 211.24 269.816 210.898 269.331 210.839Z" fill="#2A4793"/>
<path id="Vector_44" d="M281.882 212.312L275.084 211.514C274.599 211.459 274.119 211.692 273.75 212.162C273.381 212.633 273.152 213.301 273.114 214.022C273.075 214.743 273.231 215.457 273.546 216.007C273.861 216.558 274.31 216.9 274.795 216.959L281.593 217.756C282.078 217.811 282.558 217.578 282.927 217.108C283.296 216.638 283.525 215.969 283.563 215.248C283.602 214.527 283.446 213.813 283.131 213.263C282.816 212.712 282.366 212.37 281.882 212.312Z" fill="#2A4793"/>
<path id="Vector_45" d="M159.421 168.902L159.334 170.557L297.003 186.642L297.09 184.987L159.421 168.902Z" fill="white"/>
<path id="Vector_46" d="M299.081 160.85L298.994 162.5L294.203 161.941L243.155 155.977L243.248 154.325L294.29 160.291L299.081 160.85Z" fill="#3F3D56"/>
<path id="Vector_47" d="M130.783 143.31C130.783 143.31 123.33 190.11 132.439 190.11C141.547 190.11 163.077 137.152 163.077 137.152L155.624 123.605L142.248 151.226L141.547 137.152L130.783 143.31Z" fill="#A0616A"/>
<path id="Vector_48" d="M161.091 139.187C165.095 139.187 168.341 134.359 168.341 128.404C168.341 122.448 165.095 117.62 161.091 117.62C157.087 117.62 153.841 122.448 153.841 128.404C153.841 134.359 157.087 139.187 161.091 139.187Z" fill="#A0616A"/>
<path id="Vector_49" d="M149.236 103.899L144.267 96.51C144.267 96.51 134.331 105.131 133.503 113.752C132.674 122.373 128.534 149.468 128.534 149.468L143.853 151.315L148.821 140.231L149.236 103.899Z" fill="#E6E6E6"/>
</g>
<defs>
<clipPath id="clip0_31_79">
<rect width="504.36" height="486.41" fill="white"/>
</clipPath>
</defs>
</svg>
