<svg width="925" height="500" viewBox="0 0 925 500" fill="none" xmlns="http://www.w3.org/2000/svg">
<g clip-path="url(#clip0_136_2)">
<path d="M142.252 0H-92.2525C-103.035 0 -111.802 8.77228 -111.802 19.5545V480.451C-111.802 491.233 -103.035 500 -92.2525 500H142.252C153.035 500 161.797 491.233 161.797 480.451V19.5545C161.802 8.77228 153.035 0 142.252 0ZM5.82671 457.921C5.82671 447.327 14.401 438.738 25 438.738C35.6138 438.738 44.1732 447.327 44.1732 457.921C44.1732 468.52 35.6138 477.104 25 477.104C14.401 477.104 5.82671 468.52 5.82671 457.921ZM-96.9455 425.045V60.797H146.955V425.045H-96.9455Z" fill="black"/>
<path d="M576.252 0H341.748C330.965 0 322.198 8.77228 322.198 19.5545V480.451C322.198 491.233 330.965 500 341.748 500H576.252C587.035 500 595.797 491.233 595.797 480.451V19.5545C595.802 8.77228 587.035 0 576.252 0ZM439.827 457.921C439.827 447.327 448.401 438.738 459 438.738C469.614 438.738 478.173 447.327 478.173 457.921C478.173 468.52 469.614 477.104 459 477.104C448.401 477.104 439.827 468.52 439.827 457.921ZM337.054 425.045V60.797H580.955V425.045H337.054Z" fill="black"/>
<path d="M1009.25 0H774.748C763.965 0 755.198 8.77228 755.198 19.5545V480.451C755.198 491.233 763.965 500 774.748 500H1009.25C1020.03 500 1028.8 491.233 1028.8 480.451V19.5545C1028.8 8.77228 1020.03 0 1009.25 0ZM872.827 457.921C872.827 447.327 881.401 438.738 892 438.738C902.614 438.738 911.173 447.327 911.173 457.921C911.173 468.52 902.614 477.104 892 477.104C881.401 477.104 872.827 468.52 872.827 457.921ZM770.054 425.045V60.797H1013.96V425.045H770.054Z" fill="black"/>
</g>
<path fill-rule="evenodd" clip-rule="evenodd" d="M900 210C913.798 210 925 221.202 925 235C925 248.798 913.798 260 900 260C886.202 260 875 248.798 875 235C875 221.202 886.202 210 900 210ZM900 212.083C912.648 212.083 922.917 222.352 922.917 235C922.917 247.648 912.648 257.917 900 257.917C887.352 257.917 877.083 247.648 877.083 235C877.083 222.352 887.352 212.083 900 212.083ZM893.75 224.069L907.167 235L893.75 245.965L895.163 247.5L910.417 235L895.135 222.5L893.75 224.069Z" fill="black"/>
<path fill-rule="evenodd" clip-rule="evenodd" d="M25 210C11.2021 210 0 221.202 0 235C0 248.798 11.2021 260 25 260C38.7979 260 50 248.798 50 235C50 221.202 38.7979 210 25 210ZM25 212.083C12.3521 212.083 2.08334 222.352 2.08334 235C2.08334 247.648 12.3521 257.917 25 257.917C37.6479 257.917 47.9167 247.648 47.9167 235C47.9167 222.352 37.6479 212.083 25 212.083ZM31.25 224.069L17.8333 235L31.25 245.965L29.8375 247.5L14.5833 235L29.8646 222.5L31.25 224.069Z" fill="black"/>
<defs>
<clipPath id="clip0_136_2">
<rect width="867" height="500" fill="white" transform="translate(25)"/>
</clipPath>
</defs>
</svg>
