<svg width="206" height="206" viewBox="0 0 206 282" fill="none" xmlns="http://www.w3.org/2000/svg">
<g clip-path="url(#clip0_135_2)">
<path d="M201.653 35.3253C199.861 27.0194 198.687 18.4472 194.142 10.6552C190.559 5.28986 183.174 1.80263 175.308 0.701514C166.546 -0.506915 157.549 0.0854334 148.738 0.699606C136.071 1.64778 123.471 3.00857 110.868 4.3285C92.8944 6.4488 61.531 7.47622 38.1643 9.62755C35.3708 9.87629 32.5728 10.1094 29.791 10.419C32.0231 10.4855 34.2523 10.5941 36.4815 10.6993C55.6925 11.4939 74.8608 12.9348 94.1145 13.0813C110.918 13.3012 127.668 12.1043 144.414 11.2644C165.127 9.98714 176.973 9.88814 180.695 14.469C182.618 16.0997 185.766 26.895 186.932 33.2933C189.852 46.869 191.416 60.5836 191.611 74.3272C192.294 112.618 190.665 150.899 187.679 189.119C185.196 205.505 184.159 221.962 183.823 238.441C183.563 251.272 180.362 263.709 173.633 269.311C172.462 270.186 172.593 270.229 170.129 271.11C169.663 271.209 168.897 271.374 168.196 271.489C165.859 271.56 163.519 271.523 161.189 271.375C122.685 268.921 77.8972 271.139 45.7669 266.619C36.959 265.385 27.8591 264.921 23.9754 264.334C18.1189 263.367 18.458 263.658 15.7619 262.404C15.57 262.263 15.3356 262.089 15.0975 261.902C15.0468 261.842 14.9876 261.786 14.9397 261.725C14.8305 261.431 14.6577 260.971 14.5184 260.508C14.5406 260.82 14.5171 260.93 14.4705 260.344C14.3861 260.065 14.3321 259.782 14.3088 259.498C14.3683 259.621 14.4101 259.749 14.4335 259.879C14.2278 257.567 14.209 255.249 14.3774 252.936C15.8679 235.047 16.5606 217.132 17.7829 199.233C20.2121 160.392 23.2534 121.554 23.3717 82.6594C22.4244 57.0635 18.9207 31.5427 17.1835 5.96966C12.5877 30.4436 10.9638 55.1365 10.1709 79.8139C8.78635 94.84 8.66622 109.901 8.03943 124.949C7.17978 143.938 5.75861 162.909 4.65259 181.89C3.33765 200.788 2.27494 219.693 1.20352 238.598C0.819174 244.457 0.122524 250.308 0 256.175C0.00826499 260.749 0.334502 265.828 4.95291 269.276C8.98894 272.491 14.9854 273.827 20.7042 274.508C30.2457 275.409 30.5519 275.507 38.1107 276.269C52.7934 278.067 67.5719 279.606 82.4707 279.908C106.066 280.308 129.68 280.408 153.247 281.444C161.593 281.774 170.584 283.122 178.209 279.857C201.412 268.766 197.363 237.923 198.74 219.932C199.136 208.725 201.005 197.586 202.228 186.421C203.25 170.033 204.223 153.643 205.147 137.251C206.059 121.462 205.868 105.654 205.944 89.8543C206.238 71.6239 205.445 53.3684 201.653 35.3253Z" fill="black"/>
<path d="M14.4706 260.344C14.4858 260.398 14.5021 260.453 14.5185 260.508C14.5061 260.331 14.4793 260.094 14.4336 259.879C14.4427 259.965 14.4449 260.051 14.4549 260.137C14.4604 260.216 14.4653 260.281 14.4706 260.344Z" fill="black"/>
<path d="M108.971 26.6751C94.0979 24.4171 78.897 25.1144 63.8215 24.6783C78.1392 28.6109 93.6123 28.4562 108.593 27.1902C110.545 26.9838 111.998 27.0383 108.971 26.6751Z" fill="black"/>
<path d="M128.966 19.4366C119.566 19.6077 119.591 29.7298 128.966 29.9198C138.367 29.7486 138.342 19.6265 128.966 19.4366Z" fill="black"/>
<path d="M68.692 167.68C60.0139 165.154 50.7823 168.534 42.3896 170.269C47.9898 170.105 57.2873 169.364 61.0097 169.745C68.1612 170.17 71.5532 173.313 68.9855 177.789C65.8949 182.635 57.4758 183.402 51.8073 180.964C49.4122 179.899 47.028 178.162 47.2049 175.95C47.5882 174.532 46.7538 176.189 46.7286 176.741C46.7926 183.913 59.9111 187.129 67.6234 184.059C76.3749 180.988 78.5961 170.774 68.692 167.68Z" fill="black"/>
<path d="M124.824 172.491C119.79 167.454 107.218 169.866 99.8801 170.269C105.131 170.783 108.354 171.049 112.576 171.54C116.401 172.107 122.279 172.789 121.205 176.303C120.316 178.576 119.511 180.589 115.838 182.15C112.573 183.136 108.03 182.805 105.538 180.869C104.674 179.859 104.27 178.673 104.385 177.483C104.163 177.999 104.007 178.529 103.92 179.067C103.263 185.282 117.013 187.235 121.824 182.974C125.178 180.261 127.563 175.917 124.824 172.491Z" fill="black"/>
<path d="M160.174 173.41C152.929 170.601 144.462 172.844 136.994 174.013C145.289 174.365 162.052 172.808 160.418 181.634C159.933 183.077 159.088 184.441 157.927 185.658C156.201 186.96 153.96 188.321 151.351 188.286C148.079 188.135 145.519 186.422 143.291 184.874C146.894 190.232 153.234 192.177 160.075 188.351C166.387 184.725 167.981 176.587 160.174 173.41Z" fill="black"/>
<path d="M75.7256 203.703C69.5592 200.488 61.4421 202.981 54.761 203.966C59.589 204.272 65.3798 204.373 67.9953 204.788C69.427 204.93 70.8032 205.288 72.0366 205.841C73.4201 206.793 74.3025 208.074 74.5287 209.457C74.7885 211.353 75.0923 214.312 73.5345 216.224C71.745 217.279 69.4962 217.822 67.204 217.753C64.7002 217.287 62.3442 216.467 60.268 215.337C62.1553 217.054 64.3227 218.902 67.2756 219.581C70.4942 220.142 74.3867 219.773 76.8891 218.092C81.0798 214.084 81.0947 207.157 75.7256 203.703Z" fill="black"/>
<path d="M122.379 199.366C114.243 197.061 105.53 199.367 97.697 201.292C105.173 201.034 113.282 200.123 120.192 202.626C123.67 203.929 125.257 205.938 123.588 208.34C122.887 209.724 120.065 211.448 119.261 211.822C117.092 213.157 114.324 213.848 111.498 213.76C110.315 213.789 109.137 213.638 108.037 213.317C106.937 212.996 105.939 212.511 105.106 211.894C104.083 211.135 103.174 210.298 102.395 209.395C102.602 209.939 102.862 210.472 103.171 210.989C106.267 217.225 117.12 217.49 123.558 213.903C131.846 210.017 132.189 202.108 122.379 199.366Z" fill="black"/>
<path d="M157.272 200.158C151.309 198.444 144.986 200.734 139.177 201.827C144.87 201.976 151.394 200.662 156.385 203.23C161.312 206.186 162.201 211.539 159.333 215.679C156.658 219.784 151.612 219.019 147.947 216.583C146.912 215.986 145.926 215.345 144.994 214.663C145.411 215.221 145.851 215.768 146.336 216.295C150.38 221.348 157.924 222.654 162.858 217.464C168.391 211.991 166.344 202.792 157.272 200.158Z" fill="black"/>
<path d="M52.5779 233.385C56.7268 233.393 60.8782 233.158 65.0248 233.31C66.8634 233.479 69.4623 233.409 71.6648 234.762C73.0583 235.732 74.0602 236.967 74.56 238.329C75.0597 239.691 75.0379 241.128 74.4969 242.482C72.9708 244.998 68.0342 245.595 64.6502 245.441C63.4746 245.39 62.3014 245.318 61.1307 245.225C62.5257 245.687 63.953 246.094 65.4065 246.445C69.1507 247.259 73.7796 246.882 76.7087 244.865C78.6143 243.364 79.154 241.136 79.1936 239.145C77.1255 227.656 63.248 230.907 52.5779 233.385Z" fill="black"/>
<path d="M114.982 228.501C109.247 226.96 103.203 228.954 97.697 230.176C102.934 230.19 108.543 229.175 113.518 230.747C114.648 231.201 115.614 231.847 116.336 232.631C117.058 233.415 117.514 234.315 117.668 235.254C117.598 237.023 116.638 238.711 114.974 239.99C113.562 240.767 111.958 241.337 110.252 241.668C113.016 241.751 116.033 241.471 117.937 239.836C119.055 239.039 119.887 238.05 120.356 236.958C120.825 235.867 120.917 234.706 120.624 233.582C120.33 232.457 119.661 231.404 118.676 230.517C117.691 229.63 116.422 228.937 114.982 228.501Z" fill="black"/>
<path d="M157.925 231.171C151.98 227.262 143.579 228.282 136.267 228.571C141.074 229.482 146.246 229.808 150.703 231.485C155.519 233.528 157.113 236.796 155.578 240.177C154.252 243.989 149.747 247.636 143.151 247.288C139.677 246.889 136.492 245.631 134.124 243.72C133.831 243.454 133.562 243.175 133.303 242.891C133.393 243.126 133.485 243.362 133.593 243.593C136.759 249.839 147.829 252.747 155.254 248.605C162.8 244.894 165.231 235.786 157.925 231.171Z" fill="black"/>
<path d="M166.197 66.1173C158.359 61.5124 147.607 61.2298 138.01 60.5196C138.341 60.5519 138.775 60.5944 139.174 60.6333C128.352 59.9269 117.493 59.5864 106.635 59.2911C95.3694 59.2101 83.9249 58.7332 72.7634 60.0113C61.1606 62.2956 54.8634 69.3548 53.0055 77.7384C50.902 85.3961 50.8328 93.2156 50.5912 100.995C50.3601 106.692 49.9697 112.393 50.0876 118.094C50.1194 119.526 50.2579 120.956 50.5024 122.377C50.4652 122.147 50.4054 121.783 50.3105 121.221C50.3231 121.694 50.389 122.165 50.5073 122.629C50.7157 124.266 51.2503 125.871 52.094 127.392C51.8519 129.96 51.1575 132.565 51.8811 135.096C53.5872 139.577 60.0948 139.751 65.3154 138.994C68.8846 138.679 72.4552 138.372 76.0269 138.073C85.5963 137.182 95.2715 136.704 104.867 137.594C117.678 138.998 130.203 141.516 142.846 143.545C150.874 145.244 157.408 141.977 161.075 136.814C166.47 130.26 167.226 122.459 168.744 115.05C170.724 104.967 171.317 94.7818 171.716 84.6088C171.775 78.3031 173.791 70.6032 166.197 66.1173ZM153.536 89.279C153.38 99.7816 152.217 110.263 150.056 120.645C149.552 123.662 148.122 128.536 145.897 131.14C136.061 129.528 126.286 127.694 116.384 126.296C109.071 125.214 101.64 124.622 94.1821 124.527C87.3363 124.77 80.526 125.398 73.8115 126.408C77.5265 122.529 79.9725 117.502 81.3416 113.694C83.8892 105.233 84.6547 96.5238 85.4769 87.8961C85.5711 84.5288 86.2423 81.0968 85.3944 77.7642C85.0234 76.7398 84.2323 75.8244 83.1284 75.1423C82.0245 74.4602 80.6615 74.0445 79.2249 73.9519C82.3188 73.7996 85.4292 73.8057 88.5266 73.7243C96.4911 73.5587 104.459 73.6586 112.42 73.8828C128.59 74.4278 147.111 74.1686 153.738 76.2297C153.894 80.575 153.604 84.933 153.536 89.279V89.279Z" fill="#E71C1D"/>
</g>
<defs>
<clipPath id="clip0_135_2">
<rect width="206" height="282" fill="white"/>
</clipPath>
</defs>
</svg>
