<svg width="554" height="433" viewBox="0 0 554 433" fill="none" xmlns="http://www.w3.org/2000/svg">
<g id="undraw_transfer_money_rywa 1">
<path id="Vector" d="M237.429 404.947C341.273 404.947 425.456 314.296 425.456 202.473C425.456 90.6504 341.273 0 237.429 0C133.584 0 49.4013 90.6504 49.4013 202.473C49.4013 314.296 133.584 404.947 237.429 404.947Z" fill="#F2F2F2"/>
<path id="Vector_2" d="M74.606 433C115.81 433 149.212 427.245 149.212 420.146C149.212 413.047 115.81 407.292 74.606 407.292C33.4022 407.292 0 413.047 0 420.146C0 427.245 33.4022 433 74.606 433Z" fill="#F2F2F2"/>
<path id="Vector_3" d="M438.562 419.934C502.317 419.934 554 411.029 554 400.045C554 389.06 502.317 380.156 438.562 380.156C374.808 380.156 323.125 389.06 323.125 400.045C323.125 411.029 374.808 419.934 438.562 419.934Z" fill="#F2F2F2"/>
<path id="Vector_4" d="M412.914 208.87C412.914 208.87 413.897 212.398 408.328 215.573C402.759 218.748 401.121 230.742 407.673 234.27C414.225 237.797 416.19 242.383 412.914 245.558C409.638 248.733 403.741 257.2 411.604 259.316C419.466 261.433 420.449 265.666 418.156 267.43C415.863 269.194 423.397 264.255 423.397 264.255C423.397 264.255 424.708 272.722 431.587 270.605C438.467 268.488 457.795 228.273 447.967 222.628C438.139 216.984 412.914 208.87 412.914 208.87Z" fill="#2F2E41"/>
<path id="Vector_5" d="M424.788 242.934C424.788 242.934 428.186 255.741 422.239 256.656C418.549 257.275 415.052 258.844 412.045 261.23L423.089 276.782H443.478L456.221 263.06C456.221 263.06 439.23 249.337 442.629 241.104C446.027 232.871 424.788 242.934 424.788 242.934Z" fill="#FFB9B9"/>
<path id="Vector_6" opacity="0.1" d="M424.788 242.934C424.788 242.934 428.186 255.741 422.239 256.656C418.549 257.275 415.052 258.844 412.045 261.23L423.089 276.782H443.478L456.221 263.06C456.221 263.06 439.23 249.337 442.629 241.104C446.027 232.871 424.788 242.934 424.788 242.934Z" fill="black"/>
<path id="Vector_7" d="M429.885 402.113L449.425 409.431L463.017 410.346L462.168 397.538L434.133 388.61L429.885 402.113Z" fill="#FFB9B9"/>
<path id="Vector_8" d="M454.947 399.368C454.947 399.368 454.947 412.175 456.646 412.175C458.345 412.175 481.283 409.431 488.079 412.175C494.876 414.92 505.07 404.857 499.973 399.368C494.876 393.879 486.561 385.646 481.374 387.475C476.186 389.305 454.947 393.879 454.947 393.879V399.368Z" fill="#575A89"/>
<path id="Vector_9" d="M392.505 387.475C392.505 387.475 382.311 409.431 389.107 411.26C395.903 413.09 403.549 410.346 404.399 409.431C405.248 408.516 417.142 404.857 418.841 406.686C420.54 408.516 420.54 399.368 420.54 399.368L392.505 387.475Z" fill="#575A89"/>
<path id="Vector_10" d="M401.001 357.286C401.001 357.286 384.859 381.071 396.753 387.475C408.647 393.879 465.566 393.879 469.814 387.475C474.062 381.071 475.761 360.945 469.814 359.116C463.867 357.286 401.001 357.286 401.001 357.286Z" fill="#2F2E41"/>
<path id="Vector_11" opacity="0.2" d="M401.001 357.286C401.001 357.286 384.859 381.071 396.753 387.475C408.647 393.879 465.566 393.879 469.814 387.475C474.062 381.071 475.761 360.945 469.814 359.116C463.867 357.286 401.001 357.286 401.001 357.286Z" fill="black"/>
<path id="Vector_12" d="M431.584 249.338C442.376 249.338 451.124 239.917 451.124 228.297C451.124 216.676 442.376 207.256 431.584 207.256C420.793 207.256 412.045 216.676 412.045 228.297C412.045 239.917 420.793 249.338 431.584 249.338Z" fill="#FFB9B9"/>
<path id="Vector_13" d="M401.001 261.23L417.992 257.571C417.992 257.571 422.239 272.208 435.832 269.463C449.425 266.719 452.823 257.571 452.823 257.571C452.823 257.571 463.018 262.145 463.867 262.145C464.717 262.145 475.761 266.719 475.761 269.463C475.761 272.208 463.018 299.652 463.018 299.652L464.717 349.053L401.85 347.223L406.098 298.738L401.001 261.23Z" fill="#2A4793"/>
<path id="Vector_14" d="M391.656 285.015C391.656 285.015 386.558 333.501 389.956 337.16C393.355 340.819 406.947 350.882 406.947 350.882V339.905L400.151 326.182L406.947 294.164L391.656 285.015Z" fill="#FFB9B9"/>
<path id="Vector_15" d="M479.584 283.643C479.584 283.643 476.61 333.501 476.61 335.33C476.61 337.16 468.965 343.564 466.416 343.564C463.867 343.564 462.168 338.99 462.168 338.99L468.115 331.671L463.867 294.163L479.584 283.643Z" fill="#FFB9B9"/>
<path id="Vector_16" d="M471.513 353.627C471.513 353.627 509.743 330.756 510.592 353.627C511.442 376.497 491.053 385.645 491.053 385.645C491.053 385.645 438.381 402.653 436.257 396.436C434.133 390.22 429.885 380.157 433.283 379.242C436.682 378.327 440.929 376.497 442.629 378.327C444.328 380.157 465.566 364.605 465.566 364.605L471.513 353.627Z" fill="#2F2E41"/>
<path id="Vector_17" opacity="0.2" d="M489.354 350.882C489.354 350.882 481.708 354.542 479.159 357.286C476.61 360.031 465.566 364.605 465.566 364.605" stroke="black" stroke-width="2" stroke-miterlimit="10"/>
<path id="Vector_18" d="M406.098 263.06L401.001 261.23C401.001 261.23 382.311 282.271 388.257 287.76C394.204 293.249 397.602 295.079 399.301 296.908C401.001 298.738 409.496 299.653 409.496 299.653L406.098 263.06Z" fill="#2A4793"/>
<path id="Vector_19" d="M468.115 267.634L475.761 269.463C475.761 269.463 481.708 283.186 483.407 285.015C485.106 286.845 480.858 285.93 478.31 289.589C475.761 293.249 473.212 299.652 468.115 299.652C463.018 299.652 456.221 290.504 456.221 290.504L468.115 267.634Z" fill="#2A4793"/>
<path id="Vector_20" d="M402.7 361.86C402.7 361.86 370.417 337.16 359.373 355.456C348.329 373.753 406.947 398.453 415.443 402.112C423.938 405.772 431.584 409.431 431.584 409.431C431.584 409.431 439.23 389.305 439.23 385.646C439.23 381.986 433.283 381.986 431.584 381.986C429.885 381.986 422.239 380.157 420.54 377.412C418.841 374.668 402.7 361.86 402.7 361.86Z" fill="#2F2E41"/>
<path id="Vector_21" opacity="0.2" d="M384.859 355.457C384.859 355.457 393.355 362.775 401.001 364.605C408.647 366.434 411.195 371.009 411.195 371.009" stroke="black" stroke-width="2" stroke-miterlimit="10"/>
<path id="Vector_22" d="M396.839 321.06L397.518 359.794C397.541 361.073 398.032 362.291 398.884 363.182C399.737 364.073 400.883 364.565 402.071 364.551L469.009 363.741C470.15 363.727 471.243 363.248 472.068 362.4C472.893 361.551 473.389 360.398 473.454 359.172L475.486 321.248C475.522 320.588 475.431 319.928 475.221 319.308C475.012 318.688 474.686 318.12 474.265 317.64C473.844 317.16 473.337 316.777 472.774 316.516C472.211 316.254 471.604 316.119 470.991 316.119H401.342C400.743 316.119 400.151 316.248 399.599 316.497C399.047 316.747 398.547 317.112 398.128 317.572C397.708 318.032 397.379 318.577 397.157 319.176C396.936 319.775 396.828 320.415 396.839 321.06Z" fill="#575A89"/>
<path id="Vector_23" d="M432.628 201.865C432.628 201.865 433.717 205.773 427.548 209.29C421.378 212.808 419.563 226.095 426.822 230.003C434.08 233.911 436.257 238.991 432.628 242.508C428.999 246.025 422.467 255.404 431.177 257.749C439.887 260.094 440.975 264.784 438.435 266.738C435.895 268.692 444.242 263.22 444.242 263.22C444.242 263.22 445.693 272.6 453.314 270.255C460.936 267.91 468.54 225.287 460.044 214.309C452.145 204.102 432.628 201.865 432.628 201.865Z" fill="#2F2E41"/>
<path id="Vector_24" d="M430.31 197.843C430.312 192.117 446.219 196.231 453.039 204.225C457.761 209.761 464.935 218.089 458.924 223.96C452.913 229.83 469.227 237.526 473.602 239.859C477.978 242.193 486.617 249.328 478.816 254.114C471.016 258.901 471.142 263.733 474.077 264.877C477.013 266.021 467.605 263.176 467.605 263.176C467.605 263.176 468.556 272.629 460.63 272.584C452.704 272.539 429.964 225.633 435.397 212.595C440.448 200.472 430.31 197.843 430.31 197.843Z" fill="#2F2E41"/>
<path id="Vector_25" d="M433.756 196.588C412.484 195.209 410.349 212.451 410.349 212.451C410.496 222.429 425.211 217.567 429.298 219.055C434.229 215.235 443.733 208.008 450.53 202.851C445.596 199.109 439.782 196.939 433.756 196.588Z" fill="#2F2E41"/>
<path id="Vector_26" d="M427.695 306.613C427.695 306.613 408.614 210.317 289.184 140.461" stroke="#3F3D56" stroke-width="2" stroke-miterlimit="10"/>
<path id="Vector_27" d="M294.104 138.361L294.343 139.417L289.513 140.678L291.035 145.775L290.074 146.106L288.221 139.899L294.104 138.361Z" fill="#3F3D56"/>
<path id="Vector_28" d="M34.517 405.007C34.517 417.204 27.7841 421.462 19.4779 421.462C19.2855 421.462 19.0934 421.46 18.9016 421.455C18.5167 421.446 18.1356 421.427 17.759 421.399C10.2628 420.828 4.43884 416.35 4.43884 405.007C4.43884 393.268 18.3692 378.456 19.4156 377.36L19.4175 377.358C19.4578 377.316 19.4779 377.295 19.4779 377.295C19.4779 377.295 34.517 392.811 34.517 405.007Z" fill="#2A4793"/>
<path id="Vector_29" d="M18.93 419.596L24.4305 411.32L18.9162 420.505L18.9016 421.455C18.5167 421.446 18.1356 421.427 17.759 421.399L18.3518 409.197L18.3472 409.102L18.3573 409.084L18.4132 407.932L12.8852 398.724L18.4306 407.067L18.4435 407.312L18.8915 398.092L14.1589 388.578L18.9492 396.474L19.4156 377.36L19.4175 377.295V377.358L19.3396 392.431L24.0512 386.455L19.3203 393.729L19.1957 401.984L23.5948 394.062L19.1774 403.199L19.1078 407.788L25.4943 396.761L19.0839 409.389L18.93 419.596Z" fill="#3F3D56"/>
<path id="Vector_30" d="M106.25 401.847L109.467 399.274C109.467 399.274 111.596 412.082 109.22 414.002C106.844 415.921 97.9329 419.119 97.9329 422.957C97.9329 426.795 77.735 431.913 77.1409 426.156C76.5469 420.399 78.9231 417.2 78.9231 417.2C78.9231 417.2 88.428 406.965 89.6161 405.046C90.8042 403.127 93.7745 399.289 93.7745 399.289L106.25 401.847Z" fill="#2F2E41"/>
<path id="Vector_31" d="M58.7252 242.563C58.7252 242.563 58.8143 243.126 58.9687 244.156C59.1114 245.07 59.3073 246.363 59.545 247.955C62.0401 264.351 69.3173 312.616 68.8241 314.209C68.2301 316.128 64.0717 323.165 68.8241 325.084C69.2816 325.269 69.7746 325.871 70.3033 326.817C71.3238 328.856 72.1651 330.994 72.8162 333.201C75.6498 342.055 78.6796 356.224 80.432 366.037C81.1984 370.349 81.7211 373.816 81.8755 375.633C81.9292 376.052 81.9352 376.478 81.8934 376.899C81.2993 379.458 85.4577 388.414 87.2399 390.972C89.022 393.531 91.9923 396.09 91.3983 398.649C90.8042 401.208 106.25 408.244 108.032 403.766C109.814 399.289 109.814 396.73 110.408 395.45C111.002 394.171 111.596 385.215 108.626 383.936C105.656 382.656 107.438 360.267 104.467 355.789C103.475 354.299 101.961 349.251 100.374 343.181C99.7507 340.801 99.121 338.268 98.5032 335.728C95.9963 325.32 93.7745 314.849 93.7745 314.849L94.3685 240.004L61.6955 235.526L60.8579 237.516L59.1886 241.462L58.7252 242.563Z" fill="#2F2E41"/>
<path id="Vector_32" d="M56.943 365.385C56.943 365.385 52.1906 360.267 49.8144 365.385C47.4381 370.502 45.0619 390.333 40.9035 394.811C36.7451 399.288 31.3986 421.678 37.3392 422.957C43.2798 424.237 49.8144 421.038 50.4084 417.2C51.0025 413.362 63.4776 393.531 63.4776 391.612C63.4776 389.693 55.1608 382.656 55.1608 382.656L56.943 365.385Z" fill="#2F2E41"/>
<path id="Vector_33" d="M130.012 207.38C130.012 207.38 122.289 282.224 120.507 289.261C118.725 296.297 109.22 323.165 106.25 327.643C103.279 332.12 84.2696 368.583 81.8934 370.502C79.5171 372.421 74.7647 377.539 74.7647 377.539C74.7647 377.539 65.8539 387.134 64.6658 389.053C63.4776 390.973 53.3787 385.215 52.7846 381.377C52.1906 377.539 53.3787 371.142 53.9727 368.583C54.5668 366.024 52.7846 362.186 54.5668 360.267C56.349 358.348 65.2598 348.753 65.2598 344.275C65.2598 339.797 80.7053 313.569 86.6458 307.812C92.5864 302.055 91.3983 292.459 91.3983 292.459V253.438L58.7252 242.563C58.7252 242.563 60.5074 211.857 64.6658 211.857C68.8241 211.857 123.477 201.622 130.012 207.38Z" fill="#2F2E41"/>
<path id="Vector_34" d="M81.8934 100.55C92.7203 100.55 101.497 91.0988 101.497 79.4401C101.497 67.7814 92.7203 58.3301 81.8934 58.3301C71.0665 58.3301 62.2895 67.7814 62.2895 79.4401C62.2895 91.0988 71.0665 100.55 81.8934 100.55Z" fill="#9F616A"/>
<path id="Vector_35" d="M88.428 96.0722C88.428 96.0722 90.8042 105.668 93.7745 108.226C96.7448 110.785 86.0518 121.66 86.0518 121.66L65.8539 122.939L62.2895 110.785C62.2895 110.785 68.8241 96.7119 67.042 87.7561C65.2598 78.8004 88.428 96.0722 88.428 96.0722Z" fill="#9F616A"/>
<path id="Vector_36" d="M96.7448 106.947C96.7448 106.947 91.3983 107.587 90.2101 109.506C89.022 111.425 80.7053 117.182 74.1706 115.903C67.636 114.623 63.4776 112.704 62.2895 113.344C61.1014 113.984 58.7252 127.417 58.7252 127.417L65.2598 147.888L64.0717 204.181L62.2895 219.534C62.2895 219.534 58.7252 214.416 72.9825 217.615C87.2399 220.813 105.656 215.056 111.596 214.416C117.537 213.776 127.636 211.857 128.23 208.019C128.824 204.181 126.448 190.108 126.448 190.108L116.943 147.248L111.002 124.219L96.7448 106.947Z" fill="#2A4793"/>
<path id="Vector_37" d="M91.1256 104.06C91.1256 104.06 96.1507 101.19 97.9329 103.749C99.715 106.307 122.289 110.146 122.289 112.065C122.289 113.984 127.042 165.799 125.853 170.277C124.665 174.755 128.23 179.873 128.23 179.873L132.388 199.063C132.388 199.063 143.675 235.526 138.923 236.806C134.17 238.085 130.012 236.806 128.23 236.806C126.448 236.806 127.042 212.497 122.289 206.1C117.537 199.703 111.002 183.711 109.814 180.512C108.626 177.314 93.7745 133.175 94.3685 128.057C94.9626 122.939 91.1256 104.06 91.1256 104.06Z" fill="#D0CDE1"/>
<path id="Vector_38" d="M66.4479 106.947C66.4479 106.947 61.6955 106.947 61.1014 108.226C60.5074 109.506 54.5668 117.822 52.1906 119.741C49.8143 121.66 41.4976 129.976 41.4976 131.895C41.4976 133.814 58.7252 147.888 58.7252 147.888C58.7252 147.888 65.8539 185.63 62.2895 198.424C58.7252 211.218 53.3787 241.923 55.7549 243.842C58.1311 245.761 63.4776 246.401 63.4776 243.842C63.4776 241.283 67.042 213.776 70.0123 208.019C72.9825 202.262 81.8934 165.799 78.329 155.564C74.7647 145.329 66.4479 106.947 66.4479 106.947Z" fill="#D0CDE1"/>
<path id="Vector_39" d="M144.863 170.277C144.863 170.277 145.457 190.108 138.923 200.343C132.388 210.578 128.23 222.093 128.23 222.093C128.23 222.093 117.537 218.894 115.755 215.056C113.972 211.218 102.685 214.416 102.685 213.137C102.685 211.857 116.349 205.46 117.537 204.181C118.725 202.902 122.883 202.902 125.259 200.343C127.636 197.784 128.23 192.027 128.23 192.027L130.606 175.395L144.863 170.277Z" fill="#9F616A"/>
<path id="Vector_40" d="M95.3955 66.4242C96.9036 66.2767 98.459 66.1144 99.7919 65.3404C102.778 63.606 103.57 58.667 101.297 55.9546C100.67 55.2644 99.9689 54.6573 99.2084 54.1462L94.6928 50.8365C92.6956 49.3727 90.6513 47.8849 88.3219 47.1948C86.2151 46.5707 83.9899 46.6348 81.809 46.7808C77.5753 47.0642 73.3154 47.6495 69.3334 49.2235C65.3513 50.7976 61.6367 53.4309 59.225 57.1886C55.4017 63.1456 55.3491 71.1798 57.4549 78.0569C59.5607 84.934 63.5607 90.9226 67.5021 96.7897L69.5472 86.0447C69.7293 85.0876 69.9649 84.0387 70.7041 83.4723C72.5412 82.0645 74.7886 84.955 77.0434 84.9362C78.4922 84.9242 79.7086 83.641 80.2576 82.1972C80.8067 80.7534 80.8428 79.1545 80.9698 77.6003C81.2389 74.3085 82.3074 69.7283 85.2023 67.9128C87.8999 66.2211 92.3633 66.7208 95.3955 66.4242Z" fill="#2F2E41"/>
<path id="Vector_41" opacity="0.1" d="M94.2957 243.079C94.2957 243.079 92.2893 305.573 91.1012 307.492C89.9131 309.411 91.1012 242.883 91.1012 242.883L94.2957 243.079Z" fill="black"/>
<path id="Vector_42" d="M117.537 112.065H122.289C122.289 112.065 142.487 141.491 140.111 143.41C137.735 145.329 140.111 150.447 140.111 150.447L144.863 160.042C144.863 160.042 150.804 165.799 149.022 167.079C147.239 168.358 144.863 173.476 144.863 173.476C144.863 173.476 132.982 171.557 129.418 179.233L121.713 168.759L117.537 112.065Z" fill="#D0CDE1"/>
<path id="Vector_43" d="M119.216 121.53L102.909 128.781L115.458 161.506L131.766 154.254L119.216 121.53Z" fill="#2F2E41"/>
<path id="Vector_44" d="M117.305 140.723C119.106 139.922 120.013 137.828 119.329 136.046C118.646 134.264 116.632 133.469 114.831 134.27C113.029 135.071 112.123 137.165 112.806 138.947C113.49 140.728 115.504 141.524 117.305 140.723Z" fill="#2A4793"/>
<path id="Vector_45" d="M105.656 163.24C105.656 163.24 62.8836 201.622 55.7549 189.468C48.6262 177.314 63.4776 167.079 63.4776 167.079C63.4776 167.079 76.5469 167.718 91.3983 157.483L106.25 150.447C106.25 150.447 119.808 129.603 124.428 137.54C129.048 145.477 116.541 159.291 105.656 163.24Z" fill="#9F616A"/>
<path id="Vector_46" d="M48.0322 129.336L41.4976 131.895V151.086L39.1213 154.924C39.1213 154.924 39.7154 162.601 41.4976 164.52C43.2797 166.439 46.8441 165.799 45.656 170.277C44.9419 173.196 44.7404 176.234 45.0619 179.233C45.0619 179.233 55.7549 193.946 56.349 192.027C56.943 190.108 65.2598 166.439 66.4479 166.439C67.636 166.439 54.5668 129.336 54.5668 129.336H48.0322Z" fill="#D0CDE1"/>
<path id="Vector_47" d="M126.151 226.251C126.151 226.251 132.293 219.854 129.222 219.534C126.151 219.214 115.458 212.817 113.675 216.015C111.893 219.214 126.151 226.251 126.151 226.251Z" fill="#2F2E41"/>
<path id="Vector_48" d="M242.974 104.222C247.706 104.222 251.543 102.035 251.543 99.3371C251.543 96.6389 247.706 94.4517 242.974 94.4517C238.241 94.4517 234.404 96.6389 234.404 99.3371C234.404 102.035 238.241 104.222 242.974 104.222Z" fill="#57B894"/>
<path id="Vector_49" d="M275.74 115.622C256.416 107.763 237.092 107.763 217.769 115.622V90.1089C236.672 83.9666 256.837 83.9666 275.74 90.1089V115.622Z" stroke="#3F3D56" stroke-width="2" stroke-miterlimit="10"/>
<path id="Vector_50" d="M267.674 110.346C253.728 104.674 239.781 104.674 225.834 110.346V91.932C239.477 87.4989 254.031 87.4989 267.674 91.932V110.346Z" stroke="#3F3D56" stroke-width="2" stroke-miterlimit="10"/>
<path id="Vector_51" d="M245.998 102.051C250.731 102.051 254.568 99.8638 254.568 97.1657C254.568 94.4675 250.731 92.2803 245.998 92.2803C241.265 92.2803 237.429 94.4675 237.429 97.1657C237.429 99.8638 241.265 102.051 245.998 102.051Z" stroke="#3F3D56" stroke-width="2" stroke-miterlimit="10"/>
<path id="Vector_52" d="M249.275 134.818C253.912 133.799 257.265 130.829 256.764 128.186C256.263 125.542 252.098 124.225 247.46 125.244C242.823 126.264 239.47 129.233 239.971 131.877C240.472 134.52 244.638 135.837 249.275 134.818Z" fill="#57B894"/>
<path id="Vector_53" d="M283.496 138.931C263.103 135.392 244.17 139.553 226.696 151.415L221.958 126.417C239.338 116.329 259.097 111.986 278.758 113.934L283.496 138.931Z" stroke="#3F3D56" stroke-width="2" stroke-miterlimit="10"/>
<path id="Vector_54" d="M274.614 135.498C259.895 132.944 246.23 135.947 233.619 144.508L230.199 126.467C242.743 119.185 257.004 116.051 271.194 117.457L274.614 135.498Z" stroke="#3F3D56" stroke-width="2" stroke-miterlimit="10"/>
<path id="Vector_55" d="M251.835 132.039C256.472 131.02 259.825 128.051 259.324 125.407C258.823 122.763 254.658 121.447 250.021 122.466C245.383 123.485 242.03 126.454 242.531 129.098C243.032 131.741 247.198 133.058 251.835 132.039Z" stroke="#3F3D56" stroke-width="2" stroke-miterlimit="10"/>
<path id="Vector_56" d="M255.139 161.037C255.313 158.345 251.627 155.877 246.905 155.523C242.184 155.169 238.215 157.064 238.041 159.756C237.867 162.447 241.554 164.916 246.275 165.27C250.997 165.624 254.965 163.729 255.139 161.037Z" fill="#57B894"/>
<path id="Vector_57" d="M278.228 179.091C259.457 169.807 240.18 168.362 220.397 174.758L222.041 149.306C241.294 144.592 261.411 146.099 279.872 153.64L278.228 179.091Z" stroke="#3F3D56" stroke-width="2" stroke-miterlimit="10"/>
<path id="Vector_58" d="M270.522 173.225C256.974 166.524 243.061 165.481 228.783 170.097L229.97 151.728C243.866 148.325 258.385 149.413 271.709 154.856L270.522 173.225Z" stroke="#3F3D56" stroke-width="2" stroke-miterlimit="10"/>
<path id="Vector_59" d="M258.297 159.097C258.47 156.405 254.784 153.937 250.063 153.583C245.341 153.229 241.373 155.124 241.199 157.816C241.025 160.507 244.711 162.976 249.433 163.33C254.154 163.684 258.123 161.789 258.297 159.097Z" stroke="#3F3D56" stroke-width="2" stroke-miterlimit="10"/>
<path id="Vector_60" d="M209.16 116.214C209.16 116.214 172.111 110.756 145.653 127.453" stroke="#3F3D56" stroke-width="2" stroke-miterlimit="10"/>
<path id="Vector_61" d="M146.544 121.842L147.507 122.17L146.002 127.272L150.839 128.514L150.603 129.571L144.714 128.056L146.544 121.842Z" fill="#3F3D56"/>
</g>
</svg>
