<svg width="523" height="504" viewBox="0 0 523 504" fill="none" xmlns="http://www.w3.org/2000/svg">
<g id="wave">
<g id="Group">
<path id="Vector" d="M232.002 49.831C240.492 49.831 247.375 42.9484 247.375 34.4582C247.375 25.968 240.492 19.0854 232.002 19.0854C223.512 19.0854 216.629 25.968 216.629 34.4582C216.629 42.9484 223.512 49.831 232.002 49.831Z" fill="#2A4793"/>
<path id="Vector_2" d="M235.311 3.06798C234.199 0.974945 232.798 -0.0428701 231.43 0.00138278C230.062 0.0456356 228.728 1.15375 227.751 3.31377L220.406 19.5943C220.408 19.5928 220.409 19.5928 220.41 19.5913L220.409 19.5943C223.962 17.2468 228.212 15.8729 232.781 15.8716C236.695 15.8716 240.378 16.878 243.587 18.6421L243.586 18.6406C243.587 18.6421 243.589 18.6421 243.59 18.6421L235.311 3.06798Z" fill="#2A4793"/>
<path id="Vector_3" d="M215.644 23.4071L200.068 31.6876C195.882 33.9107 195.994 37.2932 200.314 39.2432L216.595 46.5886C214.247 43.0359 212.871 38.7857 212.871 34.2168C212.871 30.2993 213.878 26.6166 215.644 23.4071Z" fill="#2A4793"/>
<path id="Vector_4" d="M263.684 30.7526L247.403 23.4073C249.751 26.9599 251.126 31.2116 251.126 35.7807C251.126 39.695 250.119 43.3777 248.355 46.5886L263.93 38.3097C268.115 36.0866 268.004 32.7026 263.684 30.7526Z" fill="#2A4793"/>
<path id="Vector_5" d="M243.589 50.4042C240.036 52.7517 235.786 54.1256 231.217 54.1269C227.302 54.1269 223.62 53.1205 220.41 51.3563L220.412 51.3578C220.41 51.3578 220.409 51.3563 220.407 51.3563L228.688 66.9321C229.799 69.025 231.201 70.043 232.568 69.9986C233.936 69.9544 235.27 68.8464 236.246 66.6862L243.592 50.4058C243.59 50.4073 243.589 50.4073 243.587 50.4088L243.589 50.4042Z" fill="#2A4793"/>
</g>
<g id="Group_2">
<path id="Vector_6" d="M42.0017 483.831C50.4919 483.831 57.3745 476.948 57.3745 468.458C57.3745 459.968 50.4919 453.085 42.0017 453.085C33.5115 453.085 26.6289 459.968 26.6289 468.458C26.6289 476.948 33.5115 483.831 42.0017 483.831Z" fill="#2A4793"/>
<path id="Vector_7" d="M45.3114 437.068C44.1991 434.975 42.7979 433.957 41.4298 434.001C40.0617 434.046 38.7279 435.154 37.7515 437.314L30.4061 453.594C30.4076 453.593 30.4091 453.593 30.4104 453.591L30.4091 453.594C33.9617 451.247 38.2118 449.873 42.781 449.872C46.6953 449.872 50.3779 450.878 53.5874 452.642L53.5861 452.641C53.5874 452.642 53.5889 452.642 53.5903 452.642L45.3114 437.068Z" fill="#2A4793"/>
<path id="Vector_8" d="M25.6439 457.407L10.0683 465.688C5.88236 467.911 5.99389 471.293 10.3142 473.243L26.5948 480.589C24.2473 477.036 22.8705 472.786 22.8705 468.217C22.8705 464.299 23.8783 460.617 25.6439 457.407Z" fill="#2A4793"/>
<path id="Vector_9" d="M73.6836 464.753L57.403 457.407C59.7505 460.96 61.1258 465.212 61.1258 469.781C61.1258 473.695 60.1193 477.378 58.3552 480.589L73.9296 472.31C78.1155 470.087 78.0038 466.703 73.6836 464.753Z" fill="#2A4793"/>
<path id="Vector_10" d="M53.5888 484.404C50.0361 486.752 45.7861 488.126 41.2168 488.127C37.3025 488.127 33.6198 487.12 30.4102 485.356L30.4117 485.358C30.4102 485.358 30.4089 485.356 30.4074 485.356L38.6878 500.932C39.7986 503.025 41.2011 504.043 42.5678 503.999C43.936 503.954 45.2698 502.846 46.2462 500.686L53.5916 484.406C53.5901 484.407 53.5886 484.407 53.5874 484.409L53.5888 484.404Z" fill="#2A4793"/>
</g>
<path id="Vector 1" d="M43.4188 436.727C39.4188 434.327 -6.58122 225.728 3.41878 221.728C13.4188 217.728 108.581 413.273 148 425C187.419 436.727 100.419 201.728 114.419 198.728C128.419 195.728 191.419 340.727 196.419 330.727C201.419 320.728 174.419 67.7275 187.419 63.7274C200.419 59.7274 365.419 494.727 377.419 490.727C389.419 486.727 323.419 214.728 332.419 212.728C341.419 210.728 424.419 359.727 432.419 356.727C440.419 353.727 378.419 55.7275 396.419 35.7275C414.419 15.7275 521.419 414.727 521.419 414.727" stroke="black" stroke-width="3"/>
<g id="Group_3">
<path id="Vector_11" d="M468.002 240.831C476.492 240.831 483.375 233.948 483.375 225.458C483.375 216.968 476.492 210.085 468.002 210.085C459.512 210.085 452.629 216.968 452.629 225.458C452.629 233.948 459.512 240.831 468.002 240.831Z" fill="#F9CAAA"/>
<path id="Vector_12" d="M471.311 194.068C470.199 191.975 468.798 190.957 467.43 191.001C466.062 191.046 464.728 192.154 463.751 194.314L456.406 210.594C456.408 210.593 456.409 210.593 456.41 210.591L456.409 210.594C459.962 208.247 464.212 206.873 468.781 206.872C472.695 206.872 476.378 207.878 479.587 209.642L479.586 209.641C479.587 209.642 479.589 209.642 479.59 209.642L471.311 194.068Z" fill="#F9CAAA"/>
<path id="Vector_13" d="M451.644 214.407L436.068 222.688C431.882 224.911 431.994 228.293 436.314 230.243L452.595 237.589C450.247 234.036 448.871 229.786 448.871 225.217C448.871 221.299 449.878 217.617 451.644 214.407Z" fill="#F9CAAA"/>
<path id="Vector_14" d="M499.684 221.753L483.403 214.407C485.751 217.96 487.126 222.212 487.126 226.781C487.126 230.695 486.119 234.378 484.355 237.589L499.93 229.31C504.115 227.087 504.004 223.703 499.684 221.753Z" fill="#F9CAAA"/>
<path id="Vector_15" d="M479.589 241.404C476.036 243.752 471.786 245.126 467.217 245.127C463.303 245.127 459.62 244.121 456.41 242.356L456.412 242.358C456.41 242.358 456.409 242.356 456.407 242.356L464.688 257.932C465.799 260.025 467.201 261.043 468.568 260.999C469.936 260.954 471.27 259.846 472.246 257.686L479.592 241.406C479.59 241.407 479.589 241.407 479.587 241.409L479.589 241.404Z" fill="#F9CAAA"/>
</g>
</g>
</svg>
